<?xml version="1.0" encoding="utf-8"?>
<!-- Generator: Adobe Illustrator 17.0.0, SVG Export Plug-In . SVG Version: 6.00 Build 0)  -->
<svg version="1.2" baseProfile="tiny" id="Layer_1" xmlns="http://www.w3.org/2000/svg" xmlns:xlink="http://www.w3.org/1999/xlink"
	 x="0px" y="0px" width="260px" height="260px" viewBox="0 0 260 260" xml:space="preserve">
<path fill="#0F97DB" d="M253.182,121.408c-7.824-9.858-22.196-11.507-32.035-3.698c-4.57,3.627-7.342,8.643-8.266,13.983
	l-18.324-3.036c-0.127-13.346-4.507-26.742-13.434-37.99c-14.094-17.759-35.977-25.745-56.918-22.919l-4.823-30.22
	c1.761-0.62,3.473-1.51,5.001-2.722c7.335-5.821,8.569-16.513,2.746-23.85c-5.821-7.335-16.498-8.573-23.833-2.752
	c-7.332,5.819-8.562,16.522-2.739,23.859c3.192,4.022,7.832,6.183,12.619,6.392l4.8,30.467c-8.514,2.037-16.744,5.907-24.063,11.716
	c-11.197,8.887-18.463,20.856-21.648,33.709l-21.947-5.167c0.039-5.31-1.635-10.691-5.209-15.195
	c-8.332-10.499-23.581-12.229-34.053-3.918c-10.49,8.325-12.249,23.568-3.924,34.058c8.334,10.501,23.576,12.247,34.066,3.922
	c4.188-3.324,6.974-7.797,8.292-12.579l21.596,5.094c-2.321,16.264,1.794,33.402,12.808,47.28c0.216,0.272,0.428,0.478,0.632,0.735
	l-12.022,9.541c-7.03-5.139-16.869-5.188-24.024,0.49c-8.619,6.84-10.029,19.341-3.22,27.919
	c6.835,8.612,19.326,10.074,27.944,3.233c8.463-6.717,9.959-18.957,3.481-27.528l11.726-9.306
	c16.488,16.736,40.754,22.291,62.404,15.633l2.521,11.57c-3.366,0.994-6.589,2.664-9.53,4.998
	c-12.38,9.825-14.473,27.797-4.642,40.184c9.819,12.372,27.821,14.445,40.2,4.62c12.397-9.839,14.443-27.824,4.625-40.195
	c-6.194-7.805-15.675-11.511-24.895-10.696l-2.728-12.48c5.167-2.134,10.13-5.023,14.729-8.673
	c13.931-11.056,21.838-26.91,23.219-43.333l18.306,3.004c0.376,4.312,1.95,8.557,4.841,12.2c7.838,9.877,22.18,11.5,32.039,3.674
	C259.338,145.625,261.021,131.285,253.182,121.408z M156.226,143.15c-2.29,4.943-9.143,19.903-9.143,19.903
	s-15.972-9.157-21.296-12.159c-6.301-3.553-23.562-9.6-27.698-20.116c-3.985-10.132-1.605-21.495,8.997-24.271
	c13.014-3.407,20.289,4.974,20.289,4.974s0.784-10.024,13.332-13.318c9.665-2.537,19.575,3.901,24.136,15.497
	C169.167,124.654,158.949,137.275,156.226,143.15z"/>
</svg>
