<?xml version="1.0" encoding="utf-8"?>
<!-- Generator: Adobe Illustrator 17.0.0, SVG Export Plug-In . SVG Version: 6.00 Build 0)  -->
<!DOCTYPE svg PUBLIC "-//W3C//DTD SVG 1.1//EN" "http://www.w3.org/Graphics/SVG/1.1/DTD/svg11.dtd">
<svg version="1.1" id="Layer_1" xmlns="http://www.w3.org/2000/svg" xmlns:xlink="http://www.w3.org/1999/xlink" x="0px" y="0px"
	 width="2500px" height="1402px" viewBox="0 0 2500 1402" enable-background="new 0 0 2500 1402" xml:space="preserve">
<path fill="#EA2D31" d="M0,0.229h2500v1401.553H0V0.229z"/>
<g>
	<path fill="#FFFFFF" d="M152.864,241.31v795.273h168.464c222.802,20.709,222.712-261.835,222.712-261.835v-245.83
		C541.452,236.166,331.548,241.31,331.548,241.31H152.876L152.864,241.31z"/>
	<rect x="616.578" y="241.163" fill="#FFFFFF" width="145.076" height="795.34"/>
	<polygon fill="#FFFFFF" points="1173.573,1034.275 1173.573,917.325 984.457,917.325 984.457,694.523 1116.59,694.523 
		1116.59,567.59 987.046,567.59 987.046,368.108 1168.407,368.108 1168.407,241.152 836.77,241.152 836.77,1035.862 	"/>
	<path fill="#FFFFFF" d="M1442.983,469.132h126.944c0,0,15.532-246.1-183.95-246.1s-189.094,191.694-189.094,191.694
		s-25.909,155.43,139.899,279.775c0,0,173.573,101.058,108.813,209.848c0,0-103.635,93.27-106.246-93.258h-132.11
		c0,0-23.309,256.477,194.305,246.123c0,0,178.728-2.6,191.705-189.128c0,0,20.731-137.31-119.167-264.266
		c0,0-199.482-129.522-126.956-233.146c0.011,0,82.915-85.47,95.847,98.458L1442.983,469.132z"/>
	<polygon fill="#FFFFFF" points="1639.19,241.163 1971.075,241.163 1971.075,370.685 1790.152,370.685 1790.152,570.178 
		1924.862,570.178 1924.862,702.3 1787.552,702.3 1787.552,917.325 1976.68,917.325 1976.68,1041.681 1642.465,1041.681 	"/>
	<polygon fill="#FFFFFF" points="2046.032,241.163 2191.66,241.163 2191.66,917.325 2344.547,917.325 2344.547,1041.681 
		2046.032,1041.681 	"/>
</g>
<path fill="#EA2D31" d="M309.342,364.461c87.001-6.235,84.468,120.023,84.457,120.023v303.174
	c2.589,150.276-93.348,127.136-93.348,127.136V365.361C303.433,364.866,306.528,364.652,309.342,364.461L309.342,364.461z"/>
</svg>
