<?xml version="1.0" encoding="utf-8"?>
<!-- Generator: Adobe Illustrator 17.0.0, SVG Export Plug-In . SVG Version: 6.00 Build 0)  -->
<!DOCTYPE svg PUBLIC "-//W3C//DTD SVG 1.1//EN" "http://www.w3.org/Graphics/SVG/1.1/DTD/svg11.dtd">
<svg version="1.1" id="Layer_1" xmlns="http://www.w3.org/2000/svg" xmlns:xlink="http://www.w3.org/1999/xlink" x="0px" y="0px"
	 width="2500px" height="1044px" viewBox="0 726.5 2500 1044" enable-background="new 0 726.5 2500 1044" xml:space="preserve">
<path d="M1257.471,857.639c16.506,0.772,32.272,7.076,44.759,17.898c17.016,16.108,21.478,42.969,13.424,64.46
	c-31.309,64.447-105.768,107.493-156.649,121.734c-30.44,7.159-68.921,7.159-96.677-3.58c-13.437,8.054-24.772,34.084-41.179,23.268
	c-23.748-18.547-3.191-47.573-16.9-68.169c-2.827-4.241-9.948-4.552-13.527-11.491c-18.806-41.179,4.475-80.568,30.427-111.89
	C1064.416,841.595,1188.549,787.809,1257.471,857.639L1257.471,857.639z M1113.351,889.856
	c-24.176,4.475-51.477,14.993-66.237,32.23c-14.773,17.224-24.163,34.02-15.214,51.918c31.335-23.268,46.548-55.498,81.463-75.186
	C1113.351,895.225,1118.72,892.54,1113.351,889.856z M1259.273,898.818c-61.775-5.382-108.323,41.179-152.187,85.925
	c-2.685,7.159-18.793,15.214-6.264,23.268c59.09,5.37,115.483-11.621,158.452-51.023c12.542-11.634,21.465-26.847,15.227-42.969
	C1271.815,907.767,1265.499,901.502,1259.273,898.818z M1794.548,1165.567c28.65,69.829,52.813,179.917,0,247.061
	c-14.319,16.108-39.376,30.959-55.485,18.793c-59.09-47.43-84.135-115.47-120.839-176.35c-5.37-2.685-5.37,4.488-8.054,7.172
	c-13.424,61.762,11.634,142.33-30.427,190.656c-16.108,2.685-31.179-5.603-36.704-21.478
	c-20.596-63.552,0.869-129.801,6.239-193.353c12.542-32.23,17.911-69.816,45.667-93.992c44.759,17.898,66.236,68.039,92.176,104.744
	c18.819,27.742,34.02,59.077,55.498,84.135c18.793-8.054,9.546-32.619,8.962-47.443c-7.185-58.182-23.294-111.89-38.52-167.388
	c-0.869-14.319-8.923-38.494,6.264-47.443C1759.66,1088.591,1776.637,1130.652,1794.548,1165.567z M1524.22,1144.076
	c0,13.437-10.739,30.22-19.714,32.23c-85.925,13.424-181.706,5.37-262.262,32.217c-2.685,9.844,8.949,11.634,15.214,14.319
	c68.908,10.739,141.435,13.424,208.58,30.44c35.498,9.014,48.351,51.036,51.036,85.938c1.647,27.522-8.936,60.867-35.81,79.673
	c-66.224,42.074-167.375,40.271-234.532,1.803c-25.667-14.396-50.128-37.586-51.918-66.237c0.156-22.749,9.857-40.66,25.965-49.233
	c64.46-25.965,144.12-11.621,199.631,21.478c3.554,17.911-15.823,16.938-25.096,23.281c-61.775,35.81-108.31-40.258-165.598-12.542
	c-8.054,5.37-13.878,20.349-4.475,25.071c70.711,31.335,149.49,8.949,219.306-10.739c8.054-2.685,17.911-10.739,18.793-18.793
	c-2.685-28.65-34.902-34.902-55.498-42.956c-60.867-15.214-127.999-15.214-193.353-21.478
	c-12.529-2.685-28.495-11.413-32.217-21.478c-7.159-21.478-7.159-51.023,8.949-68.921c83.24-73.409,209.449-67.131,315.075-47.443
	C1513.468,1133.337,1521.522,1136.022,1524.22,1144.076L1524.22,1144.076z M1133.052,1178.096
	c8.054,85.925,12.529,165.611,10.739,256.01c-1.79,11.621-15.214,14.319-24.163,18.793c-14.318,2.685-32.826-0.363-38.494-8.054
	c-20.583-33.138-13.424-77.87-15.214-118.155c2.685-63.539,1.79-132.473,19.701-191.563c3.424-8.586,13.424-16.108,21.478-10.752
	C1128.577,1135.127,1132.157,1156.618,1133.052,1178.096L1133.052,1178.096z M2127.573,1165.567c4.306,7.237,8.806,18.417,0,23.268
	c-40.284,17.898-94.874,9.844-141.435,15.214c-12.529,10.739-22.386,28.637-17.924,44.759c4.5,2.685,8.508,6.77,13.45,6.251
	c28.624,1.803,71.606-13.424,90.425,13.424c4.591,7.989-0.623,37.82-13.424,38.494c-34.927,4.5-92.358-4.384-109.231,4.5
	c-21.478,14.319-19.701,42.061-27.755,64.46c15.226,9.844,31.166-0.234,49.22-2.698c33.151-5.37,69.855-15.214,102.954-8.054
	c6.264,11.634,15.226,24.176,8.949,38.494c-56.431,44.759-129.218,90.633-206.764,58.182
	c-29.104-13.048-42.074-57.287-32.217-94.861c6.251-26.86,33.994-52.813,17.003-81.463c-2.685-12.542,4.487-23.268,15.226-25.953
	c29.532,0,23.255-36.704,38.481-53.721c-17.003-18.793-59.959-17.898-55.485-55.498c20.596-10.739,45.667-7.159,68.908-10.739
	c52.813-10.752,111.89-17.016,165.637-10.752C2104.292,1131.028,2118.624,1152.143,2127.573,1165.567z M849.286,961.475
	c82.604,67.521,189.774,182.614,176.35,315.087c-16.122,104.744-127.117,183.509-221.109,208.58
	c-91.307,26.847-205.882,24.163-298.992,2.685c-6.264,17.016-12.529,37.586-32.217,44.759c-12.529,4.475-28.65,1.79-38.494-6.264
	c-27.742-25.965-5.37-76.094-45.654-92.189c-78.778-33.125-163.821-98.479-204.092-179.035
	c-5.369-16.108,0.895-32.217,10.739-44.746c61.775-49.233,139.645-68.921,217.529-84.148c4.475,1.79,2.685-4.475,6.264-6.264
	c4.475-53.708,6.264-108.323,23.268-156.662c3.878-6.783,13.424-8.949,19.701-4.475c49.233,37.586,25.952,108.323,47.443,159.334
	c93.992,4.475,187.984,8.949,262.275,61.775c25.071,20.583,31.179,59.894,23.268,82.358c-7.899,22.425-34.007,38.494-58.182,40.258
	c-16.121,0-46.549,1.569-44.759-10.726c1.79-12.308,54.758-32.45,38.494-49.246c-23.385-24.137-140.385-38.494-212.899-47.443
	c-8.949-1.79-17.159,0.895-17.159,10.739c-1.79,68.026-7.159,143.212,4.475,208.58c0.895,4.488,6.264,9.857,10.752,10.726
	c127.999,20.596,263.169,8.949,363.426-64.447c46.548-37.573,61.775-90.425,53.708-148.595
	c-40.284-162.018-209.462-259.603-348.212-322.26c-135.158-59.077-284.66-89.517-444.889-81.45
	c-25.512,1.868-65.938,10.674-66.237,19.701s45.796,6.187,40.271,23.268c-5.512,17.068-52.359,6.939-66.237,2.685
	s-12.529-24.176-8.949-36.704c34.915-61.762,132.343-66.755,176.35-68.921C458.987,742.156,694.427,834.877,849.286,961.475
	L849.286,961.475z M410.662,1201.376c-61.775,0.895-127.117,7.159-184.404,28.637c-11.634,4.475-25.965,17.003-17.016,32.23
	c23.268,31.322,56.548,57.041,87.727,75.186c31.179,18.119,72.514,41.179,110.113,46.561c8.949-58.195,8.949-115.483,8.054-175.455
	C411.544,1206.746,415.123,1203.166,410.662,1201.376L410.662,1201.376z M2260.928,1119.913
	c-2.685,77.87-75.212,126.222-75.212,204.092c2.685,2.685,4.501,6.264,8.054,4.5c58.208-63.565,115.483-153.977,200.525-180.824
	c22.412-1.79,42.658,17.678,51.036,32.23c29.545,59.077,22.412,142.33-18.78,196.038c-42.502,52.722-116.391,105.626-200.5,96.664
	c-34.902,85.938-59.116,176.35-72.54,270.342c-7.159,18.793-24.15,1.79-34.889-1.79c-72.501-57.288-12.97-208.943-8.054-228.294
	c4.916-19.299,24.318-64.823,38.507-102.941c-34.02-60.854-12.542-134.276,15.2-190.668c21.478-37.599,51.049-75.199,85.951-103.836
	C2254.664,1115.439,2258.243,1116.334,2260.928,1119.913L2260.928,1119.913z M2405.074,1216.59
	c-10.739-1.79-15.227,12.542-24.163,15.227c-41.166,46.548-82.358,93.097-102.954,148.595c27.768,3.58,51.023-14.318,75.211-24.163
	c41.166-25.965,67.132-68.908,64.447-118.155C2415.813,1230.014,2408.654,1223.749,2405.074,1216.59L2405.074,1216.59z"/>
</svg>
