<?xml version="1.0" encoding="utf-8"?>
<!-- Generator: Adobe Illustrator 17.0.0, SVG Export Plug-In . SVG Version: 6.00 Build 0)  -->
<!DOCTYPE svg PUBLIC "-//W3C//DTD SVG 1.1//EN" "http://www.w3.org/Graphics/SVG/1.1/DTD/svg11.dtd">
<svg version="1.1" id="Layer_1" xmlns="http://www.w3.org/2000/svg" xmlns:xlink="http://www.w3.org/1999/xlink" x="0px" y="0px"
	 width="2500px" height="877.25px" viewBox="0 877.25 2500 877.25" enable-background="new 0 877.25 2500 877.25"
	 xml:space="preserve">
<g>
	<path d="M558.154,955.807c48.844,0,89.076,31.607,89.076,86.197c0,48.844-28.741,86.197-86.21,86.197
		c-45.965,0-66.094-25.862-71.84-34.487c-2.879-5.746-14.358-20.103-14.358-48.844C474.823,984.535,517.935,958.686,558.154,955.807
		L558.154,955.807z M552.408,912.708c-80.464,2.866-140.8,45.978-140.8,129.309c0,74.706,51.723,129.296,149.412,129.296
		c100.568,0,149.425-54.59,149.425-132.175c0-40.232-14.358-66.094-25.862-77.585C652.976,924.2,598.386,912.708,552.408,912.708
		L552.408,912.708z M1839.709,961.552h106.313c22.969,0,28.728,5.746,34.474,11.491c2.866,5.746,5.745,14.371,5.745,17.237
		c0,28.741-25.862,28.741-37.366,28.741h-109.179v-57.469L1839.709,961.552L1839.709,961.552z M1776.482,1159.821h63.228v-97.701
		h80.452l66.094,97.701h71.839l-74.732-100.568c11.504-2.879,25.862-5.746,40.232-14.358c17.25-14.37,22.995-34.487,22.995-54.603
		c0-14.358-2.866-31.607-14.358-45.965c-20.116-22.982-45.978-25.862-74.706-25.862h-181.045L1776.482,1159.821L1776.482,1159.821z
		 M86.91,1159.821h126.43c37.353,0,83.331,0,117.804-43.111c17.237-22.983,22.982-51.724,22.982-77.572
		c0-63.215-34.487-112.072-106.313-120.684H86.91V1159.821L86.91,1159.821z M219.085,961.552c20.116,0,45.978,0,63.215,25.862
		c5.746,11.491,11.504,25.862,11.504,48.844c0,31.607-8.625,48.857-14.37,57.469c-17.25,22.983-40.232,22.983-63.215,22.983h-66.094
		V961.552H219.085L219.085,961.552z M1109.849,918.454h60.348v241.367h-60.348V918.454z M1190.313,1036.258l126.429-120.684h74.706
		l-126.429,120.684l126.429,123.563h-74.706l-126.429-120.684V1036.258z M1454.663,1159.821h244.247v-43.111h-183.911v-57.469
		h172.407v-43.098h-172.407v-54.59h178.153v-43.099H1454.65v241.367H1454.663z M2095.421,1099.473
		c34.474,60.348,103.46,68.96,146.545,68.96c34.5,0,137.933-2.879,137.933-80.464c0-54.59-54.59-63.215-86.197-68.96
		c-11.478-2.879-66.094-11.491-77.585-14.371c-20.09-2.879-37.34-5.746-37.34-22.982c0-22.982,31.62-28.741,60.335-28.741
		c14.357,0,37.366,2.879,54.59,11.491c17.25,5.746,22.995,14.37,22.995,17.25l66.094-14.371
		c-5.746-5.746-17.25-25.849-45.978-37.353c-25.862-14.37-57.482-20.116-97.701-20.116s-91.956,8.625-112.072,43.098
		c-8.612,8.625-11.478,20.116-11.478,34.487c0,54.59,63.202,63.215,86.197,68.96c14.332,0,68.947,8.625,80.451,11.491
		c14.357,2.879,31.594,5.746,31.594,22.982c0,28.728-51.724,31.607-66.094,31.607c-37.34,0-77.559-8.625-91.93-37.353
		L2095.421,1099.473L2095.421,1099.473z M983.419,1079.357c-8.625,14.358-22.982,45.978-77.572,45.978
		c-45.965,0-86.197-31.62-86.197-86.197c0-45.978,31.607-83.331,86.197-83.331c45.978,0,66.094,28.728,71.84,37.353l68.96-5.746
		c-31.607-71.84-112.072-77.585-140.8-77.585c-77.572,0-149.425,37.353-149.425,129.309c0,83.331,60.348,129.309,146.545,129.309
		c60.348,0,94.835-20.116,114.938-37.353c20.116-20.129,25.862-37.366,31.607-51.723h-66.094L983.419,1079.357L983.419,1079.357z
		 M2437.382,915.575c-14.357,0-28.728,11.491-28.728,25.875c0,14.358,14.357,25.849,28.728,25.849s25.862-11.491,25.862-25.849
		c0.064-14.226-11.415-25.81-25.641-25.875C2437.529,915.574,2437.456,915.574,2437.382,915.575L2437.382,915.575z
		 M2437.382,961.552c-11.504,0-22.995-8.625-22.995-20.103c0-14.37,11.504-22.982,22.995-22.982s20.116,8.612,20.116,22.982
		C2457.498,952.927,2448.873,961.552,2437.382,961.552z"/>
	<path d="M2448.873,932.811c0-5.746-2.892-5.746-11.504-5.746h-11.504v28.741h5.745v-14.358h5.746l5.746,14.358h5.745l-8.638-14.358
		C2445.994,941.436,2448.873,938.57,2448.873,932.811L2448.873,932.811z M2431.623,938.57v-8.625h5.746c5.745,0,5.745,0,5.745,2.879
		c0,5.746,0,5.746-5.745,5.746H2431.623z M1747.754,1507.502h-5.759v-34.474h8.651l11.465,25.836l8.612-25.836h8.638v34.474h-5.746
		v-28.741l-8.612,28.741h-5.745l-11.504-28.741L1747.754,1507.502L1747.754,1507.502z M1739.142,1478.761h-11.504v28.741h-5.746
		v-28.741h-11.504v-5.733h28.754V1478.761L1739.142,1478.761z M1201.804,1395.443c34.487,0,60.348-17.25,66.094-34.474v-5.746
		v-2.892c0-20.116-14.37-34.474-31.62-34.474c-20.116,0-34.487,14.358-34.487,34.474v2.892c2.866,8.612,5.746,20.116,14.371,25.862
		h-45.965c-5.746-11.504-11.504-22.995-11.504-34.474c0-25.862,17.25-48.87,40.232-63.228c11.504-5.746,22.983-8.612,37.353-8.612
		c40.232,0,74.706,34.474,74.706,77.559v2.892c0,8.612,0,17.25-5.72,28.728c-2.892,2.892-2.892,8.612-5.746,11.504
		c-20.142,25.862-51.736,43.085-89.089,43.085c-2.879,0-5.759-2.866-8.625-2.866H753.543c-25.862-2.866-48.844-17.25-60.335-40.232
		L1201.804,1395.443L1201.804,1395.443z M1779.361,1395.443c-14.357,22.969-37.366,37.366-63.228,40.232h-431.011
		c17.25-8.612,28.754-22.969,34.5-40.232H1779.361z M1316.729,1507.502h-20.116v94.809c11.504-2.866,22.995-8.612,34.474-11.504
		v-51.698h272.975c-14.358,22.969-37.34,37.34-66.068,40.232h-37.366c-66.094,83.318-149.425,140.787-264.363,140.787
		s-198.269-57.482-264.35-140.787h-40.232c-25.862-2.892-51.723-17.25-66.094-40.232h272.975v8.612l2.879,43.086
		c8.625,2.892,20.116,8.638,34.487,11.504v-89.089l-2.866-5.72H842.62c-25.862-2.892-51.723-17.25-63.215-40.232h410.908
		c14.358,0,25.862,11.478,25.862,25.862v155.157c-43.099-2.866-83.331-20.116-117.804-40.232v-28.728h-74.719
		c57.469,63.202,117.804,106.313,212.639,106.313c91.956,0,155.157-43.112,212.639-106.313h-77.585v31.581
		c-34.474,17.25-74.706,34.5-117.804,37.366v-155.157c0-14.383,11.478-25.862,25.849-25.862h410.908
		c-11.478,22.969-34.474,37.34-63.202,40.232H1316.73L1316.729,1507.502L1316.729,1507.502z"/>
</g>
</svg>
