<?xml version="1.0" encoding="utf-8"?>
<!-- Generator: Adobe Illustrator 17.0.0, SVG Export Plug-In . SVG Version: 6.00 Build 0)  -->
<!DOCTYPE svg PUBLIC "-//W3C//DTD SVG 1.1//EN" "http://www.w3.org/Graphics/SVG/1.1/DTD/svg11.dtd">
<svg version="1.1" id="Layer_1" xmlns="http://www.w3.org/2000/svg" xmlns:xlink="http://www.w3.org/1999/xlink" x="0px" y="0px"
	 width="551.54px" height="81.051px" viewBox="0 41.621 551.54 81.051" enable-background="new 0 41.621 551.54 81.051"
	 xml:space="preserve">
<g id="surface1">
	<g>
		<defs>
			<rect id="SVGID_1_" width="719.078" height="212.762"/>
		</defs>
		<clipPath id="SVGID_2_">
			<use xlink:href="#SVGID_1_"  overflow="visible"/>
		</clipPath>
		<g clip-path="url(#SVGID_2_)">
			<path fill="#111617" d="M360.406,41.895c-5.898-0.012-7.195-0.059-16.828-0.117c-15.891-0.098-38.402-0.156-46.207-0.156
				c-12.543,0-52.871,0.328-52.871,0.328c-4.594,0-8.082,0.938-11.336,3.73c-1.762,1.496-3.797,3.496-5.316,5.117
				c-1.441,1.52-42.449,42.387-42.594,42.543c-0.277,0.32-0.926,1.191-0.668,1.984c0.281,0.898,1.109,1.148,1.672,1.148
				c0.402,0,31.336-0.004,31.336-0.004c6.688,0,9.809-2.875,13.039-6.02c3.484-3.395,29.629-29.68,29.629-29.68
				c4.164-4.16,8.16-5,14.375-5h45.234c4.07,0,6.074,0.207,6.77,1.754c0.484,1.074-0.035,2.23-1.77,4.203
				c-1.473,1.691-4.004,4.262-6.242,6.238c-2.762,2.43-6.312,4.691-10.879,6.078c-5.113,1.539-12.148,1.621-13.496,1.621
				l-35.617-0.023c-1.215,0-2.324,1.516-1.113,2.727c0,0,37.277,39.102,37.863,39.719c0.578,0.621,4.895,4.586,10.145,4.586
				c4.891,0,24.809-0.023,27.738-0.023h1.656c1.547,0,1.938-1.871,0.938-2.871c-0.074-0.082-0.723-0.762-0.832-0.871
				c-3.172-3.312-29.285-29.777-29.426-29.918c-0.355-0.363-0.773-0.75-0.676-1.074c0.105-0.359,0.488-0.438,0.676-0.438
				c0.297,0,10.188,0.008,10.188,0.008c4.238,0,12.102-0.617,16.828-2.016c9.359-2.77,13.32-5.73,16.863-8.523
				c2.074-1.641,4.531-3.766,11.957-10.668c4.34-4.027,10.168-10.73,11.211-12.391c0.949-1.512,2.352-4.129,1.5-6.547
				C373.164,44.539,370.523,41.914,360.406,41.895z M541.312,54.465c1.156-0.938,9.082-8.961,9.641-9.52
				c0.312-0.305,0.891-1.078,0.391-1.965c-0.414-0.754-1.172-0.902-1.848-0.902c-0.273,0-150.762,0-150.762,0
				c-1.781,0-2.02-0.039-3.176,1.105c0,0-9.961,9.969-10.043,10.047c-0.062,0.066-0.883,0.773-0.375,1.785
				c0.309,0.613,1.031,1.004,1.48,1.004c0.551,0,56.965-0.035,57.746-0.035c0.645,0,0.746,0.184,0.898,0.395
				c0,0,0.188,0.441-0.082,0.711c-1.039,1.004-36.773,36.492-36.773,36.492c-0.594,0.723-0.645,1.57-0.281,2.141
				c0.148,0.242,0.637,0.754,1.461,0.754c0,0,31.883-0.02,32.578-0.02c3.152,0.043,4.727-0.312,6.191-1.043
				c0.973-0.473,2.18-1.531,3.773-3.109c2.02-2,3.902-3.902,5.008-5.008c9.207-9.219,30.117-30.105,30.289-30.281
				c0.203-0.219,0.488-0.438,0.664-0.613c0.234-0.223,0.586-0.383,0.98-0.383c0.211,0,48.273,0,48.273,0
				C538.793,56.02,540.227,55.336,541.312,54.465z M157.828,67.414l-0.066-0.031c-1.277-0.324-52.492-11.961-52.492-11.961
				c-0.586-0.156-0.988-0.492-0.988-0.879c0-0.535,0.77-0.973,1.715-0.973l90.387-0.043c2.934,0,5.066-0.531,7.086-2.395
				c1.871-1.73,4.637-4.418,6.004-5.719c1.961-1.848,2.539-2.383,2.27-3.094c-0.27-0.699-1.941-0.551-3.582-0.551L74.832,41.738
				c-14.551,0-26.344,6.684-26.344,14.918c0,5.809,6.422,11.715,14.91,14.348c2.109,0.648,4.312,1.305,4.312,1.305
				s40.125,9.297,42.633,9.902c0.641,0.152,1.09,0.5,1.09,0.918c0,0.555-0.668,0.992-2.121,0.992
				c-2.641,0-94.293-0.039-94.293-0.039c-2.938,0-5.004,0.609-7.09,2.395c-1.121,0.957-2.371,2.176-3.352,3.211
				c0,0-2.523,2.48-3.715,3.594c-0.062,0.066-1.281,1.141-0.711,2.25c0.531,1.027,1.391,0.926,2.027,0.926c0,0,128.848,0,145.586,0
				c14.699,0,26.617-6.746,26.617-15.078C174.383,75.062,167.535,69.66,157.828,67.414z"/>
		</g>
	</g>
</g>
</svg>
