<?xml version="1.0" encoding="utf-8"?>
<!-- Generator: Adobe Illustrator 17.0.0, SVG Export Plug-In . SVG Version: 6.00 Build 0)  -->
<!DOCTYPE svg PUBLIC "-//W3C//DTD SVG 1.1//EN" "http://www.w3.org/Graphics/SVG/1.1/DTD/svg11.dtd">
<svg version="1.1" id="Layer_1" xmlns="http://www.w3.org/2000/svg" xmlns:xlink="http://www.w3.org/1999/xlink" x="0px" y="0px"
	 width="2500px" height="1295.741px" viewBox="0 -646.47 2500 1295.741" enable-background="new 0 -646.47 2500 1295.741"
	 xml:space="preserve">
<g>
	<path d="M1596.566-601.17c-36.601-8.741-200.306-20.987-343.98-20.759c-147.043-0.228-312.341,12.018-347.44,20.759
		c-18.028,3.05-70.926,14.795-70.835,76.071c-0.091,79.166,1.958,476.227,43.202,532.358
		c69.606,95.601,354.086,219.244,366.423,224.707c3.888,1.546,8.221,1.546,12.109,0c12.838-5.372,308.289-129.288,368.153-226.437
		c38.695-63.051,41.791-525.849,41.472-530.629C1666.036-586.375,1613.091-598.12,1596.566-601.17z M1596.566-11.77
		c-49.94,81.351-302.963,192.385-345.71,210.867C1207.7,180.342,962.689,69.218,903.417-11.77
		c-26.905-36.92-36.829-334.283-36.283-513.329c-0.546-25.676,11.654-37.967,44.932-44.932
		c30.137-7.102,191.156-19.712,340.52-19.029c145.859-0.683,305.375,11.927,335.33,19.029c33.506,6.965,45.706,19.302,44.932,44.932
		C1633.623-432.685,1623.926-55.928,1596.566-11.77z"/>
	<path d="M1256.046,202.558C1256.501,202.011,1256.547,202.011,1256.046,202.558
		C1256.547,202.011,1256.547,202.011,1256.046,202.558C1256.547,202.011,1256.501,202.011,1256.046,202.558z"/>
	<path d="M1262.966-397.176c4.78-14.75,38.24-36.829,43.202-32.868c0-4.917,24.31-27.178,32.868-22.443
		c-1.73-7.603,31.594-28.453,39.743-22.489c1.593-8.559,49.894-14.932,58.772-6.874c6.237-6.191,49.075,4.234,50.122,15.524
		c7.83-7.466,51.533,38.741,51.852,62.231c-0.228,8.786-41.336-27.815-67.421-20.713c-42.656,14.021-97.194,59.637-145.176,127.923
		c-12.428,19.075-46.207,25.858-53.627-5.19C1273.345-302.168,1258.732-381.334,1262.966-397.176L1262.966-397.176z"/>
	<path d="M1259.506,29.703c-6.646-11.882-4.552-25.585,1.73-31.138c7.375-7.42,30.228-1.229,32.868-8.604
		c3.688-16.024-7.921-21.806-5.19-44.932c-0.046-7.511,15.023-65.145,19.029-70.881c3.005-3.687,22.261-10.425,27.633-12.109
		c3.496-4.424,5.332-9.933,5.19-15.569c-24.902-8.194-31.685,15.205-34.553,13.839c-4.325-0.41,1.138-25.129,3.46-27.633
		c3.961-2.868,33.46-9.423,36.283-13.839c4.006-6.282,17.618-58.863,0-60.501c1.867,1.002-0.364-2.777,1.73-1.73
		c34.598,7.557,58.453-161.61,145.176-160.745c86.769,0.501,82.262,125.692,77.755,129.653
		c-10.425,9.423-24.765,6.191-25.903,13.839c-3.824,76.936-72.247,158.833-93.324,152.141c-12.018-4.78-1.411-43.703,5.19-44.932
		c-6.146-1.912-0.774-41.973,5.144-43.202c-4.552-3.232-0.046-40.152,6.92-39.743c-3.733-3.687-3.414-28.953-10.379-41.518
		c-4.507-9.651-25.903-14.841-27.633,8.65c13.475-6.282,14.386,36.055,8.65,43.202c-5.053,7.238-39.742,23.445-50.122,32.868
		c0.501,17.618-16.616,86.905-29.409,107.164c-12.383,19.393-24.993,31.093-32.823,48.392c-6.601,18.665-2.003,49.394-19.029,63.916
		C1301.388,31.706,1262.693,34.437,1259.506,29.703L1259.506,29.703z"/>
	<path d="M1556.824-253.73c3.87-7.557,20.531-10.334,25.949-6.92c7.603,3.87,12.792,58.908,5.19,60.501
		c6.692,3.414-1.275,45.16-8.65,44.932c5.736,2.959-7.329,43.976-15.569,43.202c5.099,5.691-16.07,38.969-22.443,38.013
		c-1.275,33.369-104.432,49.758-101.974,20.759c1.002-13.93,16.434,6.601,86.405-101.974
		C1555.776-202.698,1550.587-244.079,1556.824-253.73L1556.824-253.73z M1237.063-397.176
		c-6.646-14.977-36.237-36.101-41.472-31.138c0.273-5.918-24.037-28.179-32.868-24.173c2.003-6.829-31.321-27.724-39.743-22.489
		c-1.32-7.83-49.621-14.249-58.771-6.92c-5.918-5.417-48.756,4.962-50.168,15.524c-7.557-6.692-51.26,39.469-51.806,62.231
		c0.546,9.515,41.654-27.132,67.376-18.984c42.975,13.02,97.558,58.635,145.176,127.923c12.701,18.028,45.797,24.856,53.582-5.19
		C1228.413-300.438,1244.802-380.606,1237.063-397.176z"/>
	<path d="M1240.522,29.703c7.284-12.064,6.1-25.311,0-31.138c-7.557-7.147-29.955-0.501-31.138-6.874
		c-5.144-17.026,6.464-22.808,5.19-44.932c-1.366-8.559-16.434-66.146-20.759-70.881c-2.777-4.689-21.988-11.427-27.633-13.839
		c-3.496-4.424-5.332-9.933-5.19-15.569c25.22-7.466,31.958,15.933,36.328,15.569c2.822-1.411-2.595-26.131-5.19-29.409
		c-3.733-2.14-32.777-9.105-36.328-13.748c-4.234-5.144-17.299-58.134,0-58.772c-1.593,0,0.683-3.779,0-3.46
		c-36.01,8.285-59.91-160.928-146.952-160.791c-86.45,1.229-81.943,126.375-76.025,131.382c9.014,8.422,23.354,5.19,24.219,13.839
		c4.097,75.934,72.52,157.832,93.324,150.411c12.246-4.097,1.684-42.975-3.46-43.202c4.735-2.914-0.728-42.975-6.92-43.202
		c4.871-4.279,0.364-41.154-5.19-41.472c2.276-2.914,1.958-28.225,8.65-41.518c4.734-8.923,26.222-14.158,27.633,8.65
		c-13.202-5.554-14.112,36.783-8.65,43.202c5.326,7.967,40.016,24.128,50.122,32.868c-0.182,18.301,16.889,87.634,29.409,107.164
		c12.701,20.076,25.311,31.776,32.823,50.168c6.965,17.845,10.334,53.764,19.029,62.186
		C1202.009,33.345,1238.155,35.257,1240.522,29.703L1240.522,29.703z M1250.856,64.301c-26.859,0.774-50.577-18.483-44.932-24.219
		c8.467-9.332,24.629,5.19,43.202-3.414c19.666,8.194,35.372-5.873,48.392,3.414C1303.938,45.181,1278.034,64.164,1250.856,64.301
		L1250.856,64.301z"/>
	<path d="M944.935-253.73c-3.596-6.829-20.213-7.785-25.949-5.19c-7.284,4.643-12.519,57.907-5.144,60.501
		c-6.464,2.413,1.548,44.158,10.38,44.932c-7.147,1.958,5.873,42.929,13.839,41.472c-4.78,6.419,16.343,39.697,22.443,38.013
		c1.548,34.098,104.705,50.441,101.974,20.759c-0.728-13.156-16.115,7.284-86.405-100.244
		C946.255-201.924,951.445-243.396,944.935-253.73L944.935-253.73z"/>
</g>
<g>
	<path d="M87.534,361.786h312.382c180.262-2.191,92.614,231.536-40.627,230.186H25.613l36.755-131.535h61.896L98.155,558.12H338.02
		C418,537.921,481.45,395.866,368,394.669H79.79L87.534,361.786L87.534,361.786z"/>
	<path d="M1662.969,361.786h312.382c33.368,2.649,40.296,21.192,36.755,32.884h-316.254
		c-107.235,9.45-147.531,155.147-36.755,163.45h175.065c64.748-6.291,69.614-65.767,69.614-65.767h-174.072l7.743-32.884h257.262
		c-10.876,76.44-81.713,132.859-142.182,132.503h-239.865C1455.631,581.222,1521.093,375.515,1662.969,361.786L1662.969,361.786z"/>
	<path d="M2076.905,394.669c1.605-16.939,14.392-33.062,35.787-32.884h361.695l-9.654,32.884H2076.905z"/>
	<path d="M2059.483,457.558h388.771l-9.654,35.762h-325.907l-12.583,45.441c-4.33,17.524,1.758,19.307,12.583,19.358h309.478
		l-9.679,33.852h-357.823c-26.821-1.656-23.816-25.854-20.301-36.755C2034.368,554.07,2059.483,457.558,2059.483,457.558
		L2059.483,457.558z"/>
	<path d="M1078.832,361.786h312.382c180.262-2.191,92.614,231.536-40.627,230.186h-333.676l36.755-131.535h62.864l-27.076,97.683
		h239.865c79.98-20.199,143.43-162.253,29.98-163.45h-288.209L1078.832,361.786L1078.832,361.786z M903.767,361.786H697.779
		c-181.586,8.915-216.329,228.53-66.735,230.186h237.929C996.228,581.222,1080.36,368.663,903.767,361.786L903.767,361.786z
		 M835.121,558.12H672.639c-110.291-1.758-84.54-156.446,49.338-163.45h138.285C991.439,400.197,929.213,549.638,835.121,558.12z"/>
</g>
</svg>
