<?xml version="1.0" encoding="utf-8"?>
<!-- Generator: Adobe Illustrator 17.0.0, SVG Export Plug-In . SVG Version: 6.00 Build 0)  -->
<!DOCTYPE svg PUBLIC "-//W3C//DTD SVG 1.1//EN" "http://www.w3.org/Graphics/SVG/1.1/DTD/svg11.dtd">
<svg version="1.1" id="Layer_1" xmlns="http://www.w3.org/2000/svg" xmlns:xlink="http://www.w3.org/1999/xlink" x="0px" y="0px"
	 width="1008px" height="612px" viewBox="0 0 1008 612" enable-background="new 0 0 1008 612" xml:space="preserve">
<path d="M859.156,227.268l128.73-9.195c-28.734-38.504-89.651-53.446-104.018-56.319l-89.651,22.987
	C826.399,194.511,849.387,209.453,859.156,227.268"/>
<path d="M959.152,367.491c47.124-48.848,54.595-97.697,40.803-127.58l-135.626,4.023v6.896
	c-1.149,26.436-25.286,52.871-65.514,75.859L959.152,367.491z"/>
<path d="M671.808,240.486l147.694-10.344c-6.322-14.367-24.137-28.16-51.722-37.929l-105.742,27.01
	C672.958,224.395,675.831,231.865,671.808,240.486"/>
<path d="M710.312,172.673c19.539,0.575,37.929,2.299,54.021,5.172l74.135-22.413c-49.998-5.747-100.57-5.172-134.477-3.448
	l-114.937,59.767c22.987-0.575,41.377,0.575,55.17,3.448l104.018-31.608c-20.114-5.172-41.377-8.046-58.618-9.195h1.149
	C695.371,172.673,703.991,172.098,710.312,172.673"/>
<path d="M568.365,211.751l95.398-57.469c-10.919,0.575-21.263,1.149-32.757,2.299c-20.689,1.724-37.355,3.448-58.043,5.747
	L532.734,215.2C545.377,213.475,557.446,212.326,568.365,211.751"/>
<path d="M519.517,216.924l25.286-50.572c-21.838,3.448-35.631,5.747-56.319,9.77l12.068,43.676
	C506.873,218.648,513.77,218.073,519.517,216.924"/>
<path d="M490.208,221.521l-24.137-40.803c-13.218,2.873-27.585,6.322-40.228,10.344c19.539,12.643,29.884,19.539,47.699,33.332
	C479.289,223.82,485.035,222.67,490.208,221.521"/>
<g>
	<path d="M758.011,299.104c-12.643,0-22.413,10.344-22.413,22.413c0,12.643,10.344,22.413,22.413,22.413
		c12.643,0,22.413-10.344,22.413-22.413C780.424,309.448,770.654,299.104,758.011,299.104"/>
	<polygon points="458.025,270.369 495.38,319.218 510.896,319.218 510.896,237.038 495.954,237.038 495.954,286.461 458.6,237.038 
		443.083,237.038 443.083,319.218 458.025,319.218 	"/>
	<polygon points="423.544,395.651 385.615,346.228 370.673,346.228 370.673,428.408 385.615,428.408 385.615,378.985 
		422.395,428.408 438.486,428.408 438.486,346.228 423.544,346.228 	"/>
	<polygon points="321.824,237.038 301.136,237.038 301.136,319.218 347.685,319.218 351.133,304.851 321.824,306.575 	"/>
	<polygon points="291.366,304.851 258.609,306 258.609,237.038 237.92,237.038 237.92,319.218 287.918,319.218 	"/>
	<path d="M171.831,256.002c3.448-5.172,8.046-8.046,14.942-8.046h1.149c5.747,0,10.344,2.299,14.367,6.896
		c4.023,5.172,6.322,12.643,6.322,22.413c0,9.195-1.724,17.815-5.172,22.987c-3.448,5.172-8.62,8.046-14.942,8.046h-1.149
		c-5.747,0-10.344-2.299-13.792-6.896c-4.023-5.172-5.747-13.218-6.322-22.413C166.084,269.795,167.808,261.749,171.831,256.002
		 M186.773,321.517c13.218,0,23.562-4.023,31.033-11.494s11.494-18.39,11.494-31.608s-4.023-23.562-11.494-31.033
		c-7.471-8.046-17.815-11.494-30.458-11.494c-12.643,0-22.987,4.023-30.458,11.494s-11.494,18.39-11.494,31.608
		c0,12.643,4.023,23.562,11.494,31.033C163.786,317.494,174.13,321.517,186.773,321.517"/>
	<polygon points="111.489,337.608 133.327,324.965 133.327,208.303 111.489,208.303 111.489,265.772 58.043,265.772 58.043,208.303 
		36.205,208.303 36.205,265.772 8.046,265.772 2.299,280.139 36.205,280.139 36.205,347.952 57.469,347.952 57.469,346.228 
		57.469,280.139 110.915,280.139 110.915,337.608 	"/>
	<path d="M476.415,365.193c3.448-5.172,8.046-8.046,14.942-8.046h1.149c5.747,0,10.344,2.299,14.367,6.896
		c3.448,4.598,5.747,12.643,6.322,22.413c0,9.195-1.724,17.815-5.172,22.987c-3.448,5.172-8.62,8.046-14.942,8.046h-1.149
		c-5.747,0-10.344-2.299-13.792-6.896c-4.023-5.172-5.747-13.218-6.322-22.413C470.668,378.985,472.392,370.365,476.415,365.193
		 M491.932,344.504c-12.643,0-22.987,4.023-30.458,11.494c-7.471,8.046-11.494,18.39-11.494,31.608
		c0,12.643,4.023,23.562,11.494,31.033c7.471,8.046,17.815,12.068,29.884,12.068c13.218,0,23.562-4.023,31.033-11.494
		s11.494-18.39,11.494-31.608c0-12.643-4.023-23.562-11.494-31.033C514.344,348.527,504.575,344.504,491.932,344.504"/>
	<rect x="336.192" y="346.228" width="20.689" height="82.18"/>
	<path d="M551.124,249.106c10.919,0,13.792,0.575,14.367,0.575c2.873,1.149,5.747,2.873,8.046,5.747
		c3.448,4.023,5.747,10.919,6.322,19.539c1.149,9.77-0.575,18.39-4.023,22.987c-3.448,4.598-9.195,7.471-17.241,8.62h-12.643
		v-57.469C547.102,249.681,549.4,249.106,551.124,249.106 M561.469,237.038h-35.631v82.18h34.481
		c12.643,0,22.987-4.023,30.458-11.494c7.471-7.471,10.919-17.815,10.919-31.608c0-12.643-3.448-22.413-10.344-29.309
		C584.456,240.486,574.112,237.038,561.469,237.038"/>
	<path d="M167.234,445.649c-20.114,0-44.826-8.046-44.826-46.55c0-31.033,17.241-51.147,44.826-51.147
		c13.218,0,19.539,3.448,23.562,6.896l2.873,2.299v-18.39l-1.149-0.575c-9.77-2.873-18.39-4.023-27.585-4.023
		c-33.332,0-67.238,22.413-67.238,64.365c0,57.469,47.124,63.79,67.238,63.79h1.149c6.322,0,15.517-0.575,24.137-2.873l0.575-0.575
		l11.494-25.861l-5.172,3.448C190.221,440.477,179.877,445.649,167.234,445.649"/>
	<path d="M304.584,378.985l-5.747-3.448c-3.448-1.724-6.896-4.023-8.62-5.172c-1.724-1.724-2.299-3.448-2.299-5.172
		c0-2.299,1.149-5.172,3.448-6.322c2.299-1.149,4.598-2.299,8.046-2.299c6.322,0,12.068,1.149,18.965,4.023l2.299,1.149
		l1.149-13.793l-1.724-0.575c-4.597-1.149-11.494-2.873-23.562-2.873c-8.62,0-15.517,2.299-20.689,6.322
		c-5.172,4.023-8.046,9.77-8.046,17.241c0,5.172,1.724,9.77,4.597,13.792c3.448,4.023,8.62,8.046,16.091,12.068l5.172,2.873
		c4.023,2.299,6.896,4.023,8.62,5.747c1.149,1.149,2.873,3.448,2.873,5.747c0,3.448-1.149,5.747-3.448,7.471
		c-2.299,1.724-5.172,2.299-9.195,2.299c-5.747,0-12.068-1.149-20.689-4.023l-2.299-0.575v14.942l1.724,0.575
		c8.62,1.724,16.091,2.299,21.838,2.299c10.344,0,18.39-2.299,24.137-6.322c5.747-4.597,9.195-10.919,9.195-18.39
		c0-5.747-1.724-10.344-4.597-14.367C317.802,387.605,312.629,383.583,304.584,378.985"/>
	<path d="M401.706,287.035h-20.689l10.344-25.861L401.706,287.035L401.706,287.035z M386.189,237.038l-32.757,82.18h14.367
		l8.046-20.689h29.884l8.046,20.689h21.263l-32.757-82.18H386.189L386.189,237.038z"/>
</g>
<path d="M231.599,396.226H210.91l10.344-25.861L231.599,396.226z M216.082,346.228l-32.757,82.18h14.942l8.046-20.689h29.884
	l8.046,20.689h21.263l-32.757-82.18H216.082z"/>
<path d="M664.338,249.681c-9.195,9.195-25.286,19.539-48.848,29.884l110.34,28.16c5.172-12.068,17.241-20.689,31.608-20.689
	c8.046,0,15.517,2.873,21.263,7.471c25.861-17.815,39.653-34.481,42.527-49.423L664.338,249.681L664.338,249.681z"/>
<path d="M828.123,207.729c-14.367-9.195-32.757-16.666-56.319-21.838c-1.149,0-1.724-0.575-2.873-0.575
	c38.504,13.792,60.917,31.033,63.216,50.572c2.873,21.838-11.494,41.377-47.124,65.514c4.023,5.172,6.322,11.494,6.322,18.965
	c39.079-25.286,60.342-52.871,59.767-76.433C851.685,230.141,842.49,217.498,828.123,207.729"/>
</svg>
