<?xml version="1.0" encoding="utf-8"?>
<!-- Generator: Adobe Illustrator 17.0.0, SVG Export Plug-In . SVG Version: 6.00 Build 0)  -->
<!DOCTYPE svg PUBLIC "-//W3C//DTD SVG 1.1//EN" "http://www.w3.org/Graphics/SVG/1.1/DTD/svg11.dtd">
<svg version="1.1" id="Layer_1" xmlns="http://www.w3.org/2000/svg" xmlns:xlink="http://www.w3.org/1999/xlink" x="0px" y="0px"
	 width="2500px" height="1386.4px" viewBox="0 -995.4 2500 1386.4" enable-background="new 0 -995.4 2500 1386.4"
	 xml:space="preserve">
<path d="M399.694,78.227c121.679,0,168.413,20.369,168.413,82.849c0,57.784-55.169,74.821-168.413,74.821H208.098v98.746H52.593
	V174.808h293.69c29.954,0,56.876-0.899,56.576-21.626c-0.225-15.406-20.535-19.703-56.576-19.703H10.706l25.998-55.252
	L399.694,78.227z M776.607,334.643V233.466c0,0,27.089-0.308,54.12-0.1c64.62,0.466,82.682,11.867,109.921,30.012
	c38.955,25.898,61.323,71.274,61.323,71.274h162.617c0,0-23.283-45.318-60.074-77.078c-17.379-14.989-34.2-24.491-53.712-30.062
	c10.593-1.724,78.252-7.853,78.252-68.934c0-59.624-48.907-78.993-148.077-78.993H628.53l-26.614,53.895h328.54
	c28.172,0,43.244,7.645,44.118,19.628c1.332,18.254-16.655,23.042-43.036,23.042H628.08v158.503h148.527L776.607,334.643z
	 M1205.941,334.652h145.213V79.584h-145.213V334.652z M1421.728,79.576c0,0,62.663-0.133,144.23,0
	c0,36.307,0.058,96.956,0.058,137.685c0,38.056,17.621,59.766,80.7,59.766c15.489,0,29.071,0.1,43.619,0.1
	c48.299,0,76.953-17.537,76.953-58.441V79.618h146.112c0,0,0.316,55.46,0,103.176c-0.233,33.493,0,58.283,0,72.348
	c0,46.833-49.406,79.543-156.18,79.543H1577.85c-119.498,0-156.121-34.242-156.121-80.701c0-12.433,0.075-40.737,0-77.145
	c-0.108-42.303,0-97.222,0-97.222 M1984.858,275.694c0,0,286.819,0.1,323.035,0.1c36.415,0,42.869-10.409,42.011-23.566
	c-0.524-8.053-7.062-16.055-42.036-16.055h-327.757v-61.065c0-71.132,66.644-94.616,126.093-95.523
	c83.274-1.291,392.727,0,392.727,0l-23.325,55.252h-311.468c-26.373,0-38.148,9.551-38.572,20.094
	c-0.416,10.318,9.91,19.877,37.84,19.877h215.537c94.799,0,131.764,40.138,130.057,78.452
	c-2.406,54.053-43.469,81.392-130.057,81.392h-424.979L1984.858,275.694z"/>
<path d="M399.694,78.227c121.679,0,168.413,20.369,168.413,82.849c0,57.784-55.169,74.821-168.413,74.821H208.098v98.746H52.593
	V174.808h293.69c29.954,0,56.876-0.899,56.576-21.626c-0.225-15.406-20.535-19.703-56.576-19.703H10.706l25.998-55.252
	L399.694,78.227z M776.607,334.643V233.466c0,0,27.089-0.308,54.12-0.1c64.62,0.466,82.682,11.867,109.921,30.012
	c38.955,25.898,61.323,71.274,61.323,71.274h162.617c0,0-23.283-45.318-60.074-77.078c-17.379-14.989-34.2-24.491-53.712-30.062
	c10.593-1.724,78.252-7.853,78.252-68.934c0-59.624-48.907-78.993-148.077-78.993H628.53l-26.614,53.895h328.54
	c28.172,0,43.244,7.645,44.118,19.628c1.332,18.254-16.655,23.042-43.036,23.042H628.08v158.503h148.527L776.607,334.643z
	 M1205.941,334.652h145.213V79.584h-145.213V334.652z M1421.728,79.576c0,0,62.663-0.133,144.23,0
	c0,36.307,0.058,96.956,0.058,137.685c0,38.056,17.621,59.766,80.7,59.766c15.489,0,29.071,0.1,43.619,0.1
	c48.299,0,76.953-17.537,76.953-58.441V79.618h146.112c0,0,0.316,55.46,0,103.176c-0.233,33.493,0,58.283,0,72.348
	c0,46.833-49.406,79.543-156.18,79.543H1577.85c-119.498,0-156.121-34.242-156.121-80.701c0-12.433,0.075-40.737,0-77.145
	c-0.108-42.303,0-97.222,0-97.222 M1984.858,275.694c0,0,286.819,0.1,323.035,0.1c36.415,0,42.869-10.409,42.011-23.566
	c-0.524-8.053-7.062-16.055-42.036-16.055h-327.757v-61.065c0-71.132,66.644-94.616,126.093-95.523
	c83.274-1.291,392.727,0,392.727,0l-23.325,55.252h-311.468c-26.373,0-38.148,9.551-38.572,20.094
	c-0.416,10.318,9.91,19.877,37.84,19.877h215.537c94.799,0,131.764,40.138,130.057,78.452
	c-2.406,54.053-43.469,81.392-130.057,81.392h-424.979L1984.858,275.694z"/>
<path d="M399.694,78.227c121.679,0,168.413,20.369,168.413,82.849c0,57.784-55.169,74.821-168.413,74.821H208.098v98.746H52.593
	V174.808h293.69c29.954,0,56.876-0.899,56.576-21.626c-0.225-15.406-20.535-19.703-56.576-19.703H10.706l25.998-55.252
	L399.694,78.227z M776.607,334.643V233.466c0,0,27.089-0.308,54.12-0.1c64.62,0.466,82.682,11.867,109.921,30.012
	c38.955,25.898,61.323,71.274,61.323,71.274h162.617c0,0-23.283-45.318-60.074-77.078c-17.379-14.989-34.2-24.491-53.712-30.062
	c10.593-1.724,78.252-7.853,78.252-68.934c0-59.624-48.907-78.993-148.077-78.993H628.53l-26.614,53.895h328.54
	c28.172,0,43.244,7.645,44.118,19.628c1.332,18.254-16.655,23.042-43.036,23.042H628.08v158.503h148.527L776.607,334.643z
	 M1205.941,334.652h145.213V79.584h-145.213V334.652z M1421.728,79.576c0,0,62.663-0.133,144.23,0
	c0,36.307,0.058,96.956,0.058,137.685c0,38.056,17.621,59.766,80.7,59.766c15.489,0,29.071,0.1,43.619,0.1
	c48.299,0,76.953-17.537,76.953-58.441V79.618h146.112c0,0,0.316,55.46,0,103.176c-0.233,33.493,0,58.283,0,72.348
	c0,46.833-49.406,79.543-156.18,79.543H1577.85c-119.498,0-156.121-34.242-156.121-80.701c0-12.433,0.075-40.737,0-77.145
	c-0.108-42.303,0-97.222,0-97.222 M1984.858,275.694c0,0,286.819,0.1,323.035,0.1c36.415,0,42.869-10.409,42.011-23.566
	c-0.524-8.053-7.062-16.055-42.036-16.055h-327.757v-61.065c0-71.132,66.644-94.616,126.093-95.523
	c83.274-1.291,392.727,0,392.727,0l-23.325,55.252h-311.468c-26.373,0-38.148,9.551-38.572,20.094
	c-0.416,10.318,9.91,19.877,37.84,19.877h215.537c94.799,0,131.764,40.138,130.057,78.452
	c-2.406,54.053-43.469,81.392-130.057,81.392h-424.979L1984.858,275.694z"/>
<g id="Layer_3">
	<path d="M1198.541-127.976c-69.746-43.694-121.151-194.474-121.151-373.661c0-6.574,0.028-13.069,0.193-19.529l0.057,0.085
		C883.61-551.57,743.43-635.101,739.819-733.919l-0.557,1.166c-47.47,59.009-74.574,127.225-74.574,199.911
		c0,213.895,234.784,389.142,532.597,404.65L1198.541-127.976z M574.974-517.26c0-239.305,297.842-433.364,665.236-433.364
		c367.423,0,665.265,194.059,665.265,433.364c0,239.333-297.842,433.392-665.265,433.392
		C872.816-83.867,574.974-277.92,574.974-517.26L574.974-517.26z M1240.238-888.089c70.94,0,131.28,107.61,153.635,257.754
		l0.057-0.25c138.019-21.474,234.619-71.02,234.619-128.698c0-77.372-173.864-140.043-388.311-140.043
		c-214.419,0-388.283,62.671-388.283,140.043c0,57.678,96.6,107.195,234.591,128.698l0.085,0.25
		C1108.987-780.479,1169.327-888.089,1240.238-888.089L1240.238-888.089z M1283.181-128.226
		c297.813-15.509,532.626-190.755,532.626-404.65c0-72.686-27.133-140.902-74.574-199.911l-0.58-1.166
		c-3.577,98.818-143.763,182.349-337.822,212.838l0.085-0.085c0.136,6.466,0.193,12.955,0.193,19.529
		c0,179.187-51.434,329.968-121.151,373.661L1283.181-128.226z M1240.238-619.211c30.79,0.034,61.568-1.28,92.244-3.941
		l-0.028,0.028c-14.701-96.213-50.438-164.151-92.187-164.151c-41.754,0-77.458,67.943-92.187,164.151l-0.028-0.028
		C1178.705-620.502,1209.466-619.188,1240.238-619.211L1240.238-619.211z M1240.238-262.833c53.401,0,96.987-111.136,99.29-250.486
		l0.279,0.085c-66.231,6.102-132.878,6.102-199.109,0l0.279-0.085C1143.28-373.969,1186.831-262.833,1240.238-262.833z"/>
</g>
</svg>
