<?xml version="1.0" encoding="utf-8"?>
<!-- Generator: Adobe Illustrator 17.0.0, SVG Export Plug-In . SVG Version: 6.00 Build 0)  -->
<!DOCTYPE svg PUBLIC "-//W3C//DTD SVG 1.1//EN" "http://www.w3.org/Graphics/SVG/1.1/DTD/svg11.dtd">
<svg version="1.1" id="Layer_1" xmlns="http://www.w3.org/2000/svg" xmlns:xlink="http://www.w3.org/1999/xlink" x="0px" y="0px"
	 width="2500px" height="611.878px" viewBox="0 952.921 2500 611.878" enable-background="new 0 952.921 2500 611.878"
	 xml:space="preserve">
<g>
	<path d="M274.142,976.234v310.107c0,39.545-1.971,60.037-21.621,92.28c-6.174,9.831-41.555,48.792-96.132,48.792
		c-55.575,0-99.102-28.222-112.15-71.632c-4.98-17.198-7.484-37.69-7.484-64.135c0-5.292,0-8.586,0.623-17.198h32.93v13.904
		c0,37.664,4.76,57.508,14.721,73.383c29.013,44.006,109.283,40.297,136.546,1.673c18.067-25.589,18.08-38.702,18.08-77.053v-310.12
		h34.487V976.234z M688.279,1240.026c-7.989,103.019-81.217,184.469-185.377,184.469c-120.45,0-195.532-88.558-195.532-227.425
		c0-137.531,78.337-232.665,199.436-232.665c90.698,0,157.245,46.899,171.123,131.552h-36.951
		c-13.67-65.458-64.512-100.944-136.131-100.944c-95.704,0-159.515,76.898-159.515,202.069
		c0,125.846,64.538,195.779,158.867,195.779c81.385,0,137.376-61.581,147.79-152.823h36.289L688.279,1240.026L688.279,1240.026z
		 M722.066,976.234h165.987c47.508,0,75.004,3.139,98.441,19.675c31.037,21.815,43.488,59.012,43.488,103.979
		c0,75.575-63.928,123.965-137.492,123.965H758.848v192.757h-36.782L722.066,976.234L722.066,976.234z M758.848,1008.866v184.249
		h122.876c36.73,0,54.499-5.214,71.593-16.459c24.785-15.927,41.737-40.336,41.737-77.832c0-33.06-9.377-62.605-32.813-77.819
		c-17.73-11.232-41.244-12.153-83.045-12.153H758.848V1008.866L758.848,1008.866z M1286.925,1305.342
		c-14.332,74.602-68.999,118.803-130.826,118.803c-88.337,0-138.193-76.405-138.193-162.278
		c0-99.984,60.206-173.159,139.892-173.159c87.637,0,135.988,64.615,135.988,174.729l-243.235,0.156
		c1.608,70.4,42.204,130.969,105.198,130.969c48.961,0,86.846-35.667,98.92-89.219L1286.925,1305.342L1286.925,1305.342z
		 M1258.729,1234.657c-1.401-25.927-7.769-48.157-18.08-66.068c-37.275-64.706-123.291-69.155-164.184-1.115
		c-10.739,17.885-21.88,38.896-25.304,67.183H1258.729L1258.729,1234.657z M1360.736,1101.042v57.689
		c9.779-19.182,14.669-26.458,23.838-36.367c20.778-21.154,47.677-33.644,80.049-33.644c38.507,0,72.138,15.291,88.026,41.737
		c12.23,20.492,14.033,40.18,14.033,82.488v203.651h-34.811v-191.745c0-33.06-1.829-48.196-7.341-62.735
		c-10.285-25.758-33.566-38.429-67.235-38.429c-36.679,0-67.235,19.182-81.294,49.596c-10.389,22.477-13.424,41.659-13.424,83.979
		v159.334h-35.459v-315.554L1360.736,1101.042L1360.736,1101.042z M2411.922,1098.565l-115.314,329.938
		c-16.666,47.625-24.578,63.202-33.216,77.079c-8.638,13.398-29.61,27.82-53.072,29.818c-13.929,1.193-32.1-3.424-32.1-3.424
		v-33.721c14.189,2.633,18.871,3.113,26.899,3.113c20.311,0,38.806-18.547,47.171-43.773l16.186-47.625l-120.373-311.417h39.519
		c0,0,86.807,228.761,99.154,269.097c9.273-31.737,88.104-269.097,88.104-269.097h37.042L2411.922,1098.565L2411.922,1098.565z
		 M1642.621,1100.316v57.689c9.779-19.169,14.669-26.445,23.838-36.367c20.778-21.154,47.651-33.644,80.049-33.644
		c38.507,0,72.125,15.291,88.026,41.737c12.204,20.505,14.033,40.18,14.033,82.501v203.651h-34.837v-191.758
		c0-33.06-1.829-48.196-7.315-62.735c-10.285-25.745-33.592-38.416-67.261-38.416c-36.653,0-67.209,19.182-81.269,49.583
		c-10.389,22.477-13.45,41.659-13.45,83.966v159.36h-35.433v-315.568L1642.621,1100.316L1642.621,1100.316z M2147.054,1305.005
		c-14.332,74.602-68.999,118.829-130.813,118.829c-88.337,0-138.206-76.405-138.206-162.278
		c0-99.997,60.219-173.159,139.905-173.159c87.624,0,135.975,64.602,135.975,174.729l-243.235,0.156
		c1.595,70.4,42.204,130.969,105.198,130.969c48.935,0,86.833-35.667,98.921-89.245L2147.054,1305.005L2147.054,1305.005z
		 M2118.884,1234.332c-1.414-25.914-7.782-48.157-18.093-66.068c-37.288-64.706-123.316-69.155-164.197-1.102
		c-10.739,17.872-21.867,38.896-25.304,67.17H2118.884L2118.884,1234.332z M2442.038,1140.522c-11.556,0-21.309-8.897-21.309-21.076
		c0-12.062,9.753-20.959,21.309-20.959c11.426,0,21.206,8.897,21.206,20.959C2463.244,1131.612,2453.464,1140.522,2442.038,1140.522
		z M2424.944,1119.446c0,10.129,7.497,17.574,17.094,17.574c9.468,0,16.978-7.445,16.978-17.574c0-9.961-7.497-17.457-16.978-17.457
		C2432.44,1101.976,2424.944,1109.485,2424.944,1119.446z M2437.603,1121.106v10.505h-3.67v-24.241h9.221
		c5.694,0,8.534,2.114,8.534,6.887c0,4.345-2.711,6.225-6.277,6.679l6.887,10.674h-4.098l-6.381-10.505L2437.603,1121.106
		L2437.603,1121.106z M2437.603,1117.994h4.384c3.087,0,5.875-0.22,5.875-3.943c0-2.996-2.711-3.554-5.266-3.554h-4.993V1117.994z"
		/>
</g>
</svg>
