<?xml version="1.0" encoding="utf-8"?>
<!-- Generator: Adobe Illustrator 17.0.0, SVG Export Plug-In . SVG Version: 6.00 Build 0)  -->
<!DOCTYPE svg PUBLIC "-//W3C//DTD SVG 1.1//EN" "http://www.w3.org/Graphics/SVG/1.1/DTD/svg11.dtd">
<svg version="1.1" id="Layer_1" xmlns="http://www.w3.org/2000/svg" xmlns:xlink="http://www.w3.org/1999/xlink" x="0px" y="0px"
	 width="2500px" height="1048px" viewBox="0 0 2500 1048" enable-background="new 0 0 2500 1048" xml:space="preserve">
<path fill="#192E7B" d="M711.712,340.858C711.712,178.493,453.071,0,294.918,0c-163.94,0-206.12,169.974-206.12,306.457
	c0,63.47,11.499,117.794,33.851,162.422C47.775,509.409,0.016,568.343,0.016,629.574c0,106.807,182.952,294.788,480.624,294.788
	c10.436,0,20.265-0.342,29.6-0.987C567.639,1016.199,656.705,1048,695.698,1048c106.618,0,131.607-137.432,157.28-215.095
	c21.745-65.652,45.918-131.531,73.033-195.172c15.502-36.412,27.058-73.621,27.058-113.581
	C953.068,431.063,874.532,340.858,711.712,340.858L711.712,340.858z"/>
<path fill="#FFFFFF" d="M487.794,436.622v-60.756c-14.572-4.155-31.953-6.224-49.429-6.224c-70.908,0-105.802,47.911-105.802,96.372
	c0,46.127,16.982,90.034,80.945,189.138c25.608-3.443,51.379-5.545,77.207-6.299c-55.728-103.373-69.314-139.652-69.314-166.141
	c0-30.777,17.722-46.45,53.774-46.45C480.033,436.243,483.961,436.338,487.794,436.622L487.794,436.622z M294.52,526.277
	c-5.199-13.851-9.051-36.165-10.531-52.351c-56.468-1.878-98.933,30.302-98.933,76.031c0,36.716,18.728,69.276,96.618,135.326
	c22.605-7.44,45.56-13.772,68.783-18.974c-76.221-71.022-88.023-89.92-88.023-111.153C262.453,539.54,273.287,529.37,294.52,526.277
	L294.52,526.277z M539.936,436.622v-60.756c14.572-4.155,31.953-6.224,49.429-6.224c70.908,0,105.802,47.911,105.802,96.372
	c0,46.127-16.982,90.034-80.945,189.138c-25.602-3.442-51.367-5.545-77.188-6.299c55.728-103.373,69.314-139.652,69.314-166.141
	c0-30.777-17.722-46.45-53.793-46.45C548.345,436.215,544.136,436.335,539.936,436.622L539.936,436.622z M733.21,526.277
	c5.199-13.851,9.051-36.165,10.531-52.351c56.468-1.878,98.933,30.302,98.933,76.031c0,36.716-18.728,69.276-96.637,135.326
	c-22.604-7.442-45.559-13.775-68.783-18.974c76.24-71.022,88.023-89.92,88.023-111.153
	C765.296,539.54,754.443,529.37,733.21,526.277L733.21,526.277z M513.865,778.126c57.094,0,115.27,7.476,175.837,25.502
	l20.682-67.948c-63.768-19-129.962-28.62-196.5-28.557c-62.35,0-128.533,8.292-196.519,28.557l20.682,67.948
	C395.093,786.585,454.328,777.993,513.865,778.126L513.865,778.126z M513.846,336.228l-62.901-62.919l62.919-62.919l62.919,62.957
	L513.846,336.228z"/>
<g>
	<path fill="#192E7B" d="M2300.789,389.831c-72.71,0-133.505,13.263-188.796,35.198v366.246h122.936V497.189
		c17.646-7.874,39.922-12.258,62.844-12.258c66.524,0,79.238,40.454,79.238,115.384l0.057,190.94h122.936V582.157
		C2499.984,465.103,2460.972,389.831,2300.789,389.831L2300.789,389.831z M1121.22,253.424h122.537v537.889H1121.22V253.424z
		 M1384.586,791.294h145.288l-152.251-216.025l139.652-171.245h-139.539l-133.713,175.609L1384.586,791.294z M1791.02,483.622
		c53.679,0,89.18,33.414,89.18,110.583c0,74.741-28.063,115.555-94.208,115.555c-19.012,0-42.977-3.871-55.178-8.595V495.292
		C1748.157,487.303,1769.256,483.622,1791.02,483.622L1791.02,483.622z M1608.22,425.048v516.847h122.594V794.311
		c26.185,4.763,46.677,5.92,69.693,5.92c135.155,0,206.177-77.397,206.177-206.917c0-130.545-69.864-203.464-214.734-203.464
		C1727.095,389.831,1659.28,404.024,1608.22,425.048L1608.22,425.048z"/>
</g>
</svg>
