<?xml version="1.0" encoding="utf-8"?>
<!-- Generator: Adobe Illustrator 17.0.0, SVG Export Plug-In . SVG Version: 6.00 Build 0)  -->
<!DOCTYPE svg PUBLIC "-//W3C//DTD SVG 1.1//EN" "http://www.w3.org/Graphics/SVG/1.1/DTD/svg11.dtd">
<svg version="1.1"
	 id="svg30" sodipodi:docname="landcruiser.svg" inkscape:version="1.0 (4035a4fb49, 2020-05-01)" xmlns:dc="http://purl.org/dc/elements/1.1/" xmlns:rdf="http://www.w3.org/1999/02/22-rdf-syntax-ns#" xmlns:cc="http://creativecommons.org/ns#" xmlns:inkscape="http://www.inkscape.org/namespaces/inkscape" xmlns:sodipodi="http://sodipodi.sourceforge.net/DTD/sodipodi-0.dtd" xmlns:svg="http://www.w3.org/2000/svg"
	 xmlns="http://www.w3.org/2000/svg" xmlns:xlink="http://www.w3.org/1999/xlink" x="0px" y="0px" width="720px" height="373px"
	 viewBox="0 -167.5 720 373" enable-background="new 0 -167.5 720 373" xml:space="preserve">
<g id="g38" inkscape:groupmode="layer" inkscape:label="Image">
	
		<image overflow="visible" enable-background="new    " width="5484" height="876" id="image40" xlink:href="DB1CC39FCF6DA6AC.png"  transform="matrix(0.1301 0 0 0.1301 3.2956 88.2653)">
	</image>
	<g id="g42">
		<path id="path50" d="M441.776,195.472c0.127-0.033,0.303-0.031,0.391,0.005c0.088,0.036-0.016,0.063-0.231,0.06
			S441.65,195.505,441.776,195.472L441.776,195.472z M451.157,195.472c0.125-0.033,0.331-0.033,0.456,0s0.023,0.06-0.228,0.06
			S451.031,195.505,451.157,195.472z M438.85,195.343c0.094-0.038,0.206-0.033,0.25,0.01s-0.034,0.074-0.171,0.068
			C438.777,195.415,438.746,195.384,438.85,195.343L438.85,195.343z M454.749,195.343c0.094-0.038,0.206-0.033,0.25,0.01
			s-0.034,0.074-0.171,0.068C454.676,195.415,454.645,195.384,454.749,195.343L454.749,195.343z M243.245,193.127
			c0.094-0.038,0.206-0.033,0.25,0.01c0.043,0.043-0.034,0.074-0.171,0.068C243.172,193.2,243.141,193.169,243.245,193.127
			L243.245,193.127z M306.579,193.127c0.094-0.038,0.206-0.033,0.25,0.01c0.043,0.043-0.034,0.074-0.171,0.068
			C306.506,193.2,306.475,193.169,306.579,193.127L306.579,193.127z M110.747,190.013c0.006-0.152,0.037-0.183,0.079-0.079
			c0.038,0.094,0.033,0.206-0.01,0.25C110.773,190.227,110.742,190.15,110.747,190.013L110.747,190.013z M3.263,187.808
			c0.001-0.358,0.026-0.49,0.056-0.291s0.029,0.491-0.002,0.652C3.287,188.329,3.262,188.167,3.263,187.808z M110.617,187.797
			c0.006-0.152,0.037-0.183,0.079-0.079c0.038,0.094,0.033,0.206-0.01,0.25C110.642,188.012,110.611,187.935,110.617,187.797
			L110.617,187.797z M110.487,185.452c0.006-0.152,0.037-0.183,0.079-0.079c0.038,0.094,0.033,0.206-0.01,0.25
			C110.512,185.666,110.481,185.589,110.487,185.452L110.487,185.452z M287.49,177.448c0-0.538,0.023-0.757,0.051-0.489
			c0.028,0.269,0.028,0.709,0,0.977C287.513,178.206,287.49,177.986,287.49,177.448z M83.536,177.227
			c0.127-0.033,0.303-0.031,0.391,0.005c0.088,0.036-0.016,0.063-0.231,0.06S83.409,177.261,83.536,177.227L83.536,177.227z
			 M107.577,177.226c0.161-0.031,0.425-0.031,0.586,0c0.161,0.031,0.029,0.056-0.293,0.056
			C107.548,177.282,107.416,177.257,107.577,177.226z M222.386,174.886c0.09-0.036,0.236-0.036,0.326,0s0.016,0.066-0.163,0.066
			C222.37,174.952,222.296,174.922,222.386,174.886z M229.749,174.882c0.125-0.033,0.331-0.033,0.456,0s0.023,0.06-0.228,0.06
			S229.623,174.915,229.749,174.882z M233.471,174.753c0.094-0.038,0.206-0.033,0.25,0.01c0.043,0.043-0.034,0.074-0.171,0.068
			C233.398,174.825,233.367,174.794,233.471,174.753L233.471,174.753z M543.225,173.963c0.591-0.024,1.559-0.024,2.15,0
			s0.108,0.044-1.075,0.044C543.118,174.007,542.634,173.987,543.225,173.963z M631.971,173.583c0.09-0.036,0.236-0.036,0.326,0
			c0.09,0.036,0.016,0.066-0.163,0.066C631.955,173.648,631.881,173.619,631.971,173.583z M624.673,173.447
			c0.161-0.031,0.425-0.031,0.586,0s0.029,0.056-0.293,0.056C624.644,173.503,624.512,173.478,624.673,173.447z M611.316,173.313
			c0.269-0.028,0.709-0.028,0.977,0c0.269,0.028,0.049,0.051-0.489,0.051C611.267,173.364,611.047,173.341,611.316,173.313z
			 M600.174,173.186c0.161-0.031,0.425-0.031,0.586,0s0.029,0.056-0.293,0.056C600.144,173.242,600.013,173.217,600.174,173.186z
			 M36.426,171.101c0.162-0.031,0.397-0.03,0.521,0.003c0.125,0.033-0.008,0.058-0.295,0.057S36.264,171.132,36.426,171.101z
			 M130.295,168.25c0.006-0.152,0.037-0.183,0.079-0.079c0.038,0.094,0.033,0.206-0.01,0.25S130.289,168.387,130.295,168.25
			L130.295,168.25z M130.165,165.513c0.006-0.152,0.037-0.183,0.079-0.079c0.038,0.094,0.033,0.206-0.01,0.25
			S130.159,165.651,130.165,165.513L130.165,165.513z M130.034,162.777c0.006-0.152,0.037-0.183,0.079-0.079
			c0.038,0.094,0.033,0.206-0.01,0.25C130.059,162.991,130.029,162.914,130.034,162.777L130.034,162.777z M575.625,161.419
			c0-0.753,0.022-1.06,0.048-0.684c0.026,0.376,0.026,0.992,0,1.368C575.646,162.48,575.625,162.172,575.625,161.419z
			 M95.655,161.065c0.198-0.03,0.491-0.029,0.652,0.002c0.16,0.031-0.002,0.055-0.36,0.054
			C95.588,161.12,95.457,161.095,95.655,161.065L95.655,161.065z M107.968,161.072c0.09-0.036,0.236-0.036,0.326,0
			s0.016,0.066-0.163,0.066S107.878,161.108,107.968,161.072z M129.904,159.91c0.006-0.152,0.037-0.183,0.079-0.079
			c0.038,0.094,0.033,0.206-0.01,0.25C129.929,160.124,129.898,160.047,129.904,159.91L129.904,159.91z M109.064,158.943
			c0-0.179,0.03-0.252,0.066-0.163c0.036,0.09,0.036,0.236,0,0.326C109.093,159.196,109.064,159.122,109.064,158.943z
			 M605.975,158.459c0.198-0.03,0.491-0.029,0.652,0.002c0.16,0.031-0.002,0.055-0.36,0.054
			C605.908,158.514,605.777,158.489,605.975,158.459L605.975,158.459z M129.784,156.858c0-0.179,0.03-0.252,0.066-0.163
			c0.036,0.09,0.036,0.236,0,0.326C129.814,157.111,129.784,157.037,129.784,156.858z M108.923,156.13
			c0.006-0.152,0.037-0.183,0.079-0.079c0.038,0.094,0.033,0.206-0.01,0.25C108.948,156.345,108.917,156.268,108.923,156.13
			L108.923,156.13z M129.654,153.861c0-0.179,0.03-0.252,0.066-0.163c0.036,0.09,0.036,0.236,0,0.326
			C129.683,154.113,129.654,154.04,129.654,153.861z M108.793,153.524c0.006-0.152,0.037-0.183,0.079-0.079
			c0.038,0.094,0.033,0.206-0.01,0.25C108.818,153.738,108.787,153.662,108.793,153.524L108.793,153.524z M108.662,151.048
			c0.006-0.152,0.037-0.183,0.079-0.079c0.038,0.094,0.033,0.206-0.01,0.25C108.688,151.262,108.657,151.186,108.662,151.048
			L108.662,151.048z M129.513,150.918c0.006-0.152,0.037-0.183,0.079-0.079c0.038,0.094,0.033,0.206-0.01,0.25
			C129.538,151.132,129.507,151.055,129.513,150.918L129.513,150.918z M108.532,148.702c0.006-0.152,0.037-0.183,0.079-0.079
			c0.038,0.094,0.033,0.206-0.01,0.25C108.557,148.917,108.526,148.84,108.532,148.702L108.532,148.702z M129.383,147.921
			c0.006-0.152,0.037-0.183,0.079-0.079c0.038,0.094,0.033,0.206-0.01,0.25C129.408,148.135,129.377,148.058,129.383,147.921
			L129.383,147.921z M108.402,146.487c0.006-0.152,0.037-0.183,0.079-0.079c0.038,0.094,0.033,0.206-0.01,0.25
			S108.396,146.624,108.402,146.487L108.402,146.487z M389.647,145.822c0.125-0.033,0.331-0.033,0.456,0s0.023,0.06-0.228,0.06
			C389.624,145.881,389.522,145.854,389.647,145.822z M682.14,145.557c0.231-0.029,0.642-0.029,0.912-0.001s0.081,0.052-0.421,0.052
			C682.13,145.609,681.909,145.586,682.14,145.557L682.14,145.557z M129.252,144.923c0.006-0.152,0.037-0.183,0.079-0.079
			c0.038,0.094,0.033,0.206-0.01,0.25S129.247,145.061,129.252,144.923L129.252,144.923z M642.014,142.695
			c0.094-0.038,0.206-0.033,0.25,0.01c0.043,0.043-0.034,0.074-0.171,0.068C641.94,142.767,641.91,142.736,642.014,142.695
			L642.014,142.695z M611.508,142.56c0.231-0.029,0.642-0.029,0.912-0.001c0.27,0.028,0.081,0.052-0.421,0.052
			C611.498,142.611,611.277,142.588,611.508,142.56L611.508,142.56z M129.122,141.926c0.006-0.152,0.037-0.183,0.079-0.079
			c0.038,0.094,0.033,0.206-0.01,0.25S129.116,142.063,129.122,141.926L129.122,141.926z M128.992,138.929
			c0.006-0.152,0.037-0.183,0.079-0.079c0.038,0.094,0.033,0.206-0.01,0.25C129.017,139.143,128.986,139.066,128.992,138.929
			L128.992,138.929z M128.861,135.931c0.006-0.152,0.037-0.183,0.079-0.079c0.038,0.094,0.033,0.206-0.01,0.25
			S128.856,136.069,128.861,135.931L128.861,135.931z M128.741,133.01c0-0.179,0.03-0.252,0.066-0.163
			c0.036,0.09,0.036,0.236,0,0.326C128.771,133.263,128.741,133.189,128.741,133.01z M693.278,130.339
			c0.003-0.215,0.032-0.287,0.065-0.16s0.031,0.303-0.005,0.391C693.302,130.657,693.275,130.554,693.278,130.339z M128.601,130.067
			c0.006-0.152,0.037-0.183,0.079-0.079c0.038,0.094,0.033,0.206-0.01,0.25S128.595,130.205,128.601,130.067L128.601,130.067z
			 M240.044,129.793c0.125-0.033,0.331-0.033,0.456,0s0.023,0.06-0.228,0.06S239.918,129.825,240.044,129.793z M556.656,128.621
			c0.094-0.038,0.206-0.033,0.25,0.01c0.043,0.043-0.034,0.074-0.171,0.068C556.583,128.693,556.552,128.662,556.656,128.621
			L556.656,128.621z M404.44,128.487c0.162-0.031,0.397-0.03,0.521,0.003c0.125,0.033-0.008,0.058-0.295,0.057
			C404.38,128.545,404.278,128.518,404.44,128.487L404.44,128.487z M561.079,128.485c0.233-0.029,0.614-0.029,0.847,0
			s0.042,0.053-0.424,0.053C561.036,128.538,560.846,128.514,561.079,128.485z M577.303,128.354c0.269-0.028,0.709-0.028,0.977,0
			c0.269,0.028,0.049,0.051-0.489,0.051C577.254,128.405,577.034,128.382,577.303,128.354z M586.36,128.232
			c0.09-0.036,0.236-0.036,0.326,0c0.09,0.036,0.016,0.066-0.163,0.066S586.271,128.269,586.36,128.232z M618.353,128.095
			c0.197-0.03,0.52-0.03,0.717,0s0.036,0.054-0.358,0.054C618.317,128.149,618.156,128.125,618.353,128.095z M679.862,128.099
			c0.125-0.033,0.331-0.033,0.456,0s0.023,0.06-0.228,0.06S679.737,128.131,679.862,128.099z M689.832,128.102
			c0.09-0.036,0.236-0.036,0.326,0c0.09,0.036,0.016,0.066-0.163,0.066C689.815,128.168,689.742,128.138,689.832,128.102z
			 M128.481,127.146c0-0.179,0.03-0.252,0.066-0.163c0.036,0.09,0.036,0.236,0,0.326
			C128.51,127.398,128.481,127.325,128.481,127.146z M128.35,124.279c0-0.179,0.03-0.252,0.066-0.163s0.036,0.236,0,0.326
			S128.35,124.458,128.35,124.279z M279.397,123.758c0-0.251,0.027-0.353,0.06-0.228s0.033,0.331,0,0.456
			C279.424,124.111,279.397,124.009,279.397,123.758z M279.397,121.282c0-0.251,0.027-0.353,0.06-0.228s0.033,0.331,0,0.456
			S279.397,121.532,279.397,121.282z M128.21,121.336c0.006-0.152,0.037-0.183,0.079-0.079c0.038,0.094,0.033,0.206-0.01,0.25
			S128.204,121.473,128.21,121.336L128.21,121.336z M128.08,118.339c0.006-0.152,0.037-0.183,0.079-0.079
			c0.038,0.094,0.033,0.206-0.01,0.25C128.105,118.553,128.074,118.476,128.08,118.339L128.08,118.339z M127.949,115.602
			c0.006-0.152,0.037-0.183,0.079-0.079c0.038,0.094,0.033,0.206-0.01,0.25S127.944,115.739,127.949,115.602L127.949,115.602z
			 M127.819,112.996c0.006-0.152,0.037-0.183,0.079-0.079c0.038,0.094,0.033,0.206-0.01,0.25S127.813,113.133,127.819,112.996
			L127.819,112.996z M433.124,112.974l-0.179-0.228l0.228,0.179c0.125,0.098,0.228,0.201,0.228,0.228
			C433.401,113.26,433.294,113.191,433.124,112.974z M336.836,110.937c0-0.027,0.103-0.13,0.228-0.228l0.228-0.179l-0.179,0.228
			C336.944,110.976,336.836,111.045,336.836,110.937z M337.594,110.507c0.094-0.038,0.206-0.033,0.25,0.01
			c0.043,0.043-0.034,0.074-0.171,0.068C337.521,110.579,337.49,110.548,337.594,110.507L337.594,110.507z M344.753,110.371
			c0.233-0.029,0.614-0.029,0.847,0c0.233,0.029,0.042,0.053-0.424,0.053S344.52,110.4,344.753,110.371z"/>
		<path id="path48" d="M703.777,201.725c0.162-0.031,0.397-0.03,0.521,0.003c0.125,0.033-0.008,0.058-0.295,0.057
			S703.615,201.756,703.777,201.725z M442.755,195.467c0.307-0.028,0.776-0.027,1.043,0.001s0.016,0.051-0.557,0.05
			C442.667,195.517,442.448,195.494,442.755,195.467L442.755,195.467z M449.921,195.468c0.234-0.029,0.586-0.028,0.782,0.001
			c0.196,0.03,0.004,0.053-0.426,0.053C449.847,195.521,449.687,195.497,449.921,195.468z M439.233,195.346
			c0.09-0.036,0.236-0.036,0.326,0s0.016,0.066-0.163,0.066C439.216,195.411,439.143,195.382,439.233,195.346z M454.024,195.342
			c0.125-0.033,0.331-0.033,0.456,0s0.023,0.06-0.228,0.06C454.001,195.402,453.898,195.375,454.024,195.342z M437.017,195.215
			c0.09-0.036,0.236-0.036,0.326,0s0.016,0.066-0.163,0.066C437.001,195.281,436.928,195.251,437.017,195.215z M456.312,195.212
			c0.094-0.038,0.206-0.033,0.25,0.01c0.043,0.043-0.034,0.074-0.171,0.068C456.239,195.285,456.208,195.254,456.312,195.212
			L456.312,195.212z M242.52,193.127c0.125-0.033,0.331-0.033,0.456,0s0.023,0.06-0.228,0.06S242.394,193.159,242.52,193.127z
			 M306.961,193.13c0.09-0.036,0.236-0.036,0.326,0s0.016,0.066-0.163,0.066S306.872,193.166,306.961,193.13z M552.543,193.127
			c0.125-0.033,0.331-0.033,0.456,0s0.023,0.06-0.228,0.06S552.418,193.159,552.543,193.127z M304.616,193
			c0.09-0.036,0.236-0.036,0.326,0s0.016,0.066-0.163,0.066C304.599,193.066,304.526,193.036,304.616,193z M302.93,192.867
			c0.094-0.038,0.206-0.033,0.25,0.01c0.043,0.043-0.034,0.074-0.171,0.068C302.857,192.939,302.826,192.908,302.93,192.867
			L302.93,192.867z M110.878,191.707c0.006-0.152,0.037-0.183,0.079-0.079c0.038,0.094,0.033,0.206-0.01,0.25
			C110.903,191.921,110.872,191.844,110.878,191.707L110.878,191.707z M110.747,189.622c0.006-0.152,0.037-0.183,0.079-0.079
			c0.038,0.094,0.033,0.206-0.01,0.25C110.773,189.836,110.742,189.759,110.747,189.622L110.747,189.622z M470.411,189.649
			c0-0.027,0.103-0.13,0.228-0.228l0.228-0.179l-0.179,0.228C470.518,189.687,470.411,189.756,470.411,189.649z M110.617,187.406
			c0.006-0.152,0.037-0.183,0.079-0.079c0.038,0.094,0.033,0.206-0.01,0.25C110.642,187.621,110.611,187.544,110.617,187.406
			L110.617,187.406z M290.036,186.342l-0.179-0.228l0.228,0.179c0.125,0.098,0.228,0.201,0.228,0.228
			C290.313,186.628,290.206,186.559,290.036,186.342z M110.497,185.006c0-0.179,0.03-0.252,0.066-0.163
			c0.036,0.09,0.036,0.236,0,0.326C110.527,185.259,110.497,185.186,110.497,185.006z M419.613,184.681
			c0.003-0.215,0.032-0.287,0.065-0.16s0.031,0.303-0.005,0.391S419.61,184.896,419.613,184.681z M419.613,183.117
			c0.003-0.215,0.032-0.287,0.065-0.16s0.031,0.303-0.005,0.391C419.637,183.436,419.61,183.332,419.613,183.117z M110.367,182.661
			c0-0.179,0.03-0.252,0.066-0.163c0.036,0.09,0.036,0.236,0,0.326C110.396,182.913,110.367,182.84,110.367,182.661z
			 M110.236,180.445c0-0.179,0.03-0.252,0.066-0.163c0.036,0.09,0.036,0.236,0,0.326
			C110.266,180.698,110.236,180.625,110.236,180.445z M82.884,177.227c0.127-0.033,0.303-0.031,0.391,0.005
			c0.088,0.036-0.016,0.063-0.231,0.06S82.758,177.261,82.884,177.227L82.884,177.227z M108.621,177.226
			c0.162-0.031,0.397-0.03,0.521,0.003s-0.008,0.058-0.295,0.057C108.561,177.283,108.459,177.257,108.621,177.226z
			 M450.766,176.964c0.197-0.03,0.52-0.03,0.717,0c0.197,0.03,0.036,0.054-0.358,0.054S450.569,176.994,450.766,176.964z
			 M448.363,176.838c0.094-0.038,0.207-0.033,0.25,0.01s-0.034,0.074-0.171,0.068C448.29,176.91,448.259,176.879,448.363,176.838
			L448.363,176.838z M230.596,174.88c0.161-0.031,0.425-0.031,0.586,0s0.029,0.056-0.293,0.056S230.435,174.911,230.596,174.88z
			 M233.862,174.753c0.094-0.038,0.206-0.033,0.25,0.01s-0.034,0.074-0.171,0.068C233.789,174.825,233.758,174.794,233.862,174.753
			L233.862,174.753z M517.227,174.093c0.842-0.023,2.22-0.023,3.062,0s0.153,0.041-1.531,0.041S516.385,174.116,517.227,174.093z
			 M546.874,173.964c0.305-0.027,0.803-0.027,1.108,0s0.055,0.05-0.554,0.05S546.57,173.992,546.874,173.964z M630.995,173.575
			c0.198-0.03,0.491-0.029,0.652,0.002c0.16,0.031-0.002,0.055-0.36,0.054C630.929,173.631,630.797,173.605,630.995,173.575
			L630.995,173.575z M621.872,173.442c0.484-0.025,1.275-0.025,1.759,0c0.484,0.025,0.088,0.046-0.88,0.046
			S621.388,173.467,621.872,173.442z M607.928,173.311c0.556-0.024,1.464-0.024,2.02,0c0.555,0.024,0.101,0.044-1.01,0.044
			C607.827,173.356,607.372,173.336,607.928,173.311z M599.068,173.184c0.198-0.03,0.491-0.029,0.652,0.002s-0.002,0.055-0.36,0.054
			C599.001,173.24,598.87,173.214,599.068,173.184L599.068,173.184z M35.318,171.099c0.198-0.03,0.491-0.029,0.652,0.002
			c0.16,0.031-0.002,0.055-0.36,0.054C35.251,171.155,35.12,171.129,35.318,171.099L35.318,171.099z M130.305,168.717
			c0-0.179,0.03-0.252,0.066-0.163c0.036,0.09,0.036,0.236,0,0.326C130.335,168.969,130.305,168.896,130.305,168.717z
			 M130.185,166.111c0-0.251,0.027-0.353,0.06-0.228s0.033,0.331,0,0.456C130.211,166.464,130.185,166.361,130.185,166.111z
			 M688.406,164.588c0.094-0.038,0.206-0.033,0.25,0.01c0.043,0.043-0.034,0.074-0.171,0.068
			C688.333,164.661,688.302,164.63,688.406,164.588L688.406,164.588z M130.049,163.309c0.003-0.215,0.032-0.287,0.065-0.16
			s0.031,0.303-0.005,0.391S130.047,163.524,130.049,163.309L130.049,163.309z M94.874,161.068c0.127-0.033,0.303-0.031,0.391,0.005
			c0.088,0.036-0.016,0.063-0.231,0.06S94.747,161.101,94.874,161.068L94.874,161.068z M129.919,160.442
			c0.003-0.215,0.032-0.287,0.065-0.16s0.031,0.303-0.005,0.391C129.943,160.761,129.916,160.657,129.919,160.442L129.919,160.442z
			 M109.064,158.422c0-0.179,0.03-0.252,0.066-0.163c0.036,0.09,0.036,0.236,0,0.326
			C109.093,158.674,109.064,158.601,109.064,158.422z M604.997,158.46c0.162-0.031,0.397-0.03,0.521,0.003
			c0.125,0.033-0.008,0.058-0.295,0.057C604.937,158.518,604.835,158.491,604.997,158.46z M129.789,157.445
			c0.003-0.215,0.032-0.287,0.065-0.16s0.031,0.303-0.005,0.391C129.813,157.763,129.786,157.66,129.789,157.445L129.789,157.445z
			 M108.938,155.62c0.003-0.215,0.032-0.287,0.065-0.16c0.033,0.127,0.031,0.303-0.005,0.391
			C108.963,155.939,108.935,155.835,108.938,155.62L108.938,155.62z M129.658,154.447c0.003-0.215,0.032-0.287,0.065-0.16
			s0.031,0.303-0.005,0.391S129.656,154.662,129.658,154.447L129.658,154.447z M108.803,153.079c0-0.179,0.03-0.252,0.066-0.163
			c0.036,0.09,0.036,0.236,0,0.326C108.833,153.331,108.803,153.258,108.803,153.079z M129.528,151.45
			c0.003-0.215,0.032-0.287,0.065-0.16s0.031,0.303-0.005,0.391C129.553,151.769,129.525,151.665,129.528,151.45L129.528,151.45z
			 M108.673,150.603c0-0.179,0.03-0.252,0.066-0.163c0.036,0.09,0.036,0.236,0,0.326
			C108.702,150.855,108.673,150.782,108.673,150.603z M129.398,148.453c0.003-0.215,0.032-0.287,0.065-0.16s0.031,0.303-0.005,0.391
			S129.395,148.668,129.398,148.453L129.398,148.453z M108.542,148.257c0-0.179,0.03-0.252,0.066-0.163
			c0.036,0.09,0.036,0.236,0,0.326C108.572,148.51,108.542,148.436,108.542,148.257z M108.412,146.042
			c0-0.179,0.03-0.252,0.066-0.163c0.036,0.09,0.036,0.236,0,0.326C108.442,146.294,108.412,146.221,108.412,146.042z
			 M389.061,145.825c0.09-0.036,0.236-0.036,0.326,0s0.016,0.066-0.163,0.066C389.045,145.891,388.971,145.861,389.061,145.825z
			 M129.268,145.455c0.003-0.215,0.032-0.287,0.065-0.16s0.031,0.303-0.005,0.391C129.292,145.774,129.265,145.67,129.268,145.455
			L129.268,145.455z M671.074,145.562c0.094-0.038,0.206-0.033,0.25,0.01c0.043,0.043-0.034,0.074-0.171,0.068
			C671.001,145.634,670.97,145.603,671.074,145.562L671.074,145.562z M683.839,145.556c0.234-0.029,0.586-0.028,0.782,0.001
			c0.196,0.03,0.004,0.053-0.426,0.053C683.765,145.61,683.605,145.585,683.839,145.556z M529.084,144.739
			c0-0.251,0.027-0.353,0.06-0.228s0.033,0.331,0,0.456C529.111,145.092,529.084,144.989,529.084,144.739z M529.084,143.826
			c0-0.251,0.027-0.353,0.06-0.228s0.033,0.331,0,0.456C529.111,144.18,529.084,144.077,529.084,143.826z M129.137,142.458
			c0.003-0.215,0.032-0.287,0.065-0.16s0.031,0.303-0.005,0.391C129.162,142.777,129.135,142.673,129.137,142.458L129.137,142.458z
			 M640.702,142.69c0.233-0.029,0.614-0.029,0.847,0s0.042,0.053-0.424,0.053S640.469,142.719,640.702,142.69z M129.007,139.461
			c0.003-0.215,0.032-0.287,0.065-0.16s0.031,0.303-0.005,0.391C129.031,139.78,129.004,139.676,129.007,139.461L129.007,139.461z
			 M128.881,136.529c0-0.251,0.027-0.353,0.06-0.228s0.033,0.331,0,0.456C128.908,136.882,128.881,136.78,128.881,136.529z
			 M128.741,133.531c0-0.179,0.03-0.252,0.066-0.163c0.036,0.09,0.036,0.236,0,0.326
			C128.771,133.784,128.741,133.711,128.741,133.531z M411.286,130.534c0-0.394,0.024-0.555,0.054-0.358
			c0.03,0.197,0.03,0.52,0,0.717C411.311,131.09,411.286,130.928,411.286,130.534z M128.616,130.599
			c0.003-0.215,0.032-0.287,0.065-0.16s0.031,0.303-0.005,0.391C128.64,130.918,128.613,130.814,128.616,130.599L128.616,130.599z
			 M409.789,128.621c0.094-0.038,0.206-0.033,0.25,0.01c0.043,0.043-0.034,0.074-0.171,0.068
			C409.716,128.693,409.685,128.662,409.789,128.621L409.789,128.621z M396.359,128.493c0.09-0.036,0.236-0.036,0.326,0
			s0.016,0.066-0.163,0.066C396.342,128.559,396.269,128.529,396.359,128.493z M405.546,128.484c0.269-0.028,0.709-0.028,0.977,0
			c0.269,0.028,0.049,0.051-0.489,0.051C405.497,128.536,405.277,128.513,405.546,128.484z M559.32,128.484
			c0.269-0.028,0.709-0.028,0.977,0c0.269,0.028,0.049,0.051-0.489,0.051S559.051,128.513,559.32,128.484z M573.856,128.352
			c0.595-0.024,1.533-0.024,2.085,0s0.065,0.044-1.081,0.044C573.713,128.396,573.261,128.376,573.856,128.352L573.856,128.352z
			 M585.19,128.224c0.234-0.029,0.586-0.028,0.782,0.001c0.196,0.03,0.004,0.053-0.426,0.053
			C585.116,128.278,584.955,128.253,585.19,128.224z M617.245,128.096c0.161-0.031,0.425-0.031,0.586,0s0.029,0.056-0.293,0.056
			C617.216,128.153,617.084,128.128,617.245,128.096z M679.017,128.096c0.162-0.031,0.397-0.03,0.521,0.003
			c0.125,0.033-0.008,0.058-0.295,0.057C678.957,128.154,678.855,128.127,679.017,128.096L679.017,128.096z M690.42,128.098
			c0.127-0.033,0.303-0.031,0.391,0.005c0.088,0.036-0.016,0.063-0.231,0.06C690.366,128.16,690.294,128.131,690.42,128.098
			L690.42,128.098z M128.486,127.732c0.003-0.215,0.032-0.287,0.065-0.16s0.031,0.303-0.005,0.391S128.483,127.947,128.486,127.732
			L128.486,127.732z M128.355,124.865c0.003-0.215,0.032-0.287,0.065-0.16s0.031,0.303-0.005,0.391
			C128.38,125.184,128.353,125.08,128.355,124.865L128.355,124.865z M279.41,122.52c0-0.502,0.024-0.691,0.052-0.421
			s0.028,0.681-0.001,0.912C279.432,123.243,279.409,123.021,279.41,122.52L279.41,122.52z M128.22,121.803
			c0-0.179,0.03-0.252,0.066-0.163c0.036,0.09,0.036,0.236,0,0.326C128.25,122.055,128.22,121.982,128.22,121.803z M128.1,118.936
			c0-0.251,0.027-0.353,0.06-0.228s0.033,0.331,0,0.456C128.126,119.289,128.1,119.187,128.1,118.936z M127.964,116.134
			c0.003-0.215,0.032-0.287,0.065-0.16c0.033,0.127,0.031,0.303-0.005,0.391C127.989,116.453,127.962,116.349,127.964,116.134
			L127.964,116.134z M127.829,113.463c0-0.179,0.03-0.252,0.066-0.163c0.036,0.09,0.036,0.236,0,0.326
			C127.859,113.715,127.829,113.642,127.829,113.463z M432.672,112.518l-0.248-0.293l0.293,0.248
			c0.161,0.137,0.293,0.268,0.293,0.293C433.01,112.87,432.905,112.793,432.672,112.518z M127.689,110.911
			c0.006-0.152,0.037-0.183,0.079-0.079c0.038,0.094,0.033,0.206-0.01,0.25C127.714,111.125,127.683,111.048,127.689,110.911
			L127.689,110.911z M710.951,110.767c0.094-0.038,0.206-0.033,0.25,0.01c0.043,0.043-0.034,0.074-0.171,0.068
			C710.878,110.84,710.847,110.809,710.951,110.767L710.951,110.767z M341.685,110.369c0.481-0.025,1.302-0.025,1.824,0
			c0.523,0.025,0.13,0.045-0.874,0.045C341.632,110.414,341.204,110.394,341.685,110.369L341.685,110.369z M319.895,97.515
			c0-0.027,0.103-0.13,0.228-0.228l0.228-0.179l-0.179,0.228C320.002,97.553,319.895,97.622,319.895,97.515z M320.547,96.872
			c0-0.022,0.191-0.213,0.424-0.424l0.424-0.383l-0.383,0.424C320.654,96.884,320.547,96.972,320.547,96.872z M336.674,90.31
			c0.09-0.036,0.236-0.036,0.326,0s0.016,0.066-0.163,0.066C336.657,90.376,336.584,90.346,336.674,90.31z"/>
		<path id="path46" d="M702.733,201.725c0.161-0.031,0.425-0.031,0.586,0s0.029,0.056-0.293,0.056S702.572,201.756,702.733,201.725z
			 M445.56,195.465c0.774-0.023,2.006-0.023,2.737,0s0.097,0.042-1.408,0.042C445.384,195.507,444.786,195.488,445.56,195.465
			L445.56,195.465z M439.762,195.343c0.094-0.038,0.206-0.033,0.25,0.01s-0.034,0.074-0.171,0.068
			C439.689,195.415,439.658,195.384,439.762,195.343L439.762,195.343z M453.576,195.343c0.094-0.038,0.206-0.033,0.25,0.01
			s-0.034,0.074-0.171,0.068C453.503,195.415,453.472,195.384,453.576,195.343L453.576,195.343z M241.933,193.13
			c0.09-0.036,0.236-0.036,0.326,0c0.09,0.036,0.016,0.066-0.163,0.066S241.844,193.166,241.933,193.13z M307.491,193.127
			c0.094-0.038,0.206-0.033,0.25,0.01c0.043,0.043-0.034,0.074-0.171,0.068C307.418,193.2,307.387,193.169,307.491,193.127
			L307.491,193.127z M552.095,193.127c0.094-0.038,0.206-0.033,0.25,0.01c0.043,0.043-0.034,0.074-0.171,0.068
			C552.022,193.2,551.991,193.169,552.095,193.127L552.095,193.127z M422.177,191.294l-0.179-0.228l0.228,0.179
			c0.217,0.17,0.286,0.277,0.179,0.277C422.378,191.522,422.276,191.42,422.177,191.294z M110.747,189.231
			c0.006-0.152,0.037-0.183,0.079-0.079c0.038,0.094,0.033,0.206-0.01,0.25C110.773,189.445,110.742,189.368,110.747,189.231
			L110.747,189.231z M562.93,188.883c0.32-0.34,0.598-0.619,0.619-0.619c0.098,0-0.006,0.117-0.581,0.657l-0.619,0.581
			L562.93,188.883z M471.454,188.59c0.389-0.394,0.737-0.717,0.773-0.717s-0.253,0.323-0.643,0.717
			c-0.389,0.394-0.737,0.717-0.773,0.717S471.064,188.984,471.454,188.59z M110.617,187.016c0.006-0.152,0.037-0.183,0.079-0.079
			c0.038,0.094,0.033,0.206-0.01,0.25C110.642,187.23,110.611,187.153,110.617,187.016L110.617,187.016z M110.487,184.539
			c0.006-0.152,0.037-0.183,0.079-0.079c0.038,0.094,0.033,0.206-0.01,0.25C110.512,184.754,110.481,184.677,110.487,184.539
			L110.487,184.539z M419.62,183.899c0.001-0.287,0.028-0.389,0.059-0.227c0.031,0.162,0.03,0.397-0.003,0.521
			C419.645,184.318,419.619,184.185,419.62,183.899L419.62,183.899z M450.188,176.968c0.094-0.038,0.207-0.033,0.25,0.01
			s-0.034,0.074-0.171,0.068C450.114,177.041,450.084,177.01,450.188,176.968L450.188,176.968z M451.882,176.968
			c0.094-0.038,0.206-0.033,0.25,0.01s-0.034,0.074-0.171,0.068C451.809,177.041,451.778,177.01,451.882,176.968L451.882,176.968z
			 M231.508,174.886c0.09-0.036,0.236-0.036,0.326,0c0.09,0.036,0.016,0.066-0.163,0.066S231.418,174.922,231.508,174.886z
			 M322.478,174.093c1.528-0.021,3.991-0.021,5.473,0s0.232,0.038-2.778,0.038S320.95,174.113,322.478,174.093z M522.766,174.093
			c0.591-0.024,1.559-0.024,2.15,0s0.107,0.044-1.075,0.044S522.174,174.117,522.766,174.093z M630.081,173.579
			c0.125-0.033,0.331-0.033,0.456,0s0.023,0.06-0.228,0.06S629.956,173.612,630.081,173.579z M620.047,173.445
			c0.197-0.03,0.52-0.03,0.717,0c0.197,0.03,0.036,0.054-0.358,0.054C620.011,173.5,619.85,173.475,620.047,173.445z
			 M605.644,173.314c0.231-0.029,0.642-0.029,0.912-0.001c0.27,0.028,0.081,0.052-0.421,0.052
			C605.634,173.366,605.413,173.343,605.644,173.314L605.644,173.314z M598.488,173.189c0.094-0.038,0.206-0.033,0.25,0.01
			c0.043,0.043-0.034,0.074-0.171,0.068C598.415,173.261,598.384,173.231,598.488,173.189L598.488,173.189z M130.165,166.686
			c0.006-0.152,0.037-0.183,0.079-0.079c0.038,0.094,0.033,0.206-0.01,0.25S130.159,166.823,130.165,166.686L130.165,166.686z
			 M683.707,164.591c0.09-0.036,0.236-0.036,0.326,0s0.016,0.066-0.163,0.066S683.617,164.627,683.707,164.591z M130.034,163.819
			c0.006-0.152,0.037-0.183,0.079-0.079c0.038,0.094,0.033,0.206-0.01,0.25S130.029,163.957,130.034,163.819L130.034,163.819z
			 M129.904,160.952c0.006-0.152,0.037-0.183,0.079-0.079c0.038,0.094,0.033,0.206-0.01,0.25
			C129.929,161.167,129.898,161.09,129.904,160.952L129.904,160.952z M418.48,159.073c0.13-0.143,0.265-0.261,0.301-0.261
			c0.036,0-0.041,0.117-0.171,0.261s-0.265,0.261-0.301,0.261C418.273,159.334,418.35,159.217,418.48,159.073z M604.482,158.463
			c0.094-0.038,0.206-0.033,0.25,0.01c0.043,0.043-0.034,0.074-0.171,0.068C604.409,158.536,604.378,158.505,604.482,158.463
			L604.482,158.463z M109.064,157.901c0-0.179,0.03-0.252,0.066-0.163c0.036,0.09,0.036,0.236,0,0.326
			C109.093,158.153,109.064,158.08,109.064,157.901z M129.774,157.955c0.006-0.152,0.037-0.183,0.079-0.079
			c0.038,0.094,0.033,0.206-0.01,0.25S129.768,158.092,129.774,157.955L129.774,157.955z M108.923,155.088
			c0.006-0.152,0.037-0.183,0.079-0.079c0.038,0.094,0.033,0.206-0.01,0.25C108.948,155.302,108.917,155.225,108.923,155.088
			L108.923,155.088z M129.643,154.958c0.006-0.152,0.037-0.183,0.079-0.079c0.038,0.094,0.033,0.206-0.01,0.25
			C129.669,155.172,129.638,155.095,129.643,154.958L129.643,154.958z M108.793,152.612c0.006-0.152,0.037-0.183,0.079-0.079
			c0.038,0.094,0.033,0.206-0.01,0.25C108.818,152.826,108.787,152.749,108.793,152.612L108.793,152.612z M129.513,151.96
			c0.006-0.152,0.037-0.183,0.079-0.079c0.038,0.094,0.033,0.206-0.01,0.25S129.507,152.098,129.513,151.96L129.513,151.96z
			 M108.662,150.136c0.006-0.152,0.037-0.183,0.079-0.079c0.038,0.094,0.033,0.206-0.01,0.25
			C108.688,150.35,108.657,150.273,108.662,150.136L108.662,150.136z M129.383,148.963c0.006-0.152,0.037-0.183,0.079-0.079
			c0.038,0.094,0.033,0.206-0.01,0.25C129.408,149.177,129.377,149.1,129.383,148.963L129.383,148.963z M530.414,147.443
			l-0.383-0.424l0.424,0.383c0.395,0.357,0.483,0.464,0.383,0.464C530.815,147.866,530.624,147.676,530.414,147.443z
			 M129.263,146.042c0-0.179,0.03-0.252,0.066-0.163c0.036,0.09,0.036,0.236,0,0.326
			C129.292,146.294,129.263,146.221,129.263,146.042z M685.018,145.562c0.094-0.038,0.206-0.033,0.25,0.01
			c0.043,0.043-0.034,0.074-0.171,0.068C684.945,145.634,684.914,145.603,685.018,145.562L685.018,145.562z M687.518,144.559
			c0-0.027,0.103-0.13,0.228-0.228l0.228-0.179l-0.179,0.228C687.625,144.597,687.518,144.666,687.518,144.559z M129.122,142.968
			c0.006-0.152,0.037-0.183,0.079-0.079c0.038,0.094,0.033,0.206-0.01,0.25C129.147,143.183,129.116,143.106,129.122,142.968
			L129.122,142.968z M639.334,142.691c0.197-0.03,0.52-0.03,0.717,0c0.197,0.03,0.036,0.054-0.358,0.054
			C639.298,142.745,639.137,142.72,639.334,142.691z M128.992,139.971c0.006-0.152,0.037-0.183,0.079-0.079
			c0.038,0.094,0.033,0.206-0.01,0.25C129.017,140.186,128.986,140.109,128.992,139.971L128.992,139.971z M552.755,138.516
			l-0.179-0.228l0.228,0.179c0.217,0.17,0.286,0.277,0.179,0.277C552.956,138.744,552.853,138.641,552.755,138.516z
			 M128.861,137.104c0.006-0.152,0.037-0.183,0.079-0.079c0.038,0.094,0.033,0.206-0.01,0.25S128.856,137.242,128.861,137.104
			L128.861,137.104z M551.098,134.574c0-0.179,0.03-0.252,0.066-0.163c0.036,0.09,0.036,0.236,0,0.326
			C551.127,134.826,551.098,134.753,551.098,134.574z M128.741,134.053c0-0.179,0.03-0.252,0.066-0.163
			c0.036,0.09,0.036,0.236,0,0.326C128.771,134.305,128.741,134.232,128.741,134.053z M128.601,131.11
			c0.006-0.152,0.037-0.183,0.079-0.079c0.038,0.094,0.033,0.206-0.01,0.25S128.595,131.247,128.601,131.11L128.601,131.11z
			 M407.045,128.493c0.09-0.036,0.236-0.036,0.326,0s0.016,0.066-0.163,0.066C407.028,128.559,406.955,128.529,407.045,128.493z
			 M558.472,128.493c0.09-0.036,0.236-0.036,0.326,0s0.016,0.066-0.163,0.066S558.383,128.529,558.472,128.493z M128.471,128.243
			c0.006-0.152,0.037-0.183,0.079-0.079c0.038,0.094,0.033,0.206-0.01,0.25C128.496,128.457,128.465,128.38,128.471,128.243
			L128.471,128.243z M571.377,128.353c0.307-0.028,0.776-0.027,1.043,0.001s0.016,0.051-0.557,0.05
			C571.289,128.404,571.071,128.381,571.377,128.353L571.377,128.353z M584.146,128.227c0.162-0.031,0.397-0.03,0.521,0.003
			c0.125,0.033-0.008,0.058-0.295,0.057C584.086,128.284,583.984,128.258,584.146,128.227L584.146,128.227z M616.732,128.099
			c0.094-0.038,0.206-0.033,0.25,0.01c0.043,0.043-0.034,0.074-0.171,0.068C616.659,128.172,616.628,128.141,616.732,128.099
			L616.732,128.099z M128.34,125.376c0.006-0.152,0.037-0.183,0.079-0.079c0.038,0.094,0.033,0.206-0.01,0.25
			C128.365,125.59,128.335,125.513,128.34,125.376L128.34,125.376z M128.22,122.324c0-0.179,0.03-0.252,0.066-0.163
			c0.036,0.09,0.036,0.236,0,0.326C128.25,122.577,128.22,122.503,128.22,122.324z M128.08,119.512
			c0.006-0.152,0.037-0.183,0.079-0.079c0.038,0.094,0.033,0.206-0.01,0.25C128.105,119.726,128.074,119.649,128.08,119.512
			L128.08,119.512z M716.88,118.219c0.001-0.43,0.025-0.59,0.054-0.356c0.029,0.234,0.028,0.586-0.001,0.782
			C716.903,118.841,716.88,118.649,716.88,118.219L716.88,118.219z M434.975,117.296c0.006-0.152,0.037-0.183,0.079-0.079
			c0.038,0.094,0.033,0.206-0.01,0.25C435,117.51,434.97,117.433,434.975,117.296L434.975,117.296z M127.949,116.645
			c0.006-0.152,0.037-0.183,0.079-0.079c0.038,0.094,0.033,0.206-0.01,0.25S127.944,116.782,127.949,116.645L127.949,116.645z
			 M541.955,113.658c0.243-0.251,0.471-0.456,0.507-0.456s-0.134,0.205-0.377,0.456c-0.243,0.251-0.471,0.456-0.507,0.456
			S541.712,113.909,541.955,113.658z M275.571,113.495l-0.179-0.228l0.228,0.179c0.217,0.17,0.286,0.277,0.179,0.277
			C275.772,113.723,275.669,113.621,275.571,113.495z M127.689,111.302c0.006-0.152,0.037-0.183,0.079-0.079
			c0.038,0.094,0.033,0.206-0.01,0.25C127.714,111.516,127.683,111.439,127.689,111.302L127.689,111.302z M710.422,110.77
			c0.09-0.036,0.236-0.036,0.326,0c0.09,0.036,0.016,0.066-0.163,0.066S710.332,110.806,710.422,110.77z M340.194,110.373
			c0.162-0.031,0.397-0.03,0.521,0.003c0.125,0.033-0.008,0.058-0.295,0.057C340.134,110.431,340.032,110.404,340.194,110.373
			L340.194,110.373z M377.821,90.397l-0.391-0.099l0.351-0.015c0.193-0.008,0.387,0.043,0.431,0.115s0.062,0.123,0.04,0.115
			C378.23,90.503,378.036,90.451,377.821,90.397z M337.195,90.31c0.09-0.036,0.236-0.036,0.326,0s0.016,0.066-0.163,0.066
			C337.179,90.376,337.105,90.346,337.195,90.31z"/>
		<path id="path44" d="M400.548,199.759c-0.688-1.126-2.673-4.334-4.412-7.129c-1.739-2.795-4.015-6.46-5.058-8.145
			c-2.81-4.536-9.598-15.379-10.562-16.872l-0.838-1.299l-0.394,0.778c-0.433,0.855-3.952,8.739-5.96,13.353
			c-1.525,3.505-3.393,7.748-4.689,10.653l-0.945,2.118h-10.084c-5.546,0-10.084-0.049-10.084-0.11
			c0-0.247,6.733-16.006,18.439-43.156c4.824-11.188,5.271-12.224,12.25-28.409c2.488-5.77,4.554-10.565,4.59-10.656
			c0.054-0.134,4.638-0.159,23.606-0.13l23.54,0.036l0.744,0.301c0.907,0.366,2.461,1.77,3.224,2.913
			c1.539,2.305,1.498,6.008-0.117,10.387c-1.111,3.014-6.908,16.988-11.298,27.235c-2.037,4.754-2.297,5.291-3.073,6.34
			c-2.797,3.779-7.12,5.74-15.525,7.043c-1.136,0.176-2.089,0.32-2.118,0.32c-0.267,0,0.929,2.078,12.038,20.916
			c7.713,13.08,9.022,15.327,9.022,15.488c0,0.047-4.735,0.082-10.523,0.079l-10.523-0.005L400.548,199.759z M405.188,145.544
			c0.868-0.598,1.31-1.497,4.08-8.298c1.801-4.423,2.019-5.124,2.033-6.534l0.012-1.191l-0.26-0.289
			c-0.143-0.159-0.436-0.381-0.652-0.494l-0.391-0.205l-6.969-0.01l-6.969-0.01l-0.825,1.89c-1.81,4.147-6.284,15.039-6.284,15.3
			v0.207l7.852-0.004l7.852-0.004L405.188,145.544L405.188,145.544z M683.428,201.524c-0.27-0.423-4.442-7.33-9.07-15.019
			c-8.249-13.705-12.597-20.785-12.764-20.785c-0.151,0-2.122,4.346-6.647,14.661c-0.66,1.505-2.204,5.009-3.431,7.786l-2.231,5.05
			h-10.139c-5.577,0-10.139-0.031-10.139-0.069c0-0.104,6.826-16.002,11.664-27.167c2.345-5.411,5.115-11.803,6.155-14.205
			c1.04-2.401,2.553-5.89,3.361-7.754c0.808-1.864,2.143-4.942,2.966-6.842c0.823-1.899,2.858-6.591,4.522-10.425
			c1.664-3.835,3.908-9.011,4.986-11.504l1.96-4.532l23.48,0.036l23.48,0.036l1.148,0.569c2.658,1.317,4.11,3.802,4.11,7.03
			c0,2.269-0.275,3.268-1.939,7.038c-1.21,2.74-3.566,8.308-6.987,16.51c-1.555,3.727-2.99,7.158-3.19,7.624
			c-0.2,0.466-0.934,2.189-1.633,3.829c-1.424,3.344-1.979,4.402-3.043,5.806c-1.382,1.822-3.709,3.283-6.944,4.359
			c-2.612,0.869-3.736,1.039-7.012,1.063c-1.888,0.014-2.942,0.07-2.971,0.157c-0.052,0.157,0.467,1.045,9.002,15.41
			c11.065,18.623,12.598,21.22,12.598,21.343c0,0.214-3.169,0.289-12.214,0.289l-8.891,0.001L683.428,201.524z M685.729,145.533
			c0.88-0.145,1.975-0.932,2.451-1.762c0.789-1.376,5.203-12.799,5.203-13.465c0-0.496-0.507-1.458-0.931-1.767
			c-0.189-0.138-0.6-0.3-0.912-0.36c-0.659-0.127-12.8-0.137-13.248-0.01c-0.236,0.067-0.495,0.514-1.216,2.105
			c-0.504,1.111-1.023,2.284-1.153,2.606c-0.131,0.323-0.412,0.968-0.626,1.433c-1.194,2.602-4.36,9.926-4.584,10.606
			c-0.137,0.416-0.135,0.521,0.013,0.615C670.946,145.674,684.876,145.673,685.729,145.533L685.729,145.533z M438.353,195.287
			c-6.803-0.416-11.773-1.103-13.195-1.825c-1.445-0.733-3.369-2.448-3.999-3.564c-0.495-0.876-1.029-2.394-1.256-3.567
			c-0.238-1.234-0.236-3.701,0.004-5.068c0.568-3.226,2.863-10.194,5.665-17.198c1.352-3.379,22.63-53.07,22.798-53.241
			c0.053-0.054,4.443-0.084,9.756-0.065l9.659,0.033l-0.715,1.759c-1.024,2.521-1.797,4.384-5.158,12.445
			c-1.644,3.942-6.211,14.908-10.15,24.369s-7.478,17.906-7.865,18.766c-1.314,2.917-1.594,3.987-1.475,5.645
			c0.099,1.387,0.685,2.153,1.911,2.5c1.558,0.441,6.212,0.865,7.834,0.714c1.9-0.177,3.745-0.948,4.915-2.055
			c1.228-1.162,2.28-3.132,4.99-9.346c2.695-6.18,4.869-11.186,5.602-12.901c0.413-0.968,2.364-5.512,4.335-10.1
			c1.971-4.587,4.917-11.478,6.546-15.312c5.477-12.889,6.718-15.793,6.915-16.172l0.195-0.378h9.966
			c5.481,0,9.966,0.05,9.966,0.112c0,0.095-2.015,5.002-10.123,24.648c-0.606,1.469-1.416,3.434-1.798,4.366
			c-0.383,0.932-1.221,2.955-1.862,4.496s-1.931,4.649-2.866,6.907c-11.522,27.826-11.975,28.897-13.255,31.373
			c-1.382,2.673-2.251,3.91-4.04,5.75c-2.024,2.082-3.346,3.069-5.607,4.186c-3.492,1.726-6.435,2.443-11.207,2.732
			C452.27,195.451,440.939,195.445,438.353,195.287L438.353,195.287z M9.025,193.072c-0.958-0.138-2.428-0.574-3.112-0.923
			c-0.79-0.403-1.736-1.367-2.132-2.174l-0.36-0.733l0.008-1.824l0.008-1.824l0.43-1.303c0.786-2.381,4.442-11.698,7.824-19.938
			c0.412-1.003,1.204-2.939,1.761-4.3c0.831-2.033,4.64-11.247,8.998-21.763c1.629-3.932,9.081-21.784,9.384-22.48
			c0.171-0.394,0.777-1.831,1.345-3.193s1.602-3.825,2.297-5.473c0.695-1.649,1.546-3.672,1.892-4.496
			c2.67-6.364,4.676-11.118,5.238-12.413l0.665-1.531h12.165c6.691,0,12.165,0.027,12.165,0.059s-0.056,0.194-0.124,0.358
			c-0.068,0.165-0.955,2.41-1.972,4.991c-1.016,2.58-6.447,16.185-12.069,30.233c-14.357,35.876-18.545,46.41-18.545,46.645v0.204
			l12.934-0.006l12.934-0.006l3.321-4.196c1.826-2.308,5.165-6.513,7.418-9.344s5.17-6.496,6.48-8.145
			c1.31-1.648,3.828-4.815,5.595-7.037c4.793-6.027,6.2-7.797,9.894-12.445c1.851-2.329,4.323-5.437,5.494-6.907
			c4.04-5.071,4.943-6.207,7.385-9.288l2.451-3.092h9.43h9.43l0.079,0.814c0.08,0.821,0.62,12.801,1.698,37.629
			c0.88,20.27,0.93,21.242,1.094,21.241c0.045,0,0.694-1.364,1.442-3.03s1.524-3.381,1.724-3.811
			c0.419-0.9,7.883-17.673,17.121-38.475l6.38-14.366l9.855-0.001l9.855-0.001l0.08,0.619c0.044,0.34,0.699,6.718,1.454,14.172
			c0.756,7.454,1.578,15.472,1.826,17.818s0.452,4.325,0.452,4.398c0,0.362,0.3,0.053,0.597-0.616
			c0.654-1.469,5.28-12.035,7.261-16.583c1.108-2.544,2.821-6.473,3.807-8.731c3.418-7.832,4.122-9.452,4.461-10.262l0.34-0.814
			h10.476h10.476l-0.092,0.293c-0.051,0.161-0.941,2.316-1.979,4.789c-1.037,2.473-2.253,5.376-2.701,6.451
			c-0.834,2.001-4.53,10.768-5.577,13.227c-0.32,0.753-0.89,2.101-1.265,2.997c-1.729,4.124-14.942,35.334-16.937,40.007
			c-0.627,1.469-2.298,5.384-3.712,8.699l-2.572,6.027h-9.766c-7.694,0-9.778-0.035-9.825-0.163
			c-0.081-0.224-1.254-9.784-2.673-21.795c-1.602-13.553-1.736-14.595-1.883-14.595c-0.159,0-0.872,1.612-6.254,14.139
			c-2.386,5.555-5.337,12.416-6.556,15.247s-2.38,5.529-2.58,5.995c-0.199,0.466-0.418,0.92-0.486,1.01
			c-0.098,0.129-3.478,0.163-16.134,0.163h-16.011l-0.065-0.293c-0.036-0.161-0.156-1.906-0.267-3.877
			c-0.479-8.504-0.593-10.398-0.666-11.031l-0.077-0.671l-0.394-0.079c-0.518-0.104-26.794-0.103-27.312,0.001
			c-0.466,0.093-0.187-0.253-6.735,8.326c-2.572,3.369-4.943,6.462-5.27,6.873l-0.595,0.748L39.78,193.2
			C23.295,193.191,9.455,193.134,9.025,193.072z M108.88,161.076l0.293-0.079v-1.151c0-1.856-0.704-14.963-0.865-16.123
			c-0.046-0.329-0.139-0.54-0.225-0.512c-0.141,0.045-1.489,1.732-3.514,4.395c-0.518,0.681-1.523,2-2.233,2.932
			c-2.153,2.824-7.573,10.023-7.676,10.197c-0.053,0.09-0.061,0.222-0.016,0.293C94.731,161.17,108.359,161.216,108.88,161.076z
			 M192.908,192.929c0.186-0.603,6.867-17.139,13.943-34.507c1.416-3.476,2.981-7.317,3.477-8.536
			c0.496-1.218,2.243-5.499,3.882-9.513c5.789-14.179,7.726-18.928,8.93-21.893c0.669-1.649,1.649-4.053,2.178-5.343l0.962-2.346
			l21.559-0.037c15.199-0.026,21.809,0.006,22.406,0.106c2.049,0.346,3.552,1.07,5.174,2.494c1.807,1.586,2.927,3.253,3.577,5.326
			l0.305,0.972l-0.005,3.323l-0.005,3.323l-0.299,1.173c-1.719,6.736-4.779,14.453-14.908,37.596
			c-3.163,7.226-3.493,7.937-6.369,13.683c-3.968,7.93-4.922,9.542-6.651,11.232c-1.602,1.566-3.307,2.438-5.715,2.925l-1.103,0.223
			l-25.716,0.049l-25.716,0.049L192.908,192.929L192.908,192.929z M233.039,174.844c2.133-0.143,3.293-0.432,4.952-1.234
			c1.81-0.875,2.538-1.709,3.841-4.399c1.674-3.455,6.026-13.661,8.796-20.628c5.902-14.846,6.356-16.573,4.727-18.004
			c-0.255-0.224-0.75-0.502-1.099-0.618l-0.635-0.211l-6.948,0.034l-6.948,0.034l-1.299,3.193
			c-2.91,7.15-12.743,31.539-15.173,37.633c-0.894,2.242-1.591,4.133-1.548,4.203C221.806,175.01,230.589,175.008,233.039,174.844
			L233.039,174.844z M305.951,193.071c-6.305-0.359-8.788-1.002-11.427-2.959c-1.341-0.994-3.604-2.943-4.3-3.703
			c-0.866-0.946-1.572-2.543-2.205-4.986l-0.371-1.433l-0.004-2.476l-0.004-2.476l0.418-1.564
			c0.979-3.662,3.274-11.305,4.167-13.879c1.45-4.178,5.364-14.025,8.547-21.502c0.32-0.753,1.064-2.512,1.653-3.91
			c1.19-2.825,4.021-9.424,5.675-13.227c5.78-13.297,6.326-14.505,7.71-17.071c2.911-5.397,5.378-8.156,8.97-10.028
			c2.3-1.199,5.93-2.489,8.405-2.988c2.689-0.542,2.498-0.538,24.065-0.538c11.408,0,20.782,0.04,20.831,0.089
			c0.049,0.049-0.013,0.401-0.139,0.782c-0.197,0.598-6.571,16.566-7.36,18.439l-0.284,0.675l-16.461,0.042l-16.461,0.042
			l-0.355,0.326c-0.558,0.512-1.505,2.037-2.105,3.389c-0.302,0.681-1.399,3.378-2.437,5.994c-1.038,2.616-2.234,5.607-2.658,6.646
			c-0.424,1.039-2.046,5.056-3.605,8.927c-4.967,12.332-7.723,19.146-9.921,24.523c-2.605,6.374-3.176,8.013-3.178,9.125
			c-0.002,0.947,0.43,2.267,0.978,2.986c0.437,0.573,1.551,1.109,3.163,1.52l1.135,0.29l16.066-0.048l16.066-0.048l-0.275,0.7
			c-0.268,0.681-1.56,3.865-2.795,6.89c-0.898,2.199-4.153,9.978-4.54,10.849l-0.333,0.749l-17.372-0.019
			C315.658,193.187,306.991,193.13,305.951,193.071z M479.794,193.167c0-0.059,2.107-5.195,2.545-6.206
			c0.171-0.394,2.008-4.792,4.081-9.774s5.396-12.927,7.383-17.658c1.987-4.73,4.597-10.947,5.8-13.814
			c3.578-8.528,6.186-14.734,9.061-21.567c1.493-3.548,3.364-8.005,4.158-9.904l1.444-3.453l10.079-0.033l10.079-0.033l-0.077,0.305
			c-0.042,0.168-0.661,1.737-1.374,3.487c-1.5,3.678-15.056,36.927-16.519,40.517c-0.54,1.326-2.359,5.783-4.042,9.904
			c-2.93,7.175-3.951,9.67-9.079,22.179c-1.255,3.06-2.345,5.684-2.424,5.832l-0.143,0.268H490.28
			C484.512,193.216,479.794,193.194,479.794,193.167L479.794,193.167z M508.159,193.119c-0.057-0.094,2.358-6.162,5.873-14.758
			l1.678-4.105l5.792-0.08c3.185-0.044,10.531-0.088,16.323-0.098l10.531-0.018l0.701-0.332c0.873-0.413,2.315-1.919,2.916-3.047
			c0.507-0.952,1.189-3.535,1.189-4.506c0-1.242-0.921-3.629-1.671-4.331c-0.65-0.608-7.167-4.893-10.774-7.083
			c-6.128-3.722-10.52-7.101-11.286-8.683l-0.285-0.589l0.083-2.232c0.1-2.705,0.261-3.55,1.208-6.332
			c1.763-5.18,3.195-8.603,5.7-13.623c4.313-8.645,6.268-10.956,10.353-12.236l1.082-0.339h23.646
			c13.005,0,23.646,0.033,23.646,0.073c0,0.278-6.956,17.099-7.152,17.296c-0.068,0.068-5.9,0.169-13.718,0.237
			c-15.449,0.134-18.438,0.229-19.291,0.61c-0.658,0.294-2.567,2.225-2.948,2.982c-0.372,0.739-0.597,1.813-0.602,2.864
			l-0.004,0.929l0.553,1.117c0.905,1.827,1.608,2.397,6.933,5.624c4.775,2.894,12.637,8.195,13.722,9.252
			c0.94,0.916,2.728,5.12,3.099,7.287c0.1,0.583,0.13,1.73,0.086,3.258l-0.068,2.358l-0.333,1.118
			c-0.436,1.464-1.13,3.067-3.209,7.418c-2.667,5.58-5.758,11.573-6.66,12.915c-1.407,2.093-3.652,4.221-5.606,5.314
			c-1.616,0.904-4.045,1.539-6.547,1.712C551.064,193.231,508.244,193.259,508.159,193.119L508.159,193.119z M568.018,193.143
			c0-0.177,8.459-20.355,17.697-42.215c14.402-34.078,16.952-40.101,17-40.149c0.03-0.03,12.339-0.04,27.354-0.021l27.3,0.033
			l-2.559,6.711c-1.407,3.691-2.897,7.576-3.31,8.633l-0.752,1.922l-17.029,0.013c-9.366,0.007-17.166,0.052-17.335,0.099
			c-0.358,0.101-0.211-0.238-3.007,6.925c-2.729,6.994-2.784,7.144-2.699,7.366l0.074,0.192h13.21
			c14.354,0,18.725,0.076,18.725,0.325c0,0.236-4.169,10.534-5.764,14.238l-0.519,1.205h-15.868c-8.727,0-16.057,0.038-16.288,0.084
			c-0.344,0.069-0.467,0.193-0.68,0.684c-0.689,1.588-3.02,7.223-4.291,10.373l-1.419,3.518l0.346,0.092
			c0.19,0.051,6.714,0.152,14.498,0.226c17.073,0.161,20.342,0.235,20.342,0.466c0,0.248-7.279,18.043-7.766,18.984l-0.19,0.368
			h-28.536C580.859,193.216,568.018,193.184,568.018,193.143z"/>
	</g>
</g>
<g id="Layer_3">
	<path d="M353.485,32.921c-16.287-10.204-28.292-45.414-28.292-87.259c0-1.535,0.007-3.052,0.045-4.561l0.013,0.02
		c-45.311-7.12-78.046-26.626-78.89-49.703l-0.13,0.272c-11.085,13.78-17.415,29.71-17.415,46.684
		c0,49.95,54.828,90.874,124.375,94.496L353.485,32.921z M207.867-57.987c0-55.884,69.553-101.201,155.349-101.201
		c85.802,0,155.356,45.318,155.356,101.201c0,55.89-69.553,101.208-155.356,101.208C277.421,43.221,207.867-2.095,207.867-57.987
		L207.867-57.987z M363.223-144.585c16.566,0,30.657,25.13,35.878,60.192l0.013-0.058c32.231-5.015,54.789-16.585,54.789-30.054
		c0-18.068-40.602-32.704-90.68-32.704c-50.072,0-90.674,14.635-90.674,32.704c0,13.469,22.559,25.033,54.783,30.054l0.02,0.058
		C332.572-119.455,346.663-144.585,363.223-144.585L363.223-144.585z M373.251,32.862c69.547-3.622,124.381-44.546,124.381-94.496
		c0-16.974-6.336-32.904-17.415-46.684l-0.135-0.272c-0.835,23.076-33.572,42.583-78.89,49.703l0.02-0.02
		c0.032,1.51,0.045,3.025,0.045,4.561c0,41.845-12.011,77.056-28.292,87.259L373.251,32.862z M363.223-81.795
		c7.19,0.008,14.378-0.299,21.541-0.92l-0.007,0.007c-3.433-22.468-11.779-38.333-21.528-38.333
		c-9.751,0-18.088,15.866-21.528,38.333l-0.007-0.007C348.853-82.097,356.037-81.79,363.223-81.795L363.223-81.795z M363.223,1.428
		c12.471,0,22.649-25.953,23.187-58.495l0.065,0.02c-15.467,1.425-31.03,1.425-46.497,0l0.065-0.02
		C340.581-24.525,350.751,1.428,363.223,1.428z"/>
</g>
</svg>
