<?xml version="1.0" encoding="utf-8"?>
<!-- Generator: Adobe Illustrator 17.0.0, SVG Export Plug-In . SVG Version: 6.00 Build 0)  -->
<!DOCTYPE svg PUBLIC "-//W3C//DTD SVG 1.1//EN" "http://www.w3.org/Graphics/SVG/1.1/DTD/svg11.dtd">
<svg version="1.1" id="Layer_1" xmlns="http://www.w3.org/2000/svg" xmlns:xlink="http://www.w3.org/1999/xlink" x="0px" y="0px"
	 width="2500px" height="969.097px" viewBox="0 763.27 2500 969.097" enable-background="new 0 763.27 2500 969.097"
	 xml:space="preserve">
<g>
	<path fill="#B01842" d="M2281.239,1614.256c-30.401-15.888-35.109-60.802-34.422-169.969l0.687-167.336l-57.651-0.078
		l12.944-31.011h44.707v-79.245l107.104-39.623l-0.026,116.222l49.091,0.091l-12.97,34.331l-36.095-0.052l-0.182,289.589
		c2.361,23.333,10.207,37.055,21.374,47.067h-94.563L2281.239,1614.256L2281.239,1614.256z M1228.833,898.662
		c8.184,22.412,26.692,45.55,13.527,71.515c-6.407,26.329-31.322,47.69-57.651,51.944c-27.405,2.49-53.734-2.127-74.031-18.858
		c-14.591-76.146,16.381-146.61,76.509-188.593L1228.833,898.662L1228.833,898.662z"/>
	<path fill="#B01842" d="M1335.056,1130.665c-13.709,46.082-149.814,15.836-192.51-59.778
		c56.042,6.225,119.205-43.41,120.269-99.984L1335.056,1130.665z M1390.735,1124.699c6.225-2.763,18.793-8.988,21.893-22.334
		l-146.429-317.591c-9.779-1.245-16.913-2.14-29.364,6.757L1390.735,1124.699z M1456.569,1055.752
		c62.294-94.303,9.805-249.097-124.354-270.796L1456.569,1055.752z M1442.834,1258.806c19.61-16.472,54.162-16.861,76.496-6.277
		c9.429,4.708,18.443,10.998,24.318,19.221l-43.137,67.106c-5.499-4.332-9.429-6.277-16.485-9.805
		c-21.374-9.222-43.929-3.826-56.898,7.834v195.792c-0.272,33.838,5.603,64.719,23.151,80.802h-98.077
		c-20.388-15.68-25.486-40.79-27.457-62.774l-0.791-260.303c0.882-21.076-4.514-30.401-12.944-42.178l101.605,0.402
		c8.262,5.875,8.638,16.082,12.97,23.942L1442.834,1258.806L1442.834,1258.806z M1566.812,1323.149
		c-0.791-24.72,4.708-54.33-11.478-75.718h94.264c6.277,4.708,9.805,12.568,11.776,20.012c5.097,6.666,4.708,16.082,7.043,23.942
		l0.791,277.384c3.93,16.472,10.207,33.138,22.373,46.082l-100.814,0.208c-32.956-31.867-22.165-84.355-24.72-138.491
		L1566.812,1323.149z M1715.913,1325.899c10.181-28.274,41.97-42.385,65.121-57.677c35.291-12.944,74.148-45.122,113.758-18.819
		c32.956,21.556,61.983,45.9,82.786,79.232c5.097,12.944,7.445,27.457,10.998,41.192c0,18.443,3.904,32.165,3.515,50.608
		c1.167,20.012,1.167,38.079,0,57.677c-1.193,33.332-16.874,63.15-43.163,86.301c-39.233,34.928-88.661,74.55-142.006,47.469
		c-47.871-22.373-104.368-66.703-100.84-127.493c-1.945-43.163-3.904-80.426,1.971-122.422
		C1710.413,1349.815,1709.22,1336.495,1715.913,1325.899L1715.913,1325.899z M1813.964,1522.067
		c4.708,17.25,13.735,38.429,34.526,40.79c12.166,0.402,21.205-9.805,28.248-18.443c21.984-43.137,18.845-90.231,18.845-139.269
		c-7.068-36.471,1.569-86.301-37.664-108.674c-13.735-5.097-24.318,4.332-32.956,12.944c-15.304,23.151-17.068,49.622-18.041,79.064
		C1801.811,1435.571,1807.31,1474.597,1813.964,1522.067L1813.964,1522.067z M2061.933,1614.256
		c-30.427-15.888-35.109-60.802-34.422-169.969l0.687-167.336l-57.677-0.078l12.944-31.011h44.733v-79.245l107.104-39.623
		l-0.052,116.222l49.091,0.091l-12.944,34.331l-36.095-0.052l-0.208,289.589c2.361,23.333,10.207,37.055,21.374,47.067h-94.537
		L2061.933,1614.256L2061.933,1614.256z M1082.677,1290.388c-0.635-21.128-4.513-30.401-12.944-42.178l101.605,0.402
		c8.249,5.875,8.638,16.082,12.957,23.942l17.263-13.761c19.61-16.472,54.136-16.861,76.496-6.277
		c9.429,4.708,18.443,10.998,24.318,19.221l-43.137,67.105c-5.499-4.332-9.429-6.277-16.485-9.805
		c-21.374-9.222-43.942-3.826-56.898,7.834v195.792c-0.285,33.838,5.603,64.719,23.164,80.802h-98.077
		c-20.401-15.68-26.212-39.065-27.47-62.774L1082.677,1290.388L1082.677,1290.388z M314.102,1393.394l-37.132,75.938
		c-25.213,44.811-60.582,99.802-114.847,113.459c-21.011,7.341-39.558,0.688-59.881-0.713l-65.471,107.156
		c4.903,5.24,11.815,9.676,18.56,12.257c115.21,43.928,161.59-3.346,275.05-259.655l107.143,228.32h142.693l-67.404-154.094
		l38.157-79.647l105.392,230.213l136.559,0.882l-238.968-525.224l-110.087,54.707l86.262,196.012l-37.82,77.027L334.218,1128.72
		l-115.989,59.09L314.102,1393.394L314.102,1393.394z M752.726,1485.972c2.75-38.079,23.54-73.772,58.857-92.993
		c34.915-21.582,75.717-30.22,111.812-49.039c6.277-5.097,14.124-11.374,14.513-19.61c0.389-10.207-4.708-18.067-13.735-21.582
		c-54.927-11.776-100.438,22.749-140.45,56.898c5.097-25.135,9.014-52.592,20.791-76.12c5.888-6.277,9.416-14.915,17.263-19.61
		c38.844-19.234,87.494-24.72,131.047-21.595c35.706,2.348,68.662,27.846,80.815,60.426c6.277,15.304,5.888,32.554,7.056,48.26
		l0.402,212.639c0.389,18.443,9.014,35.719,19.999,50.608H959.477c-12.166-10.998-18.145-24.72-21.569-41.97
		c-28.443,25.109-87.792,62.397-123.187,37.664C778.03,1593.452,744.49,1538.136,752.726,1485.972L752.726,1485.972z
		 M932.798,1412.005c-0.778-14.721-11.374-16.264-18.832-16.264c-24.318,3.515-45.264,23.89-56.885,44.707
		c-10.402,18.651-12.853,34.318-13.735,50.608c-0.091,17.561-1.18,30.596,5.888,43.955c3.917,8.612,12.555,12.542,20.803,14.889
		c15.68,3.139,30.22-1.167,42.372-9.403c28.637-16.108,23.527-48.286,23.929-76.911L932.798,1412.005L932.798,1412.005z
		 M2449.963,1564.828c5.097,5.214,7.652,11.349,7.652,18.443c0,7.289-2.555,13.553-7.704,18.767
		c-5.123,5.188-11.297,7.782-18.547,7.782s-13.45-2.581-18.573-7.73c-5.074-4.932-7.881-11.744-7.756-18.819
		c0-7.12,2.529-13.242,7.626-18.443c5.136-5.318,11.375-7.95,18.689-7.95C2438.614,1556.878,2444.801,1559.51,2449.963,1564.828
		L2449.963,1564.828z M2453.892,1560.755c-5.898-6.08-14.045-9.455-22.515-9.325c-8.378,0-15.68,2.892-21.906,8.638
		c-6.615,6.187-9.935,13.904-9.935,23.203c0,8.962,3.061,16.51,9.196,22.645c6.161,6.161,13.709,9.221,22.645,9.221
		c8.69,0,16.108-3.009,22.321-8.988c6.252-5.948,9.717-14.251,9.546-22.879C2463.243,1574.477,2460.131,1566.981,2453.892,1560.755z
		 M2435.333,1580.872c-1.518,0.941-3.288,1.394-5.071,1.297h-3.593v-10.233h2.257c2.308,0,4.072,0.233,5.369,0.739
		c1.894,0.739,2.84,2.075,2.84,4.008C2437.122,1578.615,2436.513,1580.003,2435.333,1580.872L2435.333,1580.872z M2426.669,1588.524
		h1.946l2.023,0.13c1.078,0.018,2.146,0.206,3.165,0.558c1.205,0.427,2.154,1.375,2.581,2.581c0.298,0.765,0.48,2.205,0.558,4.332
		c0.104,2.127,0.272,3.748,0.584,4.89h8.819l-0.298-0.986c-0.236-0.666-0.341-1.37-0.311-2.075v-3.165
		c0-3.593-1.038-6.226-3.113-7.899c-1.497-1.049-3.214-1.741-5.019-2.023c2.225-0.182,4.349-1.012,6.109-2.386
		c1.673-1.323,2.477-3.476,2.477-6.433c0-3.904-1.543-6.718-4.682-8.43c-2.166-1.096-4.54-1.72-6.965-1.829
		c-2.429-0.049-4.859-0.066-7.289-0.052c-4.358-0.026-7.626-0.026-9.831-0.026v35.317h9.247V1588.524z"/>
</g>
</svg>
