<?xml version="1.0" encoding="utf-8"?>
<!-- Generator: Adobe Illustrator 17.0.0, SVG Export Plug-In . SVG Version: 6.00 Build 0)  -->
<!DOCTYPE svg PUBLIC "-//W3C//DTD SVG 1.1//EN" "http://www.w3.org/Graphics/SVG/1.1/DTD/svg11.dtd">
<svg version="1.1" id="Layer_1" xmlns="http://www.w3.org/2000/svg" xmlns:xlink="http://www.w3.org/1999/xlink" x="0px" y="0px"
	 width="2500px" height="741.074px" viewBox="0 883.282 2500 741.074" enable-background="new 0 883.282 2500 741.074"
	 xml:space="preserve">
<g>
	<path d="M2117.262,892.151c-191.07,0-345.981,154.898-345.981,345.981s154.898,345.981,345.981,345.981
		s345.981-154.898,345.981-345.981S2308.346,892.151,2117.262,892.151z M2117.262,1441.369
		c-142.084-0.597-257.619-93.888-318.771-205.713c61.762-111.216,177.906-201.407,318.771-201.407
		c143.329,0,258.228,89.582,318.771,201.407C2375.49,1347.481,2261.836,1441.991,2117.262,1441.369z"/>
	<path d="M2117.262,1421.603c101.32,0,183.458-82.15,183.458-183.47c0-101.333-82.125-183.47-183.458-183.47
		s-183.47,82.138-183.47,183.47C1933.792,1339.452,2015.943,1421.603,2117.262,1421.603L2117.262,1421.603z M610.253,910.529h309.51
		c131.461,0,222.989,80.711,222.989,163.069c0,61.567-23.294,119.815-153.095,148.102c49.921,6.653,186.376,43.254,186.376,173.056
		s-143.108,193.042-241.29,193.042H610.253v-6.667h321.157c76.548,0,124.808-31.62,124.808-176.389
		c0-144.781-53.254-178.062-119.815-179.722h-99.841v-6.641h105.665c43.267,0,89.024-6.654,89.024-146.442
		S976.338,917.17,918.091,917.17H836.55v663.961H713.402V917.183H610.227v-6.654H610.253z M173.224,1253.411
		c0-256.27,74.874-347.784,163.069-347.784c124.808,0,193.029,184.715,214.663,256.27V913.94
		c-21.634,16.64-31.62,24.967-54.914,24.967s-58.247-11.647-74.887-21.634c-16.64-9.987-49.921-18.3-83.201-18.3
		c-109.828,0-301.197,144.769-301.197,354.438c0,247.943,169.735,354.451,301.197,354.451c33.28,0,69.894-13.307,86.534-23.307
		c16.64-9.987,48.26-23.294,71.554-23.294s33.28,8.327,54.914,24.967v-249.616c-18.313,96.521-89.855,264.583-214.663,264.583
		c-35.771,0-84.861-16.64-107.325-39.934C222.055,1554.089,173.224,1519.642,173.224,1253.411L173.224,1253.411z M1619.444,1454.533
		c-1.647,54.914-43.267,128.141-129.802,126.468c-86.534-1.66-191.356-66.561-231.303-241.29v236.296
		c16.64-14.967,44.94-41.594,89.88-21.634c44.914,19.974,111.488,33.281,141.422,33.281c29.973,0,194.702-31.62,201.356-221.316
		c1.673-94.848-66.574-143.108-108.168-158.089c-48.26-18.313-116.468-39.934-156.428-53.254
		c-39.921-13.307-104.822-54.901-103.175-131.462c1.673-76.548,48.26-118.142,111.514-118.142
		c63.228,0,148.089,49.921,191.356,226.309V897.08c-24.954,21.634-44.94,31.62-59.907,31.62c-13.294,0-51.983-15.188-71.541-21.219
		c-21.634-6.654-42.865-9.157-69.92-8.729c-47.417,0.726-158.906,58.234-166.402,213.002
		c-5.46,113.07,78.221,156.428,116.495,169.722c33.28,11.647,129.801,46.6,158.075,58.247
		C1561.209,1351.359,1622.79,1391.305,1619.444,1454.533L1619.444,1454.533z"/>
</g>
</svg>
