<?xml version="1.0" encoding="utf-8"?>
<!-- Generator: Adobe Illustrator 17.0.0, SVG Export Plug-In . SVG Version: 6.00 Build 0)  -->
<!DOCTYPE svg PUBLIC "-//W3C//DTD SVG 1.1//EN" "http://www.w3.org/Graphics/SVG/1.1/DTD/svg11.dtd">
<svg version="1.1" id="Layer_1" xmlns="http://www.w3.org/2000/svg" xmlns:xlink="http://www.w3.org/1999/xlink" x="0px" y="0px"
	 width="2500px" height="436px" viewBox="2 1027 2500 436" enable-background="new 2 1027 2500 436" xml:space="preserve">
<g>
	<path fill="#CC2229" d="M310.754,1427.992c-32.606-20.427-56.639-90.918-56.639-174.69c0-3.074,0.013-6.109,0.091-9.131
		l0.026,0.039c-90.711-14.254-156.247-53.306-157.933-99.504l-0.259,0.545c-22.191,27.587-34.863,59.479-34.863,93.46
		c0,99.997,109.763,181.927,248.994,189.177L310.754,1427.992z M19.233,1246c0-111.877,139.243-202.601,311.002-202.601
		c171.772,0,311.015,90.724,311.015,202.601c0,111.89-139.243,202.614-311.015,202.614C158.476,1448.614,19.233,1357.89,19.233,1246
		L19.233,1246z M330.248,1072.633c33.164,0,61.373,50.31,71.827,120.502l0.026-0.117c64.525-10.039,109.685-33.203,109.685-60.167
		c0-36.173-81.282-65.471-181.538-65.471c-100.243,0-181.525,29.299-181.525,65.471c0,26.964,45.161,50.115,109.672,60.167
		l0.039,0.117C268.888,1122.943,297.097,1072.633,330.248,1072.633L330.248,1072.633z M350.325,1427.875
		c139.23-7.25,249.007-89.18,249.007-189.177c0-33.981-12.684-65.873-34.863-93.46l-0.272-0.545
		c-1.673,46.198-67.209,85.25-157.933,99.504l0.039-0.039c0.065,3.022,0.091,6.057,0.091,9.131
		c0,83.772-24.046,154.262-56.639,174.69L350.325,1427.875z M330.248,1198.336c14.395,0.017,28.784-0.597,43.124-1.842l-0.013,0.013
		c-6.874-44.979-23.579-76.742-43.099-76.742s-36.212,31.763-43.099,76.742l-0.013-0.013
		C301.482,1197.733,315.862,1198.347,330.248,1198.336L330.248,1198.336z M330.248,1364.946c24.967,0,45.342-51.957,46.419-117.104
		l0.13,0.039c-30.962,2.853-62.122,2.853-93.084,0l0.13-0.039C284.918,1312.989,305.281,1364.946,330.248,1364.946z M1606.239,1246
		c0-85.51,69.336-154.846,154.846-154.846c85.548,0,154.872,69.336,154.872,154.846c0,85.536-69.336,154.846-154.872,154.846
		C1675.575,1400.846,1606.239,1331.536,1606.239,1246L1606.239,1246z M1761.085,1344.064c47.755,0,86.482-43.916,86.482-98.077
		c0-54.149-38.728-98.064-86.482-98.064s-86.456,43.916-86.456,98.064C1674.629,1300.162,1713.343,1344.064,1761.085,1344.064z
		 M2091.672,1155.666v238.151h-65.264v-238.151h0.234H1935.4v-53.838h247.281v53.838H2091.672z M2261.615,1328.125l-0.052,0.065
		l-25.031,65.64h-76.223l120.476-292.001H2362l120.45,292.001h-76.197l-25.032-65.64l-0.078-0.065H2261.615z M2321.392,1278.839
		h41.062l-0.026,0.013l-40.764-106.871h-0.558l-40.764,106.871l-0.026-0.013H2321.392z M888.946,1155.666v238.151h-65.251v-238.151
		h0.233h-91.255v-53.838h247.295v53.838H888.946L888.946,1155.666z M996.66,1246c0-85.51,69.336-154.846,154.872-154.846
		c85.523,0,154.859,69.336,154.859,154.846c0,85.536-69.336,154.846-154.859,154.846C1065.997,1400.846,996.66,1331.536,996.66,1246
		z M1151.532,1344.064c47.742,0,86.469-43.916,86.469-98.077c0-54.149-38.728-98.064-86.469-98.064
		c-47.755,0-86.469,43.916-86.469,98.064C1065.063,1300.162,1103.777,1344.064,1151.532,1344.064z M1456.296,1393.816h33.086
		v-110.865l113.836-181.123h-76.197l-70.724,122.733l-70.698-122.733H1309.4l113.823,181.123v110.866L1456.296,1393.816
		L1456.296,1393.816z"/>
</g>
</svg>
