<?xml version="1.0" encoding="utf-8"?>
<!-- Generator: Adobe Illustrator 17.0.0, SVG Export Plug-In . SVG Version: 6.00 Build 0)  -->
<!DOCTYPE svg PUBLIC "-//W3C//DTD SVG 1.1//EN" "http://www.w3.org/Graphics/SVG/1.1/DTD/svg11.dtd">
<svg version="1.1" id="Layer_1" xmlns="http://www.w3.org/2000/svg" xmlns:xlink="http://www.w3.org/1999/xlink" x="0px" y="0px"
	 width="1635.164px" height="2166.217px" viewBox="436.238 163.21 1635.164 2166.217"
	 enable-background="new 436.238 163.21 1635.164 2166.217" xml:space="preserve">
<g>
	<path d="M2012.765,223.054c-26.147-26.16-56.898-39.234-93.499-39.234H581.383c-36.614,0-68,13.074-93.499,39.234
		c-26.16,25.499-39.221,56.885-39.221,93.499v1258.093c0,36.601,13.074,67.987,39.221,93.499
		c25.512,26.173,56.898,38.585,93.499,38.585h1337.883c36.601,0,67.352-12.412,93.499-38.585
		c26.173-25.512,38.585-56.898,38.585-93.499V316.566C2051.35,279.939,2038.938,248.553,2012.765,223.054L2012.765,223.054z"/>
	<path fill="#E6C337" d="M2009.509,316.566c0-24.85-9.144-45.77-26.795-64.084c-17.016-17.652-38.585-26.16-63.435-26.16H581.383
		c-25.499,0-46.419,8.508-64.071,26.16c-17.652,18.313-26.16,39.234-26.16,64.084v1258.093c0,24.85,8.508,46.406,26.16,64.084
		c17.652,17.652,38.585,26.147,64.071,26.147h1337.883c24.85,0,46.406-8.482,63.435-26.147
		c17.652-17.678,26.795-39.234,26.795-64.084V316.566H2009.509z"/>
	<path d="M1953.273,282.546c-9.805-9.144-20.92-13.722-33.994-13.722H581.383c-13.074,0-24.85,4.578-33.994,13.722
		c-9.157,9.17-14.383,20.933-14.383,34.02v1258.093c0,13.074,5.227,24.85,14.383,33.994c9.157,9.17,20.92,13.735,33.994,13.735
		h1337.883c13.073,0,24.189-4.565,33.994-13.735c9.144-9.144,13.735-20.92,13.735-33.994V316.566
		C1966.995,303.48,1962.416,291.716,1953.273,282.546L1953.273,282.546z"/>
	<path fill="#E6C337" d="M1868.917,796.525H1410.54l-142.564-432.879l-145.158,432.879H660.511l377.952,266.127l-141.241,433.553
		l368.795-264.181l375.345,270.692l-138.621-444.63L1868.917,796.525L1868.917,796.525z"/>
	<path d="M1717.197,839.675h-343.284L1267.34,515.341l-108.557,324.335H812.219l282.481,199.436l-105.276,324.335l276.593-197.478
		l280.523,202.717l-103.33-332.843L1717.197,839.675z"/>
	<path fill="#FFFFFF" d="M1398.763,1026.038l207.283-147.791h-258.941l-80.426-244.545l-81.735,244.545H923.382l213.171,150.41
		l-79.128,244.558l207.931-149.1l211.874,153.03L1398.763,1026.038L1398.763,1026.038z"/>
	<path d="M581.383,1747.3c-36.614,0-68,13.073-93.499,39.208c-26.16,25.511-39.221,56.898-39.221,93.499v304.076
		c0,35.965,13.074,67.352,39.221,92.864c25.512,26.147,56.898,39.208,93.499,39.208h1337.883c36.601,0,67.352-13.073,93.499-39.208
		c26.173-25.511,38.585-56.898,38.585-92.864v-304.076c0-36.601-12.412-67.988-38.585-93.499
		c-26.147-26.147-56.898-39.208-93.499-39.208L581.383,1747.3L581.383,1747.3z"/>
	<path fill="#E6C337" d="M517.312,1815.949c-17.652,17.652-26.16,39.233-26.16,64.058v304.076c0,24.85,8.508,45.771,26.16,63.435
		c17.652,17.665,38.585,26.173,64.071,26.173h1337.883c24.85,0,46.406-8.508,63.435-26.173
		c17.652-17.652,26.795-38.585,26.795-63.435v-304.076c0-24.824-9.144-46.406-26.795-64.058
		c-17.016-17.652-38.585-26.173-63.435-26.173H581.383C555.884,1789.776,534.964,1798.284,517.312,1815.949z"/>
	<path d="M581.383,1832.277c-13.074,0-24.85,4.591-33.994,13.735c-9.157,9.17-14.383,20.92-14.383,33.994v304.076
		c0,13.073,5.227,24.189,14.383,33.358c9.157,9.805,20.92,14.357,33.994,14.357h1337.883c13.073,0,24.189-4.565,33.994-14.357
		c9.144-9.17,13.735-20.285,13.735-33.358v-304.076c0-13.073-4.591-24.824-13.735-33.994c-9.805-9.144-20.92-13.735-33.994-13.735
		H581.383z"/>
	<path fill="#FFFFFF" d="M1470.045,2011.455v-68.649l-40.557-37.924h-103.966v262.871h60.167v-105.276h25.512v105.276h58.844
		v-105.276l-30.725-25.511L1470.045,2011.455L1470.045,2011.455z M630.434,1904.882v224.286l40.543,38.585h68l39.234-38.585
		v-224.286h-60.815v213.171h-26.16v-213.171H630.434L630.434,1904.882z M1411.201,1953.921v59.505h-25.512v-59.505H1411.201z
		 M1689.078,1904.882h-71.256l-19.636,126.857h-5.214l-21.582-126.857h-70.62v262.871h54.914v-166.752h2.633l25.485,166.752h22.243
		l25.511-166.752h2.607v166.752h54.914L1689.078,1904.882L1689.078,1904.882z M1796.339,1999.704h-0.661l-21.582-94.822h-60.167
		l51.646,152.343v110.515h60.815v-110.515l52.333-152.343h-60.193L1796.339,1999.704L1796.339,1999.704z M859.286,2167.754v-51.023
		h-60.802v51.023H859.286z M1051.537,2116.73v51.023h60.154v-51.023H1051.537z M1030.617,1942.806l-42.502-37.924h-64.084
		l-39.234,37.924v79.116l41.853,37.923l43.163,3.269v54.94h-24.85v-34.655h-60.167v45.771l39.234,38.585h66.703l39.895-38.585
		v-79.79l-41.205-37.923l-44.46-3.93v-53.604h24.85v35.317h60.815v-46.432L1030.617,1942.806L1030.617,1942.806z M1262.101,1904.882
		h-87.624l-36.626,262.871h58.857l5.227-49.039h34.655l5.24,49.039h58.844L1262.101,1904.882L1262.101,1904.882z M1205.864,2069.663
		l9.157-109.206h5.888l11.115,109.206H1205.864L1205.864,2069.663z"/>
</g>
</svg>
