<?xml version="1.0" encoding="utf-8"?>
<!-- Generator: Adobe Illustrator 17.0.0, SVG Export Plug-In . SVG Version: 6.00 Build 0)  -->
<!DOCTYPE svg PUBLIC "-//W3C//DTD SVG 1.1//EN" "http://www.w3.org/Graphics/SVG/1.1/DTD/svg11.dtd">
<svg version="1.1" id="Layer_1" xmlns="http://www.w3.org/2000/svg" xmlns:xlink="http://www.w3.org/1999/xlink" x="0px" y="0px"
	 width="2500px" height="1508px" viewBox="0 490.5 2500 1508" enable-background="new 0 490.5 2500 1508" xml:space="preserve">
<g>
	<path fill="#CC2131" d="M252.327,1703.903L186.7,1894.416l-67.132-190.513H36.756l102.357,278.578h90.918l102.941-278.578H252.327z
		 M753.336,1843.535c0-41.581,33.708-75.29,75.289-75.29c41.581,0,75.289,33.708,75.29,75.289c0,41.581-33.708,75.29-75.289,75.29
		c-0.004,0-0.009,0-0.013,0C787.042,1918.803,753.35,1885.106,753.336,1843.535z M900.737,1590.314v136.766
		c-0.156-0.078-0.259-0.182-0.376-0.272c-22.879-16.9-50.854-27.431-81.139-27.431c-77.001,0-139.425,64.317-139.425,143.679
		c0,79.336,62.41,143.653,139.425,143.653c30.453,0,58.61-10.051,81.515-27.107v23.255h71.593v-392.543L900.737,1590.314
		L900.737,1590.314z M1093.87,1843.535c0.771-41.574,35.099-74.651,76.673-73.88c40.487,0.751,73.129,33.392,73.88,73.88
		c-0.007,41.583-33.719,75.289-75.302,75.289C1127.557,1918.796,1093.877,1885.098,1093.87,1843.535z M1241.245,1704.201v22.879
		l-0.376-0.272c-22.827-16.9-50.867-27.431-81.139-27.431c-77.001,0-139.425,64.317-139.425,143.679
		c0,79.336,62.411,143.653,139.425,143.653c30.453,0,58.584-10.052,81.515-27.107v23.255h71.619v-278.642h-71.619L1241.245,1704.201
		L1241.245,1704.201z M1507.995,1704.201h-42.891c0,0-0.156-8.923-0.156-16.925c0-17.652,0-40.077,28.118-40.077
		c7.224,0,14.163,1.219,14.163,1.219v-64.797c0,0-11.75-0.324-19.753,0c-65.834,2.555-94.822,25.032-94.822,90.84v29.74h-32.048
		v64.213h32.048v214.001h72.449v-214.001h42.891V1704.201L1507.995,1704.201z M1941.366,1728.481
		c20.337-18.521,50.024-30.064,81.891-30.064c65.64,0,103.226,41.802,103.408,97.001l0.026,31.205v155.871h-73.889v-162.602
		c0-40.933-28.521-53.397-51.075-53.397c-20.778,0-60.491,11.452-58.26,61.425v154.573h-74.018v-278.292h71.917L1941.366,1728.481
		L1941.366,1728.481z M2251.603,1865.143c3.515,34.979,32.775,60.491,68.623,60.491c28.274,0,47.015-11.167,58.13-31.465h77.365
		c-12.386,43.371-61.152,92.41-133.018,92.41c-86.482,0-147.427-64.395-147.427-143.835s65.329-143.861,147.427-143.861
		c82.125,0,140.54,70.011,140.54,143.861c0,15.382-1.725,22.295-1.725,22.295L2251.603,1865.143z M2385.166,1811.306
		c-6.251-31.594-32.749-49.778-64.953-49.778c-33.228,0-59.22,19.351-66.703,49.571L2385.166,1811.306L2385.166,1811.306z
		 M544.354,1708.131c-27.043,5.929-46.337,29.849-46.406,57.534c0,0.61,0.156,1.349,0.169,1.92
		c41.84,8.923,62.942,37.132,62.942,74.304c0,41.802-34.175,75.692-75.964,75.692s-80.828-34.876-80.828-86.56
		c0-63.098,54.097-122.331,131.202-124.173c1.375-0.026,3.58,0.026,5.823,0.13c-17.469-6.641-36.005-10.03-54.694-10
		c-82.721,0-149.775,64.901-149.775,144.924c0,80.049,67.054,144.924,149.775,144.924c82.734,0,149.788-64.875,149.788-144.924
		C636.388,1781.67,598.399,1730.05,544.354,1708.131L544.354,1708.131z M1673.904,1698.183
		c-82.734,0-149.814,64.875-149.814,144.924c0,60.219,38.001,111.864,92.085,133.731c27.026-5.925,46.302-29.84,46.354-57.508
		c0-0.61-0.13-1.323-0.156-1.92c-41.853-8.897-62.955-37.106-62.955-74.304c0-41.828,34.175-75.666,75.964-75.666
		s80.828,34.837,80.828,86.534c0,63.124-54.11,122.305-131.189,124.198c-1.942,0.002-3.884-0.049-5.823-0.156
		c16.926,6.433,35.369,10,54.693,10c82.708,0,149.762-64.901,149.762-144.924
		C1823.666,1763.058,1756.612,1698.183,1673.904,1698.183L1673.904,1698.183z M1430.954,547.804
		c-84.2,18.534-147.635,94.031-147.635,184.404c0,1.945,0.454,4.254,0.532,6.2c133.148,28.534,200.292,118.907,200.292,238.19
		c0,133.965-108.752,242.612-241.73,242.612c-132.953,0-257.165-111.773-257.165-277.501c0-202.328,172.122-392.115,417.393-398.133
		c4.436-0.091,11.426,0.078,18.599,0.389c-55.561-21.211-114.543-32.043-174.015-31.957c-263.208,0-476.613,208.009-476.613,464.603
		c0,256.607,213.405,464.603,476.613,464.603c263.17,0,476.561-208.009,476.561-464.603
		C1723.785,783.49,1602.933,617.893,1430.954,547.804L1430.954,547.804z"/>
</g>
</svg>
