<?xml version="1.0" encoding="utf-8"?>
<!-- Generator: Adobe Illustrator 17.0.0, SVG Export Plug-In . SVG Version: 6.00 Build 0)  -->
<!DOCTYPE svg PUBLIC "-//W3C//DTD SVG 1.1//EN" "http://www.w3.org/Graphics/SVG/1.1/DTD/svg11.dtd">
<svg version="1.1" id="svg2" xmlns="http://www.w3.org/2000/svg" xmlns:xlink="http://www.w3.org/1999/xlink" x="0px" y="0px"
	 width="1982.52px" height="1152px" viewBox="615.52 -741.556 1982.52 1152" enable-background="new 615.52 -741.556 1982.52 1152"
	 xml:space="preserve">
<g id="g10">
	<path id="path12" fill="#417DC8" d="M1787.911-308.193c18.004,39.399-15.42,70.715-29.3,104.276
		c-17.984,22.383-31.362,45.655-54.498,65.786l-3.606-170.056c20.046-20.138,70.44-33.561,87.404,0V-308.193z M1822.355-484.047
		c9.772,43.391-42.154,69.36-77.108,89.498l-41.14,17.9l-3.606-3.136l1.544-179.008c44.732,15.217,92.056,37.6,120.316,74.746
		H1822.355z M1592.541-625.909c-21.086-0.903-37.534,7.154-56.558,10.288v6.276l3.606,392.003l-3.606,3.142
		c-43.182-119.491-45.244-253.735-44.72-389.334c-20.066,4.477-38.05,14.326-56.572,22.383
		c-3.062,82.782,4.124,169.14,13.894,250.601l-20.57,31.322c-35.988-76.074-39.594-163.793-41.132-251.942
		c-19.53,11.191-39.072,26.407-55.014,42.953l8.75,98.457c11.316,78.307,32.906,153.485,82.252,216.601
		c14.922-20.59,25.196-44.32,41.14-62.664c28.796,86.82,58.62,174.971,135.226,242.995v-5.811L1592.541-625.909z M1638.825-627.25
		l1.524,613.075c21.086-11.172,39.092-28.639,58.62-43.403c77.646-72.044,144.996-147.68,157.332-242.995
		c-0.518-29.091-20.582-56.389-49.366-70.269c32.906-20.59,72.502-46.087,80.21-81.88c5.144-30.89-5.144-60.421-30.844-82.344
		C1794.097-583.839,1720.561-616.06,1638.825-627.25L1638.825-627.25z M1609.505-682.748l-159.394,28.639l-6.668,28.2
		c-4.628,24.162-41.14,14.312-61.684,21.028c-29.32-0.438-14.398,30.432-25.714,44.758c-26.218,4.47-53.994,4.47-77.122,14.771
		l3.6,68.45c7.186,211.679,113.11,415.297,337.278,520.914C1863.496-84.879,1968.897-314,1945.769-558.794
		c-23.136-5.367-46.788-7.598-70.454-10.282c-18.502-7.604-11.812-29.535-20.55-43.403l-66.846-8.965
		c-27.238,1.349-15.426-27.73-25.694-40.269c-50.904-7.16-100.78-16.113-152.706-21.034L1609.505-682.748z M1813.625-705.125
		c4.104,15.217,4.104,33.123,16.964,43.411l77.128,12.081c4.628,13.882,4.104,32.671,19.006,40.289l78.686,11.623
		c23.652,284.161-82.776,563.414-385.61,699.902c-224.166-91.291-366.584-292.676-385.609-499.872
		c-8.75-59.51-10.792-122.163-11.832-184.807l3.606-6.276l82.252-13.424c7.73-10.74,4.124-25.505,10.294-37.134
		c25.178-5.818,54.498-5.379,75.066-17.9l8.73-40.281l212.348-34.464L1813.625-705.125 M719.546,387.823l-44.273-186.502h45.1
		l14.111,76.925 M719.546,387.823l-44.273-186.502h45.1l14.111,76.925 M719.546,387.823l-44.273-186.502h45.1l14.111,76.925
		 M719.546,387.823l-44.273-186.502h45.1l14.111,76.925 M719.546,387.823l-44.273-186.502h45.1l14.111,76.925
		c4.152,22.137,8.026,46.21,11.068,65.026h0.557c3.042-20.204,7.469-42.615,12.174-65.578l15.773-76.377h44.826l14.942,78.588
		c4.152,21.858,7.195,41.779,9.963,62.532h0.553c2.768-20.752,6.916-42.61,10.79-64.747l15.22-76.377h42.889l-48.147,186.502
		h-45.657l-15.773-80.246c-3.595-18.816-6.638-36.247-8.853-57.552h-0.553c-3.321,21.031-6.368,38.741-10.794,57.552l-17.71,80.246
		h-46.206 M1010.912,298.408l-11.621-39.568c-3.321-11.068-6.642-24.905-9.41-35.973h-0.553
		c-2.764,11.068-5.532,25.179-8.579,35.973l-11.068,39.568H1010.912z M963.596,339.955l-13.284,47.868h-43.72l57.004-186.502h55.341
		l57.831,186.502h-45.383L1017,339.951h-53.404 M1143.444,274.056h16.604c21.031,0,33.479-10.516,33.479-26.842
		c0-17.153-11.621-25.736-30.989-26.01c-10.237,0-16.047,0.827-19.094,1.384V274.056z M1101.665,203.81
		c13.558-2.211,33.758-3.874,56.168-3.874c27.673,0,47.041,4.152,60.325,14.663c11.068,8.853,17.153,21.858,17.153,39.015
		c0,23.795-16.879,40.121-32.926,45.936v0.831c13.005,5.258,20.2,17.71,24.905,34.867c5.811,21.027,11.621,45.379,15.216,52.573
		h-43.163c-3.047-5.258-7.473-20.478-13.005-43.442c-4.979-23.242-13.009-29.61-30.162-29.884h-12.731v73.326h-41.779
		L1101.665,203.81 M1265.743,387.823V201.321h49.252l38.741,68.346c11.068,19.647,22.136,42.889,30.437,63.92H1385
		c-2.764-24.626-3.591-49.805-3.591-77.752v-54.514h38.737v186.502h-44.273l-39.847-71.946
		c-11.068-19.921-23.242-43.999-32.374-65.857l-0.831,0.279c1.106,24.626,1.663,50.915,1.663,81.352v56.173L1265.743,387.823
		 M1567.62,308.961h-68.625v44.273h76.651v34.589h-118.987V201.321h115.109v34.589h-72.773v38.741h68.625V308.961 M1646.199,274.056
		h16.604c21.031,0,33.483-10.516,33.483-26.842c0-17.153-11.621-25.736-30.989-26.01c-10.241,0-16.052,0.827-19.099,1.384
		L1646.199,274.056z M1604.416,203.81c13.562-2.211,33.758-3.874,56.177-3.874c27.669,0,47.037,4.152,60.321,14.663
		c11.068,8.853,17.157,21.858,17.157,39.015c0,23.795-16.883,40.121-32.931,45.936v0.831c13.005,5.258,20.2,17.71,24.905,34.867
		c5.811,21.027,11.621,45.379,15.22,52.573h-43.172c-3.042-5.258-7.469-20.478-13.001-43.442
		c-4.984-23.242-13.005-29.61-30.162-29.884h-12.73v73.326h-41.783L1604.416,203.81 M1866.172,357.935
		c4.152,0.553,9.131,0.553,16.326,0.553c19.094,0,35.973-7.195,35.973-26.842c0-18.816-16.879-26.289-37.905-26.289h-14.393
		L1866.172,357.935z M1866.172,265.199h13.836c22.137,0,34.036-9.131,34.036-22.968c0-14.111-10.79-21.584-29.884-21.584
		c-9.131,0-14.389,0.553-17.989,1.106L1866.172,265.199L1866.172,265.199z M1824.389,203.81c11.068-2.211,33.483-3.874,54.514-3.874
		c25.732,0,41.509,2.494,55.067,10.515c13.005,6.916,22.411,19.643,22.411,36.526c0,16.605-9.684,32.099-30.715,39.847v0.553
		c21.309,5.811,37.083,21.858,37.083,45.936c0,16.879-7.752,30.158-19.373,39.568c-13.558,10.79-36.247,16.879-73.326,16.879
		c-20.753,0-36.252-1.384-45.661-2.768V203.815 M2033.293,274.056h16.604c21.031,0,33.483-10.516,33.483-26.842
		c0-17.153-11.621-25.736-30.994-26.01c-10.237,0-16.048,0.827-19.094,1.384L2033.293,274.056L2033.293,274.056z M1991.51,203.81
		c13.558-2.211,33.757-3.874,56.177-3.874c27.668,0,47.037,4.152,60.321,14.663c11.068,8.853,17.157,21.858,17.157,39.015
		c0,23.795-16.883,40.121-32.931,45.936v0.831c13.005,5.258,20.2,17.71,24.905,34.867c5.811,21.027,11.621,45.379,15.22,52.573
		h-43.172c-3.042-5.258-7.469-20.478-13.001-43.442c-4.983-23.242-13.005-29.61-30.162-29.884h-12.731v73.326h-41.783
		L1991.51,203.81 M2190.46,295.125c0,36.526,17.153,62.262,45.378,62.262c28.5,0,44.826-27.12,44.826-63.367
		c0-33.479-16.047-62.257-45.1-62.257c-28.504,0-45.104,27.116-45.104,63.367L2190.46,295.125L2190.46,295.125z M2325.212,292.635
		c0,61.152-37.074,98.23-91.589,98.23c-55.341,0-87.715-41.783-87.715-94.909c0-55.894,35.699-97.678,90.757-97.678
		C2293.948,198.278,2325.212,241.167,2325.212,292.635 M2354.264,344.377c11.343,5.811,28.779,11.621,46.763,11.621
		c19.368,0,29.605-8.022,29.605-20.2c0-11.621-8.853-18.263-31.268-26.289c-30.989-10.794-51.189-27.947-51.189-55.063
		c0-31.821,26.563-56.173,70.562-56.173c21.027,0,36.526,4.426,47.59,9.406l-9.406,34.036c-7.469-3.599-20.752-8.853-39.015-8.853
		s-27.12,8.3-27.12,17.984c0,11.9,10.516,17.157,34.589,26.289c32.931,12.174,48.425,29.331,48.425,55.616
		c0,31.268-24.073,57.831-75.263,57.831c-21.309,0-42.336-5.536-52.852-11.347l8.579-34.863 M2497.869,365.408
		c0-14.946,10.241-25.736,24.909-25.736c14.663,0,24.626,10.511,24.626,25.732c0,14.663-9.963,25.457-24.909,25.457
		c-14.385,0-24.626-10.79-24.626-25.457"/>
</g>
</svg>
