<?xml version="1.0" encoding="utf-8"?>
<!-- Generator: Adobe Illustrator 17.0.0, SVG Export Plug-In . SVG Version: 6.00 Build 0)  -->
<!DOCTYPE svg PUBLIC "-//W3C//DTD SVG 1.1//EN" "http://www.w3.org/Graphics/SVG/1.1/DTD/svg11.dtd">
<svg version="1.1" id="Layer_1" xmlns="http://www.w3.org/2000/svg" xmlns:xlink="http://www.w3.org/1999/xlink" x="0px" y="0px"
	 width="1662.166px" height="1284.128px" viewBox="709.265 144.306 1662.166 1284.128"
	 enable-background="new 709.265 144.306 1662.166 1284.128" xml:space="preserve">
<g>
	<path fill="#F2ECDB" d="M1763.102,350.326c-43.05-15.868-89.164-27.853-117.037-31.59c-27.874-3.716-70.608-18.575-105.913-24.138
		c-35.304-5.562-109.628-5.583-135.614,5.583c-26.007,11.146-157.905,68.741-196.924,122.621
		c-39.02,53.88-113.323,189.494-120.774,230.381c-7.43,40.866-5.583,87.337,9.299,111.496s44.603,91.032,83.602,120.753
		c39.02,29.721,79.886,76.171,143.065,87.316c63.158,11.146,156.057,20.445,380.855-79.887
		c224.798-100.329,260.102-215.541,260.102-215.541s31.589-63.179,18.575-118.885c-12.992-55.749-42.734-118.906-72.457-137.482
		C1880.139,402.337,1798.406,363.318,1763.102,350.326L1763.102,350.326z"/>
	<path fill="#4F723F" d="M1335.795,348.457c-11.377,14.462-87.316,89.185-107.761,143.065
		c-20.423,53.88-46.429,120.774-39.02,172.765c7.43,52.033,40.888,130.052,96.615,165.377
		c55.728,35.304,72.457,46.429,154.211,70.587c81.754,24.117,143.044,12.971,196.924,1.846
		c53.88-11.145,174.633-59.463,235.965-148.627c61.311-89.185,72.457-200.66,63.158-248.957
		c-9.278-48.296-42.734-141.198-131.899-211.785c-89.185-70.608-146.781-81.754-180.216-89.185
		c-33.437-7.43-42.734-13.013-42.734-22.291s3.716-20.445,52.012-11.146c48.317,9.299,113.344,37.172,163.51,66.894
		c50.166,29.742,133.766,118.906,161.641,172.786s63.179,139.349,53.88,219.236c-9.299,79.907-57.616,152.343-111.475,209.938
		c-53.88,57.595-167.203,137.503-243.373,143.044c-76.171,5.583-120.753-7.43-196.945-38.999
		c-76.171-31.567-131.899-27.874-182.064-52.033c-50.165-24.159-169.07-100.329-191.361-196.945
		c-22.291-96.615-5.583-144.912,18.596-198.793c24.138-53.859,76.171-143.044,137.461-183.932
		c61.311-40.888,176.502-63.179,198.793-66.894c22.291-3.716,118.906-16.708,113.344,9.278
		c-5.583,26.007-55.749,11.145-70.608,11.145C1469.587,264.834,1376.662,296.445,1335.795,348.457L1335.795,348.457z"/>
	<path fill="#E2B6AC" d="M1750.108,677.302c3.358-20.15,1.847-31.569-11.146-44.582c-13.013-12.992-20.445-14.861-39.02-38.999
		c-18.575-24.159-27.874-46.45-48.296-72.457c-20.445-26.005-39.02-44.582-76.171-55.728c-37.152-11.145-38.999-9.278-61.311-16.729
		c-22.291-7.43-70.608-7.43-92.9-12.992c-22.291-5.583-27.853-18.596-78.04,7.43c-50.166,26.005-70.588,55.728-83.602,102.199
		c-12.992,46.45-18.575,107.74,13.013,141.198s133.766,89.185,161.619,91.011c27.896,1.889,159.794-11.125,209.938-24.117
		c50.165-12.992,104.045-29.742,113.344-40.866C1766.816,701.481,1748.241,688.446,1750.108,677.302L1750.108,677.302z"/>
	<path fill="#AC3741" d="M1826.26,489.654c-14.504-36.27-33.437-50.166-53.88-65.025s-61.311-26.005-76.171-24.159
		c-14.861,1.846-33.458,1.846-11.146,11.145c22.291,9.278,50.166,11.146,59.463,24.159c9.299,12.992,48.296,55.728,57.595,98.462
		s14.861,76.171-16.729,107.74c-31.569,31.61-143.044,104.045-196.924,111.496c-53.88,7.43-91.053,5.562-122.62,5.562
		c-31.59,0-76.171-1.846-107.761-74.303c-31.569-72.457-40.866-107.761-27.874-137.482c13.013-29.721,40.888-72.457,91.032-87.316
		c50.166-14.861,131.899-29.721,146.781-27.874c14.861,1.868-11.146-29.721-11.146-29.721s-20.445,7.43-37.172,9.299
		c-16.708,1.847-59.463,7.43-78.04,16.708c-18.577,9.278-57.595,12.992-111.475,57.595c-53.859,44.582-83.602,92.9-79.886,144.912
		c0,0-1.847,22.291,7.43,50.166c9.278,27.874,27.874,78.019,61.311,92.9c33.437,14.861,57.595,27.874,81.754,29.742
		c24.159,1.847,109.628-3.758,224.798-29.742c115.191-26.005,124.49-33.437,148.627-46.45c24.159-13.013,52.033-27.874,61.311-53.86
		c9.278-26.005,14.861-83.623,9.278-118.927C1839.273,519.397,1837.426,517.55,1826.26,489.654L1826.26,489.654z"/>
	<path fill="#4F723F" d="M1608.891,355.888c0,0-13.013,52.033-29.721,72.457c0-20.445,0-22.291-12.992-31.589
		c-13.013-9.278-27.875-22.291-79.908-11.145s-63.158,14.861-63.158,14.861s35.304,29.742,55.728,29.742
		c20.424,0,44.603-9.278,72.457,7.43c-22.291,20.445-24.138,14.861-44.603,18.575c-20.445,3.716-42.734,14.861-57.595,42.734
		c76.171,1.847,94.769-1.846,115.191-11.145c20.445-9.278,42.734-35.304,42.734-35.304s20.445,1.868,52.033,11.145
		c31.59,9.278,53.88,20.443,78.019,18.575c24.159-1.847,29.742-7.43,29.742-7.43s-3.716-3.716-24.138-16.708
		c-20.444-13.013-52.033-33.437-68.741-39.02c-16.708-5.583-35.304-11.145-46.45-1.847c14.861-22.291,31.59-55.749,31.59-55.749
		S1640.48,344.764,1608.891,355.888L1608.891,355.888z"/>
	<path fill="#AC3741" d="M875.589,1271.895c16.07,0,32.139-2.296,39.026-19.506c6.887-17.224,4.591-44.772-3.463-64.291
		c-8.028-19.52-22.956-41.322-45.913-42.476c-22.957-1.154-56.25,3.437-88.389,40.18c-32.152,36.743-51.659,86.106-52.813,119.387
		c-1.141,33.293,3.437,66.6,25.252,79.219c21.815,12.62,53.954,24.098,98.739,12.62c44.772-11.478,65.432-24.098,67.728-35.589
		c2.283-11.478-5.746-21.815-16.07-21.815c-10.337,0-32.152,16.07-44.785,22.97s-24.111,10.324-44.772,5.733
		c-20.661-4.591-28.702-41.335-22.957-76.911c5.746-35.576,26.406-89.543,49.376-104.471c22.956-14.928,29.843-2.296,27.548,4.591
		c-2.296,6.887-13.774,36.73-12.633,45.926c1.154,9.182,0,30.985,21.815,34.435h2.311V1271.895z M1428.036,1378.104
		c10.026,0,18.015,8.158,18.015,18.339c0,10.363-7.976,18.417-18.093,18.417c-10.05-0.006-18.191-8.159-18.185-18.208
		c0-0.07,0-0.139,0.001-0.209c0-10.181,8.158-18.339,18.184-18.339H1428.036z M1427.971,1380.971
		c-8.08,0-14.669,6.913-14.669,15.473c0,8.716,6.589,15.564,14.747,15.564c8.158,0.091,14.695-6.848,14.695-15.473
		c0-8.651-6.537-15.564-14.695-15.564H1427.971L1427.971,1380.971z M1424.547,1407.131h-3.268v-20.453
		c1.699-0.259,3.346-0.493,5.797-0.493c3.087,0,5.123,0.649,6.329,1.557c1.219,0.895,1.88,2.27,1.88,4.228
		c0,2.685-1.803,4.306-3.982,4.98v0.169c1.803,0.311,2.983,1.945,3.424,4.968c0.48,3.178,0.96,4.397,1.297,5.058h-3.424
		c-0.48-0.661-0.96-2.529-1.388-5.214c-0.48-2.607-1.777-3.58-4.384-3.58h-2.283L1424.547,1407.131L1424.547,1407.131z
		 M1424.547,1395.808h2.36c2.685,0,4.968-0.973,4.968-3.515c0-1.803-1.297-3.58-4.968-3.58c-0.79-0.001-1.579,0.055-2.36,0.169
		V1395.808L1424.547,1395.808z M1005.299,1248.939c-2.296-5.746-6.731-8.041-22.969-8.041c-5.733,0-12.633,4.591-29.843,10.324
		c-17.211,5.733-10.337,18.378-8.041,28.702c2.296,10.324,4.591,37.885,5.733,56.237c1.154,18.365,9.183,44.785,21.815,48.234
		c12.633,3.45,19.519-19.519,21.815-42.489C996.117,1318.975,1007.595,1254.684,1005.299,1248.939L1005.299,1248.939z
		 M983.497,1198.434c6.887-12.633,16.07-34.435,17.224-45.926c1.141-11.478,1.141-42.463-29.844-37.885
		c-8.651,1.284-20.661,13.774-19.519,27.561c1.141,13.774,5.733,37.872,12.633,49.363
		C970.865,1203.013,976.597,1211.067,983.497,1198.434z M1243.515,1247.784c-2.296-5.733-6.731-8.028-22.97-8.028
		c-5.746,0-12.62,4.591-29.843,10.324s-10.337,18.378-8.041,28.702s4.591,37.885,5.733,56.25
		c1.154,18.352,9.183,44.759,21.828,48.209c12.62,3.45,19.506-19.507,21.802-42.463
		C1234.319,1317.821,1245.798,1253.517,1243.515,1247.784L1243.515,1247.784z M1221.7,1197.267
		c6.887-12.633,16.069-34.435,17.211-45.913c1.154-11.491,1.154-42.476-29.844-37.885c-8.651,1.284-20.674,13.774-19.519,27.561
		c1.154,13.774,5.733,37.885,12.633,49.363C1209.08,1201.871,1214.813,1209.9,1221.7,1197.267z M1083.351,1230.573
		c-17.457,8.729-55.109,41.335-55.109,80.361s10.337,64.291,30.998,75.769s42.476,10.324,66.574,4.591
		c24.111-5.733,37.898-11.478,41.335-18.365s-1.154-12.62-9.182-13.774c-8.028-1.167-32.152,8.028-43.617,1.141
		c-11.478-6.887-25.265-35.589-19.52-60.841c5.746-25.252,13.774-48.222,36.743-56.25c22.956-8.041,41.335-4.591,40.18-20.661
		s-36.743-11.478-58.558-5.746C1091.393,1222.545,1092.534,1225.982,1083.351,1230.573L1083.351,1230.573z M1789.957,1247.797
		c-2.283-5.746-6.718-8.041-22.957-8.041c-5.745,0-12.646,4.591-29.869,10.337c-17.198,5.733-10.311,18.365-8.028,28.702
		c2.308,10.337,4.591,37.885,5.745,56.25c1.141,18.365,9.196,44.772,21.815,48.222c12.646,3.463,19.507-19.506,21.815-42.463
		C1780.762,1317.808,1792.266,1253.53,1789.957,1247.797L1789.957,1247.797z M1768.142,1197.28
		c6.887-12.632,16.083-34.435,17.224-45.926c1.167-11.478,1.167-42.463-29.843-37.885c-8.664,1.284-20.674,13.774-19.507,27.561
		c1.115,13.774,5.72,37.885,12.62,49.363C1755.536,1201.871,1761.281,1209.913,1768.142,1197.28L1768.142,1197.28z
		 M1302.631,1168.591c-4.15,14.513-4.591,29.844-10.337,37.885c-5.746,8.041-13.774,16.07-6.887,21.802
		c6.887,5.746,18.365,8.041,26.394-3.437c8.054-11.478,32.165-48.222,37.898-63.15c5.746-14.915,10.337-32.139,3.45-44.772
		c-6.887-12.633-22.956-27.561-35.563-26.406c-12.646,1.141-25.278,9.183-26.419,18.365c-1.167,9.183,2.283,25.252,5.72,33.293
		C1300.349,1150.213,1304.927,1160.55,1302.631,1168.591L1302.631,1168.591z M1399.062,1203.013
		c-7.224,0.869-32.152,8.041-40.206,31.011c-8.028,22.956-5.72,59.7-2.283,81.502s5.746,44.759,6.887,51.659
		c1.141,6.887,1.167,14.902-3.45,11.491c-4.591-3.463-8.054-16.069-13.774-21.828c-5.746-5.733-19.532-14.928-25.252-6.887
		c-5.746,8.041-10.337,20.674,8.028,35.589c18.365,14.928,33.306,18.365,47.067,14.928c13.774-3.463,26.419-12.632,28.728-29.856
		c2.283-17.224-8.054-66.587-5.746-91.839c2.309-25.252,3.424-42.476,10.311-42.476s5.746,12.633,6.887,19.519
		c1.167,6.887,5.746,18.365,16.083,12.633c10.337-5.746,18.365-28.702,12.645-41.335
		C1439.242,1214.504,1427.763,1199.576,1399.062,1203.013L1399.062,1203.013z M1721.633,1182.365
		c-13.761-25.252-33.28-39.039-72.319-36.743s-79.206,17.224-90.685,24.111s-21.815,6.887-20.674,12.633
		c1.089,5.395,5.344,22.84,19.182,31.607c-3.774,35.719-10.311,100.191-11.115,124.536c-1.167,34.422,16.057,60.828,26.394,61.995
		c10.337,1.141,10.337-1.167,19.506-35.589c2.438-9.079,4.034-26.134,5.123-46.276c6.381-3.93,13.022-7.795,17.859-9.987
		c12.62-5.733,66.574-40.18,79.206-55.096C1706.717,1238.615,1735.419,1207.617,1721.633,1182.365L1721.633,1182.365z
		 M1665.396,1222.545c-17.068,12.568-46.056,33.527-66.677,42.619c0.402-25.654,0.376-50.154,0.259-66.003
		c8.923-5.914,21.504-13.605,29.688-15.642c13.774-3.45,52.787-13.774,59.687-2.309
		C1695.239,1192.689,1687.211,1206.476,1665.396,1222.545z M1868.58,1236.319c12.49-3.969,45.926-10.337,58.545-10.337
		c12.646,0,36.73-2.283,44.785,6.887c8.028,9.183,10.337,28.702-1.141,40.18c-11.504,11.478-39.039,33.281-48.234,40.18
		c-9.196,6.887-18.365,12.632-16.083,18.378c2.309,5.733,13.774,9.183,33.306,9.183c19.507,0,41.322,2.296,43.617,11.478
		c2.283,9.183-11.478,13.774-21.815,14.928c-10.337,1.141-25.252,1.154-37.898,4.591c-12.62,3.437-42.476,11.465-64.291,16.057
		c-21.815,4.591-32.152,6.887-35.589,0c-3.424-6.874-12.62-27.548-6.861-39.039c5.72-11.478,5.72-11.478,32.152-30.985
		c26.393-19.519,52.787-36.743,58.546-43.63c5.72-6.887,9.17-13.774-2.283-14.915c-13.758-1.154-27.589-1.154-41.348,0
		c-11.478,1.141-32.152,6.874-28.702-3.45C1838.724,1245.502,1843.328,1244.347,1868.58,1236.319z M2061.427,1236.89
		c12.49-3.969,45.926-10.337,58.572-10.337c12.62,0,36.705-2.296,44.759,6.887s10.337,28.702-1.141,40.18
		c-11.504,11.478-39.039,33.293-48.208,40.18c-9.196,6.887-18.391,12.633-16.109,18.365c2.309,5.733,13.774,9.183,33.306,9.183
		c19.507,0,41.348,2.309,43.617,11.491c2.309,9.183-11.478,13.774-21.815,14.915c-10.337,1.154-25.252,1.154-37.872,4.591
		c-12.646,3.437-42.476,11.478-64.291,16.057c-21.815,4.591-32.152,6.9-35.615,0c-3.424-6.887-12.594-27.548-6.861-39.026
		c5.745-11.491,5.745-11.491,32.152-31.011c26.393-19.506,52.813-36.73,58.546-43.617c5.745-6.887,9.196-13.774-2.283-14.915
		c-13.758-1.154-27.589-1.154-41.348,0c-11.478,1.141-32.152,6.887-28.702-3.45
		C2031.584,1246.046,2036.175,1244.918,2061.427,1236.89z M2327.774,1375.225c-2.282-4.591-5.719-64.291-6.887-92.993
		c-1.141-28.689-2.282-47.067-9.17-52.8c-6.887-5.733-13.774-14.915-32.152-14.915c-11.984,0-25.252,1.154-44.759,37.885
		c-19.532,36.73-28.702,59.7-34.448,81.502c-5.72,21.815-13.774,48.209-3.45,55.109c10.337,6.887,16.057,5.733,27.561-2.296
		c11.478-8.028,20.674-29.856,26.394-37.898c5.746-8.028,10.337-20.661,13.774-19.506c3.437,1.154,2.308,16.07,8.028,25.252
		c5.745,9.182,14.915,40.18,35.589,41.335c20.674,1.141,32.152-1.154,34.448-6.887
		C2344.998,1383.254,2330.07,1379.804,2327.774,1375.225L2327.774,1375.225z M2268.088,1301.752
		c-5.746,13.774-12.62,16.082-17.224,14.928c-4.591-1.154-4.591-10.337-4.591-26.406c0-16.07,19.351-35.758,25.252-29.844
		C2280.733,1269.612,2273.833,1287.978,2268.088,1301.752L2268.088,1301.752z"/>
</g>
</svg>
