<svg xmlns="http://www.w3.org/2000/svg" height="800" width="1200" viewBox="-36 -58.5 312 351"><path fill="#ff3500" d="M0 0h240v234H0z"/><radialGradient gradientUnits="userSpaceOnUse" gradientTransform="translate(0 406)" r="143.432" cy="-324.713" cx="97.711" id="a"><stop offset="0" stop-color="#1d0f0b" stop-opacity=".85"/><stop offset=".767" stop-color="#1d0f0b"/></radialGradient><path fill="url(#a)" d="M10 10h220v214H10z"/><linearGradient gradientTransform="translate(0 406)" y2="-290" x2="206.389" y1="-290" x1="37.632" gradientUnits="userSpaceOnUse" id="b"><stop offset=".14" stop-color="#fff"/><stop offset="1" stop-color="#ebedeb"/></linearGradient><path d="M203.7 140.1c-4.8-5.2-15-7.9-29.4-7.9-8 0-17.1.8-27.2 2.5-5.8-5.4-11.4-11.9-16.8-19.3-3.8-5.3-7.3-10.8-10.4-16.3 5.1-15.7 8.6-30.8 8.6-42.3 0-8.6-2.8-22.8-15.6-22.8-3.3 0-6.9 2.1-8.7 5.2-5.4 9.3-2.9 30.3 6.9 51.7-3.4 10.3-7.3 20.6-12.1 32.3-4 9.7-8.8 19.6-13.9 28.7-27.8 11-45.5 23.5-47.3 33.5-.6 3.3.4 6.5 3.1 9.1 1.6 1.5 5 3.5 10 3.5 16 0 33.8-23.4 47.1-47.3 7.4-2.6 15.2-4.9 23.2-7.1 8.7-2.3 17-4.1 24.9-5.5 19.3 17.5 36.4 20.1 44.9 20.1 10.6 0 13.6-4.4 14.7-7.2 1.6-4.1.2-8.5-2-10.9zm-96.6-99.3c1.3-2.2 3.4-3.6 5.8-3.6 4.7 0 7.4 4.2 7.4 11.9 0 8.3-2.6 21.8-7.6 37.3-9.3-21.7-9.4-39-5.6-45.6zM40.9 186c1.6-8.3 17.4-19.5 41.6-29.6-13.5 23.1-26.8 37.3-35.2 37.3-1.6 0-3.2-.5-4.4-1.6-1.7-1.7-2.4-3.8-2-6.1zm102.3-50.6c-7.2 1.3-14.9 3-22.7 5.1-6.9 1.8-13.6 3.9-20.1 6 3.8-7.1 7.1-14 9.6-20.3 3.1-7.5 6.1-15.3 8.7-23.1 2.8 4.8 5.8 9.5 9.1 14.1 4.9 6.9 10.1 13 15.4 18.2zm7 2c16.3-3 30.6-2.4 36.7-1.1 6.3 1.3 9.6 5.1 8.5 10.7-1.1 5.7-7.9 8.4-15.4 6.6-12-2.9-21.9-9.4-29.8-16.2z" fill="url(#b)"/></svg>