<svg xmlns="http://www.w3.org/2000/svg" width="300" height="300" viewBox="0 0 300 300"><defs><radialGradient id="a" cx="114.756" cy="215.297" r="207.57" gradientTransform="translate(0 .279)" gradientUnits="userSpaceOnUse"><stop offset="0" stop-color="#423325" stop-opacity=".98"/><stop offset="1" stop-color="#1c0a00"/></radialGradient></defs><g data-name="Adobe illustrator" transform="translate(0 -130.746)"><path fill="url(#a)" d="M24.8,155.549H297.921V428.667H24.8Z" data-name="Path 1" transform="translate(-11.362 -11.362)"/><path fill="#ff7f18" d="M12.5,143.566h275V417.925H12.5ZM0,430.746H300v-300H0ZM196.5,237.669c0-1.026.375-1.539,1.5-1.539h19.625c1,0,1.5.385,1.5,1.539V338.823c0,1.025-.25,1.538-1.5,1.538H198.25c-1.25,0-1.625-.641-1.625-1.666V237.669H196.5Zm-1.375-29.1c0-8.205,5.625-13.077,12.75-13.077,7.625,0,12.75,5.256,12.75,13.077,0,8.461-5.375,13.077-13,13.077C200.375,221.643,195.125,217.028,195.125,208.566Zm-56.25,71.282c-3.5-14.231-11.749-45.256-14.875-60.256h-.25c-2.625,15-9.25,40.384-14.5,60.256Zm-34.75,20.77L94.25,339.079c-.25,1.025-.625,1.281-1.875,1.281H74c-1.25,0-1.5-.385-1.25-1.923L108.25,211c.625-2.307,1-4.359,1.25-10.641,0-.9.375-1.282,1-1.282h26.25c.875,0,1.25.256,1.5,1.282L178,338.694c.25,1.025,0,1.666-1,1.666H156.25c-1,0-1.625-.256-1.875-1.153l-10.25-38.59h-40Z" data-name="Path 2"/></g></svg>