<?xml version="1.0" encoding="utf-8"?>
<!-- Generator: Adobe Illustrator 17.0.0, SVG Export Plug-In . SVG Version: 6.00 Build 0)  -->
<svg version="1.2" baseProfile="tiny" id="Layer_1" xmlns="http://www.w3.org/2000/svg" xmlns:xlink="http://www.w3.org/1999/xlink"
	 x="0px" y="0px" width="180px" height="180px" viewBox="0 0 180 180" xml:space="preserve">
<path fill="#F05133" d="M176.241,82.346L98.254,4.368c-4.487-4.491-11.771-4.491-16.264,0L65.797,20.563l20.54,20.54
	c4.775-1.612,10.248-0.531,14.053,3.274c3.824,3.829,4.898,9.349,3.245,14.14l19.797,19.797c4.79-1.651,10.316-0.584,14.14,3.247
	c5.347,5.345,5.347,14.007,0,19.354c-5.348,5.348-14.009,5.348-19.36,0c-4.02-4.024-5.015-9.931-2.979-14.884L96.772,67.568
	l-0.002,48.586c1.304,0.645,2.534,1.507,3.62,2.588c5.345,5.345,5.345,14.005,0,19.358c-5.347,5.345-14.012,5.345-19.354,0
	c-5.346-5.353-5.346-14.013,0-19.358c1.321-1.319,2.85-2.317,4.481-2.986V66.719c-1.632-0.666-3.159-1.657-4.482-2.987
	c-4.049-4.046-5.025-9.99-2.948-14.962L57.839,28.518L4.369,81.986c-4.493,4.495-4.493,11.778,0,16.27l77.982,77.978
	c4.49,4.491,11.771,4.491,16.267,0l77.622-77.609c4.491-4.493,4.491-11.779,0-16.272"/>
</svg>
