<?xml version="1.0" encoding="utf-8"?>
<!-- Generator: Adobe Illustrator 17.0.0, SVG Export Plug-In . SVG Version: 6.00 Build 0)  -->
<svg version="1.2" baseProfile="tiny" id="Layer_1" xmlns="http://www.w3.org/2000/svg" xmlns:xlink="http://www.w3.org/1999/xlink"
	 x="0px" y="0px" width="180px" height="180px" viewBox="0 0 180 180" xml:space="preserve">
<g>
	<path fill="#608E4F" d="M89.947,178.606c-2.361,0-4.711-0.617-6.777-1.814l-21.576-12.765c-3.22-1.803-1.647-2.441-0.585-2.812
		c4.298-1.492,5.168-1.835,9.755-4.437c0.477-0.269,1.111-0.166,1.604,0.123l16.575,9.841c0.601,0.333,1.449,0.333,2.002,0
		l64.621-37.298c0.601-0.343,0.987-1.035,0.987-1.749V53.12c0-0.73-0.386-1.411-1.003-1.781L90.956,14.073
		c-0.596-0.349-1.39-0.349-1.991,0L24.387,51.35c-0.628,0.359-1.025,1.062-1.025,1.77v74.575c0,0.714,0.397,1.39,1.019,1.728
		l17.702,10.228c9.605,4.802,15.485-0.853,15.485-6.536v-73.63c0-1.041,0.837-1.862,1.878-1.862h8.194
		c1.025,0,1.873,0.821,1.873,1.862v73.63c0,12.819-6.981,20.17-19.134,20.17c-3.735,0-6.675,0-14.885-4.046l-16.945-9.755
		c-4.185-2.42-6.777-6.944-6.777-11.789V53.12c0-4.845,2.592-9.369,6.777-11.778L83.17,4.002c4.089-2.313,9.524-2.313,13.581,0
		l64.616,37.341c4.185,2.42,6.788,6.933,6.788,11.778v74.575c0,4.845-2.602,9.352-6.788,11.789l-64.616,37.308
		C94.685,177.989,92.34,178.606,89.947,178.606z"/>
	<path fill="#608E4F" d="M109.908,127.228c-28.278,0-34.202-12.98-34.202-23.867c0-1.036,0.832-1.862,1.868-1.862h8.355
		c0.934,0,1.712,0.671,1.857,1.583c1.261,8.505,5.022,12.798,22.123,12.798c13.613,0,19.409-3.08,19.409-10.302
		c0-4.164-1.642-7.255-22.799-9.326c-17.681-1.749-28.617-5.656-28.617-19.8c0-13.039,10.989-20.814,29.416-20.814
		c20.701,0,30.945,7.185,32.243,22.601c0.048,0.531-0.14,1.041-0.493,1.438c-0.354,0.37-0.848,0.596-1.368,0.596h-8.387
		c-0.869,0-1.637-0.617-1.814-1.459c-2.012-8.95-6.906-11.81-20.181-11.81c-14.864,0-16.592,5.178-16.592,9.057
		c0,4.701,2.039,6.069,22.108,8.725c19.859,2.624,29.292,6.342,29.292,20.299C142.124,119.163,130.384,127.228,109.908,127.228z"/>
</g>
</svg>
