<?xml version="1.0" standalone="no"?>
<!DOCTYPE svg PUBLIC "-//W3C//DTD SVG 20010904//EN"
 "http://www.w3.org/TR/2001/REC-SVG-20010904/DTD/svg10.dtd">
<svg version="1.0" xmlns="http://www.w3.org/2000/svg"
 width="700.000000pt" height="700.000000pt" viewBox="0 0 700.000000 700.000000"
 preserveAspectRatio="xMidYMid meet">
<metadata>
Created by potrace 1.11, written by Peter Selinger 2001-2013
</metadata>
<g transform="translate(0.000000,700.000000) scale(0.100000,-0.100000)"
fill="#000000" stroke="none">
<path d="M2956 6864 c-154 -38 -283 -163 -330 -318 -18 -60 -18 -186 1 -250
30 -104 95 -192 188 -256 42 -29 145 -66 200 -73 l30 -4 22 -124 c11 -68 24
-144 27 -169 3 -25 8 -56 10 -70 4 -22 34 -213 51 -320 3 -19 9 -58 14 -86 l8
-51 -49 -11 c-80 -19 -238 -81 -334 -132 -326 -172 -578 -434 -734 -762 -48
-100 -110 -273 -110 -304 0 -10 -6 -13 -17 -10 -19 6 -302 73 -363 86 -138 30
-196 44 -206 51 -5 5 -11 29 -13 54 -4 79 -40 197 -84 273 -180 315 -582 421
-897 236 -112 -66 -217 -185 -268 -305 -84 -195 -60 -443 59 -616 94 -137 214
-223 374 -269 92 -27 263 -24 361 5 182 55 350 214 416 393 18 52 24 59 42 54
12 -4 41 -11 66 -16 25 -5 122 -28 215 -50 194 -47 198 -48 243 -56 l33 -6 -7
-97 c-17 -236 7 -447 76 -662 42 -129 146 -335 225 -444 36 -49 65 -92 64 -95
0 -3 -43 -39 -96 -80 -53 -41 -101 -79 -107 -85 -6 -5 -33 -27 -59 -49 l-49
-39 -71 36 c-125 62 -235 78 -359 52 -376 -79 -550 -526 -324 -833 125 -170
308 -246 521 -218 200 28 389 206 435 410 26 118 2 274 -61 386 l-30 55 23 20
c13 11 41 34 62 50 21 17 75 59 120 95 44 36 87 69 94 74 8 4 37 -15 82 -55
95 -85 228 -179 330 -233 74 -39 243 -110 290 -122 8 -2 51 -13 95 -24 248
-63 562 -63 806 0 45 11 84 19 86 16 4 -4 18 -55 29 -111 2 -11 6 -31 10 -45
3 -14 10 -45 15 -70 5 -25 12 -52 15 -62 3 -12 -5 -19 -33 -28 -126 -41 -282
-157 -364 -270 -105 -146 -149 -293 -144 -485 3 -122 14 -172 64 -289 89 -206
296 -376 526 -432 97 -23 245 -24 345 -1 191 44 371 169 473 329 55 86 84 154
114 273 11 40 12 231 2 283 -61 324 -304 563 -634 625 -38 7 -96 12 -127 11
-32 -2 -60 1 -63 5 -6 11 -76 323 -73 326 2 2 46 24 98 50 330 165 585 420
758 760 55 108 125 319 138 413 3 26 8 49 9 52 2 3 7 33 10 65 4 33 8 61 9 61
2 3 469 -76 482 -80 6 -3 15 -29 18 -58 8 -60 60 -189 97 -238 101 -135 253
-232 400 -256 49 -7 170 -7 208 0 135 29 236 82 329 174 111 111 170 246 177
407 13 297 -183 554 -473 621 -274 64 -559 -71 -681 -320 -22 -44 -43 -97 -46
-116 -11 -55 -17 -58 -86 -44 -33 7 -79 15 -102 18 -23 3 -69 11 -102 17 -33
5 -71 12 -85 15 -14 2 -45 7 -70 10 -25 3 -48 9 -52 13 -5 4 -10 40 -13 81
-33 469 -243 885 -599 1184 -181 153 -439 283 -661 335 -27 7 -66 16 -85 21
-82 21 -253 32 -396 27 l-152 -5 -11 78 c-7 44 -14 89 -16 102 -3 12 -7 40
-10 63 -4 22 -19 119 -35 215 -16 96 -31 191 -34 210 -15 105 -18 125 -21 130
-2 3 25 20 59 38 363 188 309 723 -84 841 -61 18 -171 21 -234 5z m1059 -2508
c159 -42 298 -165 386 -339 61 -120 73 -194 55 -327 -12 -89 -80 -251 -163
-387 -40 -66 -143 -266 -143 -277 0 -3 -25 -58 -55 -121 -30 -64 -55 -118 -55
-120 0 -2 -18 -42 -41 -89 l-40 -86 -27 15 c-15 8 -34 20 -42 25 -78 51 -513
292 -655 363 -340 169 -461 255 -555 392 -77 114 -109 342 -66 470 63 185 206
276 433 277 126 0 257 -45 339 -117 l39 -33 20 59 c24 69 83 154 132 189 19
14 40 30 46 36 21 18 51 32 128 58 85 29 184 34 264 12z"/>
</g>
</svg>
